<?xml version="1.0" encoding="UTF-8"?>
<svg width="29px" height="26px" viewBox="0 0 29 26" version="1.1" xmlns="http://www.w3.org/2000/svg" xmlns:xlink="http://www.w3.org/1999/xlink">
    <title>9 Shopping Cart_4</title>
    <g id="Home-Page" stroke="none" stroke-width="1" fill="none" fill-rule="evenodd">
        <g id="New-About-Page---2023" transform="translate(-1279.000000, -58.000000)" fill="#717573">
            <g id="9-Shopping-Cart_4" transform="translate(1279.363636, 58.839844)">
                <path d="M10.9329545,16.4772727 L23.3022727,16.4772727 L25.1420455,6.81818182 L8.60113636,6.81818182 L10.9329545,16.4772727 Z M24.2426136,18.75 L10.0380682,18.75 C9.51306818,18.75 9.05625,18.3920455 8.93352273,17.8806818 L6.05852273,5.97159091 C6.05511364,5.95454545 6.05170455,5.94318182 6.04886364,5.93181818 L5.16590909,2.27272727 L1.51534091,2.27272727 C0.888068182,2.27272727 0.378977273,1.76704545 0.378977273,1.13636364 C0.378977273,0.511363636 0.888068182,0 1.51534091,0 L6.06079545,0 C6.58579545,0 7.04261364,0.357954545 7.16534091,0.869318182 L8.05284091,4.54545455 L26.5153409,4.54545455 C26.8539773,4.54545455 27.175,4.69886364 27.3909091,4.96022727 C27.6068182,5.22159091 27.6948864,5.5625 27.6318182,5.89772727 L25.3590909,17.8295455 C25.2568182,18.3636364 24.7880682,18.75 24.2426136,18.75 L24.2426136,18.75 Z" id="Fill-234"></path>
                <path d="M14.1096591,23.0113636 C14.1096591,21.9147727 13.2198864,21.0227273 12.1210227,21.0227273 C11.0232955,21.0227273 10.1323864,21.9147727 10.1323864,23.0113636 C10.1323864,24.1079545 11.0232955,25 12.1210227,25 C13.2198864,25 14.1096591,24.1079545 14.1096591,23.0113636" id="Fill-235"></path>
                <path d="M24.3369318,23.0113636 C24.3369318,21.9147727 23.4471591,21.0227273 22.3482955,21.0227273 C21.2505682,21.0227273 20.3596591,21.9147727 20.3596591,23.0113636 C20.3596591,24.1079545 21.2505682,25 22.3482955,25 C23.4471591,25 24.3369318,24.1079545 24.3369318,23.0113636" id="Fill-236"></path>
            </g>
        </g>
    </g>
</svg>