<?xml version="1.0" encoding="UTF-8"?>
<svg width="1440px" height="6px" viewBox="0 0 1440 6" version="1.1" xmlns="http://www.w3.org/2000/svg" xmlns:xlink="http://www.w3.org/1999/xlink">
    <title>Group 6</title>
    <g id="Home-Page" stroke="none" stroke-width="1" fill="none" fill-rule="evenodd">
        <g id="Group-6">
            <polygon id="Fill-1-Copy-2" fill="#D57974" points="0 6 120 6 120 0 0 0"></polygon>
            <polygon id="Fill-2-Copy-2" fill="#E9725D" points="119 6 239 6 239 0 119 0"></polygon>
            <polygon id="Fill-3-Copy-2" fill="#F4885D" points="238 6 358 6 358 0 238 0"></polygon>
            <polygon id="Fill-4-Copy-2" fill="#FFE686" points="358 6 479 6 479 0 358 0"></polygon>
            <polygon id="Fill-5-Copy-2" fill="#92BC5C" points="479 6 599 6 599 0 479 0"></polygon>
            <polygon id="Fill-6-Copy-2" fill="#264443" points="599 6 719 6 719 0 599 0"></polygon>
            <polygon id="Fill-7-Copy-2" fill="#007276" points="719 6 840 6 840 0 719 0"></polygon>
            <polygon id="Fill-8-Copy-2" fill="#354760" points="839 6 959 6 959 0 839 0"></polygon>
            <polygon id="Fill-9-Copy-2" fill="#0F1221" points="959 6 1079 6 1079 0 959 0"></polygon>
            <polygon id="Fill-10-Copy-2" fill="#21275C" points="1079 6 1204 6 1204 0 1079 0"></polygon>
            <polygon id="Fill-11-Copy-2" fill="#8E1821" points="1200 6 1320 6 1320 0 1200 0"></polygon>
            <polygon id="Fill-12-Copy-2" fill="#BA2025" points="1320 6 1440 6 1440 0 1320 0"></polygon>
        </g>
    </g>
</svg>