<?xml version="1.0" encoding="UTF-8"?>
<svg width="27px" height="27px" viewBox="0 0 27 27" version="1.1" xmlns="http://www.w3.org/2000/svg" xmlns:xlink="http://www.w3.org/1999/xlink">
    <title>Group 17</title>
    <g id="Home-Page" stroke="none" stroke-width="1" fill="none" fill-rule="evenodd">
        <g id="New-About-Page---2023-Copy" transform="translate(-1181.000000, -161.000000)">
            <g id="Group-17" transform="translate(1181.500000, 161.334934)">
                <g id="Group-16" fill="#87B44E" transform="translate(0.000000, -0.000000)">
                    <circle id="Oval" cx="12.7081729" cy="12.7081729" r="12.7081729"></circle>
                </g>
                <path d="M19.4699992,11.374211 L19.4706328,16.354789 C19.4706328,16.9070737 19.0229176,17.354789 18.4706328,17.354789 L7.05855093,17.354789 C6.50626618,17.354789 6.05855093,16.9070737 6.05855093,16.354789 L6.05799923,11.375211 L7.51176982,11.9334139 L9.32313774,12.6144471 L10.4662846,13.036623 L11.5578949,13.4333243 L12.7670945,13.8643247 L15.2147423,12.9669872 L17.5501944,12.0980389 C18.3380707,11.8028938 19.1353394,11.5022531 19.9420008,11.1961166 L19.4699992,11.374211 Z M18.4706328,8.64521102 C19.0229176,8.64521102 19.4706328,9.09292627 19.4706328,9.64521102 L19.4699992,10.304211 L18.3863172,10.7154766 L16.0268955,11.5993366 C15.2498239,11.8884609 14.4821548,12.1720893 13.7238886,12.4502218 L13.7238886,12.4502218 L12.7615919,12.8008505 L12.4200388,12.6801402 L11.3589472,12.2978822 L10.2461899,11.890129 L9.08177457,11.4568825 L7.23830917,10.7592172 L6.05799923,10.304211 L6.05855093,9.64521102 C6.05855093,9.09292627 6.50626618,8.64521102 7.05855093,8.64521102 L18.4706328,8.64521102 Z" id="Combined-Shape" fill="#FFFFFF"></path>
            </g>
        </g>
    </g>
</svg>