<?xml version="1.0" encoding="UTF-8"?>
<svg width="16px" height="16px" viewBox="0 0 16 16" version="1.1" xmlns="http://www.w3.org/2000/svg" xmlns:xlink="http://www.w3.org/1999/xlink">
    <title></title>
    <g id="Home-Page" stroke="none" stroke-width="1" fill="none" fill-rule="evenodd">
        <g id="New-About-Page---2023" transform="translate(-60.000000, -64.000000)" fill="#717573" fill-rule="nonzero">
            <path d="M68.1928035,79.0624975 L68.1928035,73.2851675 L66.2670269,73.2851675 L66.2670269,71.0605634 L68.1928035,71.0605634 L68.1928035,69.4004111 C68.1928035,68.4485903 68.4584279,67.7181233 68.9896766,67.2090101 C69.5209254,66.6998969 70.2181893,66.44534 71.0814685,66.44534 C71.767665,66.44534 72.3431842,66.4674756 72.8080269,66.5117461 L72.8080269,68.5371319 L71.6127172,68.5371319 C71.1921452,68.5371319 70.8933177,68.6367411 70.716235,68.8359593 C70.5834228,68.9909071 70.5170167,69.2565314 70.5170167,69.6328324 L70.5170167,71.0605634 L72.7416208,71.0605634 L72.4427934,73.2851675 L70.5170167,73.2851675 L70.5170167,79.0624975 L74.302164,79.0624975 C74.5456528,79.0624975 74.7448711,78.9794899 74.8998188,78.8134746 C75.0547665,78.6474594 75.1322401,78.4537751 75.1322401,78.2324213 L75.1322401,65.0176091 C75.1322401,64.7741202 75.0492325,64.574902 74.8832173,64.4199543 C74.717202,64.2650065 74.5235178,64.1875329 74.302164,64.1875329 L61.0873517,64.1875329 C60.8438629,64.1875329 60.6446446,64.2650065 60.4896969,64.4199543 C60.3347492,64.574902 60.2572756,64.7741202 60.2572756,65.0176091 L60.2572756,78.2324213 C60.2572756,78.4537751 60.3347492,78.6474594 60.4896969,78.8134746 C60.6446446,78.9794899 60.8438629,79.0624975 61.0873517,79.0624975 L68.1928035,79.0624975 Z" id=""></path>
        </g>
    </g>
</svg>