<?xml version="1.0" encoding="UTF-8"?>
<svg width="36px" height="27px" viewBox="0 0 36 27" version="1.1" xmlns="http://www.w3.org/2000/svg" xmlns:xlink="http://www.w3.org/1999/xlink">
    <title>Group 11</title>
    <g id="Home-Page" stroke="none" stroke-width="1" fill="none" fill-rule="evenodd">
        <g id="New-About-Page---2023" transform="translate(-1172.000000, -58.000000)" fill="#9BC466">
            <g id="Group-11" transform="translate(1172.715668, 58.839844)">
                <g id="4-Wrist-Watch" transform="translate(13.248859, 0.000000)">
                    <path d="M12.3754583,12.1875 L10.382125,12.1875 L10.382125,8.29833333 C10.382125,7.84875 10.0186667,7.48583333 9.569625,7.48583333 C9.12058333,7.48583333 8.757125,7.84875 8.757125,8.29833333 L8.757125,13 C8.757125,13.4495833 9.12058333,13.8125 9.569625,13.8125 L12.3754583,13.8125 C12.8239583,13.8125 13.1879583,13.4495833 13.1879583,13 C13.1879583,12.5504167 12.8239583,12.1875 12.3754583,12.1875" id="Fill-95"></path>
                    <path d="M9.569625,20.26375 C5.56345833,20.26375 2.30425,17.0083333 2.30425,13 C2.30425,8.99708333 5.56345833,5.73625 9.569625,5.73625 C13.5757917,5.73625 16.835,8.99708333 16.835,13 C16.835,17.0083333 13.5757917,20.26375 9.569625,20.26375 Z M13.632125,23.4704167 C13.632125,23.67625 13.472875,23.8333333 13.2692083,23.8333333 L5.87004167,23.8333333 C5.666375,23.8333333 5.507125,23.67625 5.507125,23.4704167 L5.507125,21.49875 C6.73941667,22.0891667 8.113625,22.4304167 9.569625,22.4304167 C11.0250833,22.4304167 12.3998333,22.0891667 13.632125,21.49875 L13.632125,23.4704167 Z M5.507125,2.52958333 C5.507125,2.32916667 5.666375,2.16666667 5.87004167,2.16666667 L13.2692083,2.16666667 C13.472875,2.16666667 13.632125,2.32916667 13.632125,2.52958333 L13.632125,4.50125 C12.3998333,3.91083333 11.0250833,3.56958333 9.569625,3.56958333 C8.113625,3.56958333 6.73941667,3.91083333 5.507125,4.50125 L5.507125,2.52958333 Z M19.319625,11.9166667 L18.9345,11.9166667 C18.6609583,9.54416667 17.5023333,7.4425 15.7987917,5.93666667 L15.7987917,2.52958333 C15.7987917,1.1375 14.664,0 13.2692083,0 L5.87004167,0 C4.47525,0 3.34045833,1.1375 3.34045833,2.52958333 L3.34045833,5.93666667 C1.38179167,7.66458333 0.137583333,10.18875 0.137583333,13 C0.137583333,15.81125 1.38179167,18.3354167 3.34045833,20.0633333 L3.34045833,23.4704167 C3.34045833,24.8679167 4.47525,26 5.87004167,26 L13.2692083,26 C14.664,26 15.7987917,24.8679167 15.7987917,23.4704167 L15.7987917,20.0633333 C17.5023333,18.5629167 18.6609583,16.4558333 18.9345,14.0833333 L19.319625,14.0833333 C19.917625,14.0833333 20.4029583,13.60125 20.4029583,13 C20.4029583,12.4041667 19.917625,11.9166667 19.319625,11.9166667 L19.319625,11.9166667 Z" id="Fill-96"></path>
                </g>
                <g id="Group-10" transform="translate(0.000000, 3.500000)" fill-rule="nonzero">
                    <path d="M12.54375,-0.5 C13.0960347,-0.5 13.54375,-0.0522847498 13.54375,0.5 C13.54375,1.01283584 13.1577098,1.43550716 12.6603711,1.49327227 L12.54375,1.5 L7.55625,1.5 C7.00396525,1.5 6.55625,1.05228475 6.55625,0.5 C6.55625,-0.0128358391 6.94229019,-0.435507161 7.43962887,-0.493272269 L7.55625,-0.5 L12.54375,-0.5 Z" id="Line"></path>
                    <path d="M12.54375,16.8892248 C13.0960347,16.8892248 13.54375,17.3369401 13.54375,17.8892248 C13.54375,18.4020606 13.1577098,18.824732 12.6603711,18.8824971 L12.54375,18.8892248 L7.55625,18.8892248 C7.00396525,18.8892248 6.55625,18.4415096 6.55625,17.8892248 C6.55625,17.376389 6.94229019,16.9537176 7.43962887,16.8959525 L7.55625,16.8892248 L12.54375,16.8892248 Z" id="Line-Copy"></path>
                    <path d="M10.28125,11.0928165 C10.8335347,11.0928165 11.28125,11.5405318 11.28125,12.0928165 C11.28125,12.6056524 10.8952098,13.0283237 10.3978711,13.0860888 L10.28125,13.0928165 L1.61875,13.0928165 C1.06646525,13.0928165 0.61875,12.6451013 0.61875,12.0928165 C0.61875,11.5799807 1.00479019,11.1573094 1.50212887,11.0995443 L1.61875,11.0928165 L10.28125,11.0928165 Z" id="Line-Copy-2"></path>
                    <path d="M10.28125,5.29640827 C10.8335347,5.29640827 11.28125,5.74412352 11.28125,6.29640827 C11.28125,6.80924411 10.8952098,7.23191543 10.3978711,7.28968054 L10.28125,7.29640827 L1.61875,7.29640827 C1.06646525,7.29640827 0.61875,6.84869302 0.61875,6.29640827 C0.61875,5.78357243 1.00479019,5.36090111 1.50212887,5.303136 L1.61875,5.29640827 L10.28125,5.29640827 Z" id="Line-Copy-3"></path>
                </g>
            </g>
        </g>
    </g>
</svg>