<?xml version="1.0" encoding="UTF-8"?>
<svg width="17px" height="17px" viewBox="0 0 17 17" version="1.1" xmlns="http://www.w3.org/2000/svg" xmlns:xlink="http://www.w3.org/1999/xlink">
    <title></title>
    <g id="Home-Page" stroke="none" stroke-width="1" fill="none" fill-rule="evenodd">
        <g id="New-About-Page---2023" transform="translate(-102.000000, -63.000000)" fill="#717573" fill-rule="nonzero">
            <path d="M110.45216,79.1247283 C111.810037,79.1223965 112.799103,79.1049081 113.419358,79.0722631 C114.087325,79.0371069 114.667402,78.9374979 115.159589,78.7734357 C115.745525,78.5624987 116.255289,78.2402336 116.688882,77.8066411 C117.122474,77.3730485 117.444739,76.8632841 117.655676,76.2773479 C117.819739,75.7851615 117.919348,75.2050848 117.954504,74.5371176 C117.98966,73.8691505 118.007238,72.7734498 118.007238,71.2500161 L118.006521,70.6236624 C118.003651,69.424048 117.992171,68.5429915 117.972082,67.9804926 C117.925207,67.3008069 117.819739,66.7148707 117.655676,66.2226843 C117.444739,65.636748 117.122474,65.1269836 116.688882,64.6933911 C116.255289,64.2597986 115.745525,63.9375335 115.159589,63.7265965 C114.667402,63.5625342 114.087325,63.4629253 113.419358,63.4277691 C112.751391,63.392613 111.65569,63.3750349 110.132257,63.3750349 L109.812354,63.3753039 C108.454477,63.3776357 107.46541,63.3951241 106.845155,63.4277691 C106.177188,63.4629253 105.597111,63.5625342 105.104925,63.7265965 C104.518989,63.9375335 104.009224,64.2597986 103.575632,64.6933911 C103.142039,65.1269836 102.819774,65.636748 102.608837,66.2226843 C102.444775,66.7148707 102.345166,67.2949474 102.31001,67.9629146 C102.274854,68.6308817 102.257276,69.7265824 102.257276,71.2500161 L102.257545,71.5699192 C102.259876,72.9277961 102.277365,73.9168624 102.31001,74.5371176 C102.345166,75.2050848 102.444775,75.7851615 102.608837,76.2773479 C102.819774,76.8632841 103.142039,77.3730485 103.575632,77.8066411 C104.009224,78.2402336 104.518989,78.5507801 105.104925,78.7382795 C105.597111,78.9257789 106.177188,79.0371069 106.845155,79.0722631 C107.513122,79.1074192 108.608823,79.1249973 110.132257,79.1249973 L110.45216,79.1247283 Z M111.006387,77.7183166 L109.265071,77.7183166 C108.473406,77.7160019 107.848408,77.7044279 107.390076,77.6835945 C106.52289,77.6367198 105.890079,77.5429698 105.491643,77.4023452 C104.78852,77.1210958 104.284615,76.617191 103.979928,75.89063 C103.839303,75.4921937 103.745553,74.8593827 103.698678,73.9921971 C103.675241,73.4765731 103.663522,72.7500127 103.663522,71.8125148 L103.663956,70.3828306 C103.666271,69.5911658 103.677845,68.9661675 103.698678,68.5078351 C103.745553,67.6172124 103.839303,66.9844014 103.979928,66.6094022 C104.261177,65.8828412 104.765082,65.3789363 105.491643,65.097687 C105.890079,64.9570623 106.52289,64.8633124 107.390076,64.8164377 C107.9057,64.7930001 108.63226,64.7812815 109.569758,64.7812815 L110.999442,64.7817155 C111.791107,64.7840303 112.416105,64.7956042 112.874438,64.8164377 C113.76506,64.8633124 114.397871,64.9570623 114.772871,65.097687 C115.499432,65.3789363 116.003337,65.8828412 116.284586,66.6094022 C116.425211,66.9844014 116.51896,67.6172124 116.565835,68.5078351 C116.589273,69.0000215 116.600991,69.7265824 116.600991,70.6875174 L116.600557,72.1172016 C116.598243,72.9088664 116.586669,73.5338647 116.565835,73.9921971 C116.51896,74.8593827 116.425211,75.4921937 116.284586,75.89063 C116.003337,76.5937534 115.499432,77.0976582 114.772871,77.4023452 C114.397871,77.5429698 113.76506,77.6367198 112.874438,77.6835945 C112.382251,77.7070321 111.65569,77.7187507 110.694755,77.7187507 L111.006387,77.7183166 Z M114.350997,67.9804926 C114.608808,67.9804926 114.825605,67.8867427 115.001386,67.6992433 C115.177167,67.5117439 115.276776,67.2890879 115.300213,67.0312762 C115.300213,66.7734644 115.206463,66.5508084 115.018964,66.363309 C114.831465,66.1758096 114.608808,66.0820597 114.350997,66.0820597 C114.093185,66.0820597 113.870529,66.1758096 113.68303,66.363309 C113.49553,66.5508084 113.40178,66.7734644 113.40178,67.0312762 C113.40178,67.2890879 113.49553,67.5117439 113.68303,67.6992433 C113.870529,67.8867427 114.093185,67.9804926 114.350997,67.9804926 Z M110.132257,75.2929752 C110.858818,75.2929752 111.532644,75.1113348 112.153736,74.7480546 C112.774829,74.3847744 113.267015,73.8925881 113.630295,73.2714956 C113.993576,72.6504032 114.175216,71.976577 114.175216,71.2500161 C114.175216,70.5234551 113.993576,69.849629 113.630295,69.2285365 C113.267015,68.6074441 112.774829,68.1152578 112.153736,67.7519776 C111.532644,67.3886974 110.858818,67.207057 110.132257,67.207057 C109.405696,67.207057 108.73187,67.3886974 108.110777,67.7519776 C107.489685,68.1152578 106.997498,68.6074441 106.634218,69.2285365 C106.270938,69.849629 106.089298,70.5234551 106.089298,71.2500161 C106.089298,71.976577 106.270938,72.6504032 106.634218,73.2714956 C106.997498,73.8925881 107.489685,74.3847744 108.110777,74.7480546 C108.73187,75.1113348 109.405696,75.2929752 110.132257,75.2929752 Z M110.132257,73.8867286 C109.405696,73.8867286 108.784604,73.6289169 108.26898,73.1132929 C107.753356,72.597669 107.495544,71.976577 107.495544,71.2500161 C107.495544,70.5234551 107.753356,69.9023632 108.26898,69.3867393 C108.784604,68.8711153 109.405696,68.6133036 110.132257,68.6133036 C110.858818,68.6133036 111.47991,68.8711153 111.995534,69.3867393 C112.511158,69.9023632 112.768969,70.5234551 112.768969,71.2500161 C112.768969,71.976577 112.511158,72.597669 111.995534,73.1132929 C111.47991,73.6289169 110.858818,73.8867286 110.132257,73.8867286 Z" id=""></path>
        </g>
    </g>
</svg>