<?xml version="1.0" encoding="UTF-8"?>
<svg width="21px" height="32px" viewBox="0 0 21 32" version="1.1" xmlns="http://www.w3.org/2000/svg" xmlns:xlink="http://www.w3.org/1999/xlink">
    <title>Group 13</title>
    <g id="Home-Page" stroke="none" stroke-width="1" fill="none" fill-rule="evenodd">
        <g id="New-About-Page---2023" transform="translate(-206.000000, -56.000000)">
            <g id="Group-13" transform="translate(206.792437, 56.000000)">
                <g id="4-Pointer_2" fill="#9EC66C">
                    <path d="M10.0696458,2.41666667 C6.15525,2.41666667 2.9706875,5.600625 2.9706875,9.515625 C2.9706875,11.074375 3.47395833,12.560625 4.42552083,13.8052083 L5.03633333,14.663125 C6.854875,17.2127083 8.8323125,19.9797917 10.0696458,22.9341667 C11.3069792,19.9797917 13.2844167,17.2127083 15.1029583,14.663125 L15.6896042,13.8414583 C16.6653333,12.560625 17.1686042,11.074375 17.1686042,9.515625 C17.1686042,5.600625 13.9840417,2.41666667 10.0696458,2.41666667 Z M10.0696458,29 C9.43466667,29 8.90783333,28.510625 8.86433333,27.87625 C8.58339583,23.7920833 5.65379167,19.6897917 3.06977083,16.0708333 L2.47889583,15.2370833 C1.22827083,13.5997917 0.554020833,11.6060417 0.554020833,9.515625 C0.554020833,4.27145833 4.82245833,0 10.0696458,0 C15.3168333,0 19.5852708,4.27145833 19.5852708,9.515625 C19.5852708,11.6060417 18.9110208,13.5997917 17.6362292,15.2733333 L17.0695208,16.0708333 C14.4855,19.6897917 11.5558958,23.7920833 11.2749583,27.87625 C11.2314583,28.510625 10.704625,29 10.0696458,29 L10.0696458,29 Z" id="Fill-373"></path>
                    <path d="M10.0696458,5.99333333 C8.12302083,5.99333333 6.5449375,7.57020833 6.5449375,9.515625 C6.5449375,11.4610417 8.12302083,13.0379167 10.0696458,13.0379167 C12.0162708,13.0379167 13.59375,11.4610417 13.59375,9.515625 C13.59375,7.57020833 12.0162708,5.99333333 10.0696458,5.99333333 Z M10.0696458,7.80583333 C11.0133542,7.80583333 11.78125,8.573125 11.78125,9.515625 C11.78125,10.458125 11.0133542,11.2254167 10.0696458,11.2254167 C9.12533333,11.2254167 8.3574375,10.458125 8.3574375,9.515625 C8.3574375,8.573125 9.12533333,7.80583333 10.0696458,7.80583333 L10.0696458,7.80583333 Z" id="Fill-374"></path>
                </g>
                <path d="M10,25.1048725 C6.49029403,25.1048725 3.53761164,26.3995536 3.53761164,28.5 C3.53761164,30.6004464 6.49029403,31.8951275 10,31.8951275 C13.509706,31.8951275 16.4623884,30.6004464 16.4623884,28.5 C16.4623884,26.3995536 13.509706,25.1048725 10,25.1048725 Z M10,27.1048725 C12.5238816,27.1048725 14.4623884,27.9548617 14.4623884,28.5 C14.4623884,29.0451383 12.5238816,29.8951275 10,29.8951275 C7.47611838,29.8951275 5.53761164,29.0451383 5.53761164,28.5 C5.53761164,27.9548617 7.47611838,27.1048725 10,27.1048725 Z" id="Oval" fill="#98C263" fill-rule="nonzero"></path>
            </g>
        </g>
    </g>
</svg>