<?xml version="1.0" encoding="UTF-8"?>
<svg width="259px" height="214px" viewBox="0 0 259 214" version="1.1" xmlns="http://www.w3.org/2000/svg" xmlns:xlink="http://www.w3.org/1999/xlink">
    <title>BountifulFarmersMarket-Logo-Green</title>
    <g id="Home-Page" stroke="none" stroke-width="1" fill="none" fill-rule="evenodd">
        <g id="New-Homepage-2023" transform="translate(-545.000000, -5313.000000)" fill="#BFF892" fill-rule="nonzero">
            <g id="BountifulFarmersMarket-Logo-Green" transform="translate(545.742616, 5313.955262)">
                <g id="Group" transform="translate(29.518987, 69.772152)">
                    <path d="M8.97198312,0.840843882 L9.99172996,1.59223629 C10.2690295,1.79797468 10.3495359,2.18261603 10.1616878,2.47780591 C8.73046414,4.74987342 3.24708861,14.7147679 3.00556962,34.7250633 C2.76405063,55.1021097 5.9843038,70.3804219 6.7356962,73.6454008 C6.81620253,74.0032068 6.59257384,74.3610127 6.23476793,74.441519 L6.23476793,74.441519 C5.89485232,74.5130802 5.55493671,74.3162869 5.45654008,73.9853165 C4.50835443,70.8813502 0.241518987,55.7014346 0.366751055,34.5908861 C0.483037975,14.0617722 6.42261603,3.49755274 8.02379747,1.01974684 C8.22953586,0.697721519 8.65890295,0.61721519 8.97198312,0.840843882 Z" id="Path"></path>
                    <path d="M189.842869,0.840843882 L188.823122,1.59223629 C188.545823,1.79797468 188.465316,2.18261603 188.653165,2.47780591 C190.084388,4.74987342 195.567764,14.7147679 195.809283,34.7250633 C196.050802,55.1021097 192.830549,70.3804219 192.079156,73.6454008 C191.99865,74.0032068 192.222278,74.3610127 192.580084,74.441519 L192.580084,74.441519 C192.92,74.5130802 193.259916,74.3162869 193.358312,73.9853165 C194.306498,70.8813502 198.573333,55.7014346 198.448101,34.5908861 C198.331814,14.0617722 192.392236,3.49755274 190.791055,1.01974684 C190.576371,0.697721519 190.147004,0.61721519 189.842869,0.840843882 Z" id="Path"></path>
                </g>
                <g id="Group" transform="translate(39.358650, 0.000000)">
                    <path d="M17.747173,45.0477637 C17.7024473,45.2713924 17.9439662,45.4413502 18.1318143,45.307173 C20.171308,43.9385654 22.9979747,44.215865 24.5454852,45.4055696 C27.6494515,47.8028692 27.6405063,52.0428692 24.6081013,55.969789 L18.6685232,63.662616 C18.5790717,63.7699578 18.4270042,63.7967932 18.3107173,63.7073418 L0.760337553,50.1464979 C0.652995781,50.0570464 0.626160338,49.8960338 0.715611814,49.788692 L6.10059072,42.8562025 C9.01670886,39.1350211 13.0599156,37.7574684 16.1638819,40.1547679 C17.4072574,41.129789 18.1675949,42.9098734 17.747173,45.0477637 Z M12.9257384,49.2340928 C14.5895359,47.0783122 14.052827,45.8081013 13.0330802,45.0209283 C11.8523207,44.1085232 10.5105485,44.6273418 9.54447257,45.8886076 L7.86278481,48.0712236 C7.77333333,48.1785654 7.80016878,48.3395781 7.90751055,48.4290295 L11.2440506,51.0052321 C11.3513924,51.0946835 11.5124051,51.0678481 11.6018565,50.9605063 L12.9257384,49.2340928 Z M14.661097,53.6440506 L18.1497046,56.3365401 C18.2570464,56.4259916 18.4180591,56.3991561 18.5075105,56.2918143 L20.8600844,53.241519 C21.8887764,51.908692 21.7814346,50.5579747 20.7616878,49.7708017 C19.7329958,48.9836287 18.0781435,48.8047257 16.0565401,51.4167089 L14.6074262,53.2951899 C14.535865,53.4025316 14.5537553,53.5635443 14.661097,53.6440506 Z" id="Shape"></path>
                    <path d="M23.2931646,39.5017722 C19.4288608,34.4298734 20.2339241,27.1485232 25.7709705,22.9264135 C31.3080169,18.7132489 38.5446414,19.8761181 42.4089451,24.9480169 C46.2732489,30.0199156 45.4681857,37.3012658 39.9311392,41.5233755 C34.3940928,45.7454852 27.1574684,44.5736709 23.2931646,39.5017722 Z M37.8469198,28.4187342 C35.5748523,25.4310549 31.737384,24.7691139 28.8481013,26.9696203 C25.9677637,29.1701266 25.6010127,33.0254852 27.8820253,36.0131646 C30.1540928,39.0008439 33.9736709,39.6806751 36.8540084,37.4801688 C39.734346,35.2796624 40.1189873,31.4064135 37.8469198,28.4187342 Z" id="Shape"></path>
                    <path d="M60.1918987,5.30447257 C60.3260759,5.25080169 60.4691983,5.31341772 60.5228692,5.44759494 L65.6037131,18.2391561 C67.7684388,23.6867511 64.870211,28.2129958 60.0577215,30.1272574 C55.2452321,32.041519 50.0570464,30.7265823 47.8923207,25.2789873 L42.8114768,12.4874262 C42.7578059,12.3532489 42.8204219,12.2101266 42.9545992,12.1564557 L47.8028692,10.2243038 C47.9370464,10.1706329 48.0801688,10.2332489 48.1338397,10.3674262 L53.2146835,23.1589873 C54.2344304,25.7172996 56.3723207,26.3613502 58.268692,25.6099578 C60.1650633,24.8585654 61.301097,22.9085232 60.2902954,20.350211 L55.2094515,7.55864979 C55.1557806,7.42447257 55.2183966,7.28135021 55.3525738,7.22767932 L60.1918987,5.30447257 Z" id="Path"></path>
                    <path d="M76.3021097,13.0778059 L77.6438819,24.5454852 C77.6617722,24.6886076 77.5633755,24.8138397 77.4202532,24.83173 L72.2320675,25.44 C72.0889451,25.4578903 71.9637131,25.3594937 71.9458228,25.2163713 L69.3696203,3.21130802 C69.35173,3.06818565 69.4501266,2.94295359 69.5932489,2.92506329 L73.6185654,2.45097046 C73.6990717,2.44202532 73.7795781,2.46886076 73.8332489,2.53147679 L83.6013502,13.1583122 C83.771308,13.3372152 84.0664979,13.203038 84.0396624,12.9525738 L82.7157806,1.63696203 C82.6978903,1.49383966 82.7962869,1.36860759 82.9394093,1.3507173 L88.1275949,0.742447257 C88.2707173,0.724556962 88.3959494,0.822953586 88.4138397,0.966075949 L90.9900422,22.9711392 C91.0079325,23.1142616 90.9095359,23.2394937 90.7664135,23.257384 L86.7768776,23.7225316 C86.6963713,23.7314768 86.615865,23.7046414 86.5621941,23.6420253 L76.7404219,12.8810127 C76.5794093,12.6931646 76.2752743,12.8362869 76.3021097,13.0778059 Z" id="Path"></path>
                    <path d="M113.880675,3.27392405 L113.370802,7.46025316 C113.352911,7.60337553 113.227679,7.70177215 113.084557,7.68388186 L107.359662,6.97721519 C107.21654,6.95932489 107.091308,7.05772152 107.073418,7.20084388 L104.953418,24.5007595 C104.935527,24.6438819 104.810295,24.7422785 104.667173,24.7243882 L99.4879325,24.0892827 C99.3448101,24.0713924 99.2464135,23.9461603 99.2643038,23.803038 L101.384304,6.50312236 C101.402194,6.36 101.303797,6.23476793 101.160675,6.21687764 L95.5252321,5.52810127 C95.3821097,5.51021097 95.2837131,5.3849789 95.3016034,5.24185654 L95.8114768,1.05552743 C95.8293671,0.912405063 95.9545992,0.814008439 96.0977215,0.831898734 L113.648101,2.98767932 C113.800169,3.01451477 113.898565,3.13974684 113.880675,3.27392405 Z" id="Path"></path>
                    <path d="M119.01519,28.2129958 L114.023797,26.6923207 C113.88962,26.6475949 113.809114,26.5134177 113.85384,26.3702954 L120.294346,5.17029536 C120.339072,5.03611814 120.473249,4.95561181 120.616371,5.00033755 L125.607764,6.52101266 C125.741941,6.5657384 125.822447,6.69991561 125.777722,6.84303797 L119.337215,28.043038 C119.292489,28.1772152 119.149367,28.2487764 119.01519,28.2129958 Z" id="Path"></path>
                    <path d="M123.684557,29.3937553 L133.622616,9.58919831 C133.685232,9.46396624 133.8373,9.41029536 133.962532,9.47291139 L147.424979,16.2264979 C147.550211,16.2891139 147.603882,16.4411814 147.541266,16.5664135 L145.65384,20.3323207 C145.591224,20.4575527 145.439156,20.5112236 145.313924,20.4486076 L136.968101,16.2622785 C136.842869,16.1996624 136.690802,16.2533333 136.628186,16.3785654 L134.839156,19.9476793 C134.77654,20.0729114 134.830211,20.2249789 134.955443,20.2875949 L142.138397,23.8924895 C142.263629,23.9551055 142.3173,24.107173 142.254684,24.2324051 L140.483544,27.7746835 C140.420928,27.8999156 140.268861,27.9535865 140.143629,27.8909705 L132.960675,24.2860759 C132.835443,24.2234599 132.683376,24.2771308 132.620759,24.4023629 L128.810127,31.9610127 C128.747511,32.0862447 128.595443,32.1399156 128.470211,32.0772996 L123.800844,29.7336709 C123.675612,29.6710549 123.621941,29.5189873 123.684557,29.3937553 Z" id="Path"></path>
                    <path d="M168.419241,32.5156118 C168.526582,32.6050633 168.544473,32.7660759 168.446076,32.8734177 L159.581435,43.4018565 C155.806582,47.8833755 150.439494,47.4718987 146.476793,44.1353586 C142.514093,40.7988186 141.217046,35.6016878 144.991899,31.1201688 L153.85654,20.59173 C153.945992,20.4843882 154.107004,20.4664979 154.214346,20.5648945 L158.212827,23.92827 C158.320169,24.0177215 158.338059,24.1787342 158.239662,24.2860759 L149.375021,34.8145148 C147.603882,36.9166245 148.042194,39.1081857 149.607595,40.4231224 C151.164051,41.7380591 153.427173,41.8185654 155.198312,39.7164557 L164.062954,29.1880169 C164.152405,29.0806751 164.313418,29.0627848 164.420759,29.1611814 L168.419241,32.5156118 Z" id="Path"></path>
                    <path d="M169.331646,62.9470042 L165.941435,65.4605907 C165.825148,65.541097 165.67308,65.5232068 165.583629,65.4069198 L156.405907,53.0178903 C156.325401,52.9016034 156.343291,52.7495359 156.459578,52.6600844 L174.260422,39.4749367 C174.376709,39.3944304 174.528776,39.4123207 174.618228,39.5286076 L177.722194,43.7238819 C177.8027,43.8401688 177.78481,43.9922363 177.668523,44.0816878 L163.669367,54.4580591 C163.55308,54.5385654 163.53519,54.6995781 163.615696,54.815865 L169.385316,62.5981435 C169.465823,62.7054852 169.447932,62.8664979 169.331646,62.9470042 Z" id="Path"></path>
                </g>
                <g id="Group" transform="translate(0.000000, 39.358650)">
                    <g transform="translate(0.000000, 111.814346)">
                        <path d="M26.835443,13.1672574 C24.1608439,12.9078481 16.8079325,13.5966245 0.724556962,23.2484388 C0.00894514768,23.6778059 -0.0983966245,24.6796624 0.518818565,25.2432068 C8.48894515,32.6408439 11.8075949,36.7198312 12.415865,37.0239662 C12.9436287,37.2833755 7.97907173,51.7924051 5.78751055,58.635443 C5.42970464,59.7446414 6.63729958,60.692827 7.63021097,60.084557 C13.7218565,56.3454852 21.378903,51.6582278 33.0254852,49.5561181 C34.1794093,49.3503797 34.465654,47.8297046 33.4459072,47.2393249 C31.7194937,46.2464135 28.9017722,44.7972996 24.3129114,42.7578059 C23.7851477,42.5252321 23.4810127,41.9616878 23.5883544,41.3891983 C25.4310549,31.6300422 27.3632068,18.4896203 27.9356962,14.5895359 C28.0340928,13.8828692 27.5421097,13.2298734 26.835443,13.1672574 Z" id="Path"></path>
                        <path d="M226.133333,14.3122363 L230.981603,43.4734177 C231.08,44.0637975 230.74903,44.6452321 230.185485,44.8509705 L219.862785,48.7063291 C218.708861,49.1356962 218.807257,50.7994937 219.996962,51.0946835 C226.473249,52.6779747 239.211139,56.0413502 246.045232,59.4673418 C247.038143,59.9593249 248.129451,59.0021941 247.780591,57.9556118 C244.980759,49.4666667 243.290127,42.2926582 242.753418,39.9043038 C242.637131,39.3944304 242.860759,38.8666667 243.299072,38.5804219 C245.383291,37.2386498 251.555443,33.4280169 256.904641,31.6121519 C257.763376,31.316962 258.01384,30.225654 257.387679,29.5637131 C246.277806,17.8813502 237.12692,12.0043882 227.287257,12.8631224 C226.54481,12.9167932 226.008101,13.5876793 226.133333,14.3122363 Z" id="Path"></path>
                        <g transform="translate(27.729958, 0.000000)">
                            <path d="M132.119831,37.5696203 L134.114599,37.3012658 C134.239831,37.2833755 134.320338,37.1491983 134.257722,37.0239662 L132.898059,34.2778059 C132.817553,34.1167932 132.576034,34.1436287 132.540253,34.3225316 L131.914093,37.3370464 C131.878312,37.4712236 131.985654,37.5875105 132.119831,37.5696203 Z" id="Path"></path>
                            <path d="M85.3009283,35.2707173 L83.6013502,35.1454852 C83.5118987,35.1365401 83.4313924,35.2081013 83.4224473,35.2975527 L83.2524895,37.5606751 C83.2435443,37.6501266 83.3151055,37.7306329 83.404557,37.7395781 L85.104135,37.8648101 C85.8197468,37.918481 86.31173,37.3996624 86.3654008,36.6661603 C86.4280169,35.9326582 86.0254852,35.3243882 85.3009283,35.2707173 Z" id="Path"></path>
                            <path d="M144.741435,31.316962 L142.898734,31.6479325 L143.354937,34.2151899 L145.197637,33.8842194 C145.904304,33.7589873 146.253165,33.132827 146.118987,32.40827 C145.993755,31.6658228 145.448101,31.19173 144.741435,31.316962 Z" id="Path"></path>
                            <path d="M48.1427848,29.858903 L46.4789873,29.501097 C46.3895359,29.4832068 46.3000844,29.5368776 46.2821941,29.6263291 L45.8081013,31.8447257 C45.790211,31.9341772 45.8438819,32.0236287 45.9333333,32.041519 L47.5971308,32.3993249 C48.3037975,32.5513924 48.8583966,32.104135 49.0104641,31.3885232 C49.1625316,30.6639662 48.8494515,30.0109705 48.1427848,29.858903 Z" id="Path"></path>
                            <path d="M33.982616,30.8786498 L36.1294515,31.4243038 C36.2099578,31.4421941 36.281519,31.3795781 36.2725738,31.2990717 L36.0221097,27.9267511 C36.0131646,27.8194093 35.8700422,27.7746835 35.8074262,27.8730802 L33.9110549,30.6908017 C33.8752743,30.7623629 33.9021097,30.8607595 33.982616,30.8786498 Z" id="Path"></path>
                            <path d="M200.398143,41.3355274 L192.58903,1.02869198 C192.436962,0.23257384 191.578228,-0.214683544 190.835781,0.134177215 C183.482869,3.56016878 148.838312,18.5790717 105.651139,18.5790717 C61.6857384,18.5790717 17.9797468,3.96270042 9.812827,1.09130802 C9.09721519,0.840843882 8.31898734,1.27915612 8.17586498,2.03054852 L0.742447257,39.7611814 C0.61721519,40.3873418 0.983966245,41.004557 1.59223629,41.1924051 C9.61603376,43.7238819 61.5962869,59.5478481 105.400675,59.5478481 C148.909873,59.5478481 192.436962,45.2177215 199.59308,42.7578059 C200.16557,42.5520675 200.51443,41.9437975 200.398143,41.3355274 Z M28.0877637,29.1254008 L24.8406751,28.1772152 C24.6886076,28.1324895 24.5365401,28.2219409 24.4918143,28.3740084 L23.4810127,31.8089451 C23.4362869,31.9610127 23.2752743,32.041519 23.1321519,32.0057384 L21.137384,31.4243038 C20.9853165,31.3795781 20.9048101,31.2185654 20.9405907,31.075443 L23.7314768,21.5667511 C23.7762025,21.4146835 23.9372152,21.3341772 24.0803376,21.3699578 L30.4403376,23.2394937 C30.5924051,23.2842194 30.6729114,23.4452321 30.6371308,23.5883544 L30.1809283,25.135865 C30.1362025,25.2879325 29.9751899,25.3684388 29.8320675,25.3326582 L26.0124895,24.2145148 C25.8604219,24.169789 25.7083544,24.2592405 25.6636287,24.411308 L25.2342616,25.8604219 C25.1895359,26.0124895 25.2789873,26.164557 25.4310549,26.2092827 L28.6781435,27.1574684 C28.830211,27.2021941 28.9107173,27.3632068 28.8749367,27.5063291 L28.4545148,28.9464979 C28.4008439,29.0806751 28.2398312,29.1701266 28.0877637,29.1254008 Z M36.5677637,35.5659072 L36.3530802,33.7500422 C36.344135,33.7053165 36.3083544,33.6605907 36.2636287,33.6516456 L32.828692,32.7750211 C32.7839662,32.7660759 32.7302954,32.7839662 32.7034599,32.8197468 L31.6658228,34.3135865 C31.6389873,34.3583122 31.5853165,34.3762025 31.5405907,34.3583122 L29.134346,33.741097 C29.0538397,33.7232068 29.0180591,33.6248101 29.07173,33.5621941 L35.4496203,24.6259916 C35.4764557,24.590211 35.5301266,24.5723207 35.5748523,24.5812658 L37.8111392,25.1537553 C37.855865,25.1627004 37.8916456,25.2074262 37.9005907,25.2521519 L39.2602532,36.1741772 C39.2691983,36.2546835 39.1976371,36.3262447 39.1171308,36.2994093 L36.6661603,35.6732489 C36.6035443,35.6553586 36.5677637,35.6195781 36.5677637,35.5659072 Z M51.6224473,31.9252321 C51.3183122,33.3564557 50.3075105,34.3135865 48.9210127,34.4924895 C48.8315612,34.5014346 48.7689451,34.5729958 48.7778903,34.6624473 C48.8047257,35.6732489 49.1178059,36.4067511 49.9228692,36.5767089 C50.2180591,36.6393249 50.575865,36.6124895 50.9068354,36.4783122 C51.0052321,36.4425316 51.1125738,36.4962025 51.1304641,36.5945992 L51.5329958,38.1689451 C51.5508861,38.2494515 51.5151055,38.3299578 51.4345992,38.3657384 C50.6742616,38.6877637 49.9407595,38.8308861 48.9478481,38.6162025 C46.5326582,38.097384 46.2732489,35.494346 46.3269198,34.3135865 C46.3269198,34.2330802 46.2732489,34.161519 46.1927426,34.1436287 L45.5129114,33.9915612 C45.4234599,33.9736709 45.3340084,34.0273418 45.3161181,34.1167932 L44.6273418,37.3459916 C44.6094515,37.435443 44.52,37.4980591 44.4305485,37.4712236 L42.1674262,36.9881857 C42.0779747,36.9702954 42.0153586,36.8808439 42.0421941,36.7913924 L44.1711392,26.8801688 C44.1890295,26.7907173 44.278481,26.7281013 44.3679325,26.7549367 L48.9299578,27.7299578 C51.1483544,28.2129958 52.0160338,30.0646414 51.6224473,31.9252321 Z M65.9346835,41.4786498 L63.5731646,41.0850633 C63.5105485,41.0761181 63.4658228,41.0135021 63.4658228,40.9508861 L63.8862447,35.8521519 C63.8951899,35.7179747 63.7252321,35.6643038 63.6536709,35.7805907 L60.7912236,40.4231224 C60.7643882,40.4678481 60.7107173,40.4857384 60.6659916,40.4767932 L59.1363713,40.217384 C59.0827004,40.2084388 59.0469198,40.1726582 59.0379747,40.1189873 L57.8393249,34.7966245 C57.8124895,34.6713924 57.6335865,34.6713924 57.5978059,34.7966245 L56.3365401,39.7611814 C56.3186498,39.8237975 56.2560338,39.8595781 56.1934177,39.8506329 L53.8318987,39.4570464 C53.7603376,39.4481013 53.7156118,39.3765401 53.7335021,39.3049789 L56.3544304,29.375865 C56.3723207,29.3132489 56.4349367,29.2774684 56.4975527,29.2864135 L58.8590717,29.68 C58.9127426,29.6889451 58.9485232,29.7247257 58.9574684,29.7783966 L60.451308,36.3709705 C60.4781435,36.4783122 60.6212658,36.5051477 60.6749367,36.4067511 L64.2440506,30.6550211 C64.2708861,30.6102954 64.324557,30.5924051 64.3692827,30.6013502 L66.7308017,30.9949367 C66.7934177,31.0038819 66.8381435,31.0664979 66.8381435,31.1291139 L66.0867511,41.371308 C66.0688608,41.4428692 66.0062447,41.4965401 65.9346835,41.4786498 Z M77.4023629,34.52827 L73.4486076,34.0541772 C73.2875949,34.0362869 73.1444726,34.1525738 73.1265823,34.3135865 L72.9476793,35.798481 C72.929789,35.9594937 73.0460759,36.102616 73.2070886,36.1205063 L76.561519,36.523038 C76.7225316,36.5409283 76.8388186,36.6840506 76.8209283,36.8450633 L76.6420253,38.3120675 C76.624135,38.4730802 76.4810127,38.5893671 76.32,38.5714768 L72.9655696,38.1689451 C72.804557,38.1510549 72.6614346,38.2673418 72.6435443,38.4283544 L72.4825316,39.796962 C72.4646414,39.9579747 72.5809283,40.101097 72.7419409,40.1189873 L76.6956962,40.5930802 C76.8567089,40.6109705 76.9729958,40.7540928 76.9551055,40.9151055 L76.7672574,42.5073418 C76.7493671,42.6683544 76.6062447,42.7846414 76.4452321,42.7667511 L69.8616034,41.9795781 C69.7005907,41.9616878 69.5843038,41.8185654 69.6021941,41.6575527 L70.7740084,31.8357806 C70.7918987,31.6747679 70.9350211,31.558481 71.0960338,31.5763713 L77.6796624,32.3635443 C77.8406751,32.3814346 77.956962,32.524557 77.9390717,32.6855696 L77.7512236,34.2778059 C77.7064979,34.4298734 77.5633755,34.5461603 77.4023629,34.52827 Z M87.2867511,43.8401688 C84.8268354,43.6523207 84.2096203,41.1118987 84.1022785,39.9311392 C84.0933333,39.8506329 84.0307173,39.7880169 83.950211,39.7790717 L83.2614346,39.7254008 C83.1719831,39.7164557 83.0914768,39.7880169 83.0825316,39.8774684 L82.8410127,43.1692827 C82.8320675,43.2587342 82.7515612,43.3302954 82.6621097,43.3213502 L80.3542616,43.1513924 C80.2648101,43.1424473 80.1932489,43.0619409 80.2021941,42.9724895 L80.9535865,32.8644726 C80.9625316,32.7750211 81.043038,32.7034599 81.1324895,32.7124051 L85.7839662,33.0612658 C88.0560338,33.2312236 89.1652321,34.948692 89.0310549,36.8450633 C88.9237131,38.3031224 88.0560338,39.3944304 86.7053165,39.7611814 C86.6248101,39.7880169 86.5711392,39.8685232 86.5800844,39.9490295 C86.741097,40.9419409 87.1525738,41.6307173 87.9755274,41.6843882 C88.2796624,41.7112236 88.6285232,41.6217722 88.9326582,41.4518143 C89.0221097,41.3981435 89.1294515,41.4428692 89.1652321,41.5323207 L89.7824473,43.0351055 C89.8182278,43.1156118 89.7824473,43.2050633 89.7108861,43.2408439 C89.0131646,43.670211 88.3064979,43.91173 87.2867511,43.8401688 Z M96.00827,44.2069198 C93.9329958,44.1532489 92.2602532,43.0529958 91.947173,41.1924051 C91.9203376,41.0582278 92.0187342,40.9240506 92.1529114,40.8972152 L93.9419409,40.5662447 C94.067173,40.5394093 94.1924051,40.6199156 94.2281857,40.7362025 C94.4965401,41.550211 95.0869198,41.9974684 96.0172152,42.0153586 C96.795443,42.0332489 97.457384,41.7648945 97.4752743,41.1118987 C97.4842194,40.7719831 97.2963713,40.4052321 96.4197468,40.0832068 L95.2658228,39.6359494 C93.6914768,39.0545148 92.4659916,37.8916456 92.4838819,36.4693671 C92.5375527,34.5372152 94.1655696,33.3564557 96.3213502,33.4101266 C97.9851477,33.4548523 99.1748523,34.2509705 99.7831224,35.7269198 C99.8367932,35.861097 99.7741772,36.0131646 99.64,36.0668354 L97.9672574,36.6929958 C97.8420253,36.7377215 97.7078481,36.6840506 97.6452321,36.5588186 C97.3053165,35.8342616 96.8043882,35.6106329 96.2855696,35.6016878 C95.6594093,35.5837975 95.1316456,35.8253165 95.1137553,36.4246414 C95.1048101,36.7108861 95.2121519,37.1134177 96.1066667,37.435443 L97.215865,37.855865 C99.5416034,38.6788186 100.078312,39.9490295 100.078312,41.1208439 C100.024641,43.3213502 98.0209283,44.2605907 96.00827,44.2069198 Z M103.173333,38.0705485 L102.851308,37.6411814 C102.761857,37.5248945 102.788692,37.3549367 102.913924,37.2654852 C103.343291,36.9434599 103.629536,36.4693671 103.710042,35.9952743 C103.736878,35.8521519 103.629536,35.7090295 103.477468,35.6911392 C102.869198,35.6106329 102.484557,35.0739241 102.457722,34.5729958 C102.395105,33.8394937 102.878143,33.2312236 103.790549,33.195443 C104.881857,33.1417722 105.230717,34.1167932 105.248608,34.6356118 C105.311224,35.977384 104.711899,37.4622785 103.513249,38.1421097 C103.405907,38.2136709 103.25384,38.1778903 103.173333,38.0705485 Z M123.371477,42.4178903 L122.566414,37.8290295 C122.530633,37.6054008 122.217553,37.5875105 122.145992,37.8021941 L120.678987,42.6057384 C120.652152,42.6862447 120.580591,42.7488608 120.491139,42.7578059 L119.059916,42.883038 C118.970464,42.8919831 118.889958,42.8472574 118.854177,42.7667511 L116.546329,38.3031224 C116.438987,38.1063291 116.143797,38.1778903 116.143797,38.401519 L116.179578,43.0619409 C116.179578,43.1692827 116.099072,43.2676793 115.982785,43.2766245 L113.773333,43.4734177 C113.648101,43.4823629 113.540759,43.3839662 113.540759,43.2587342 L113.55865,33.1686076 C113.55865,33.0612658 113.639156,32.9628692 113.755443,32.9539241 L115.99173,32.7481857 C116.081181,32.7392405 116.161688,32.7839662 116.197468,32.8644726 L119.185148,38.6162025 C119.274599,38.7861603 119.525063,38.7593249 119.578734,38.5804219 L121.492996,32.3814346 C121.519831,32.3009283 121.591392,32.2383122 121.680844,32.2293671 L123.917131,32.0236287 C124.024473,32.0146835 124.122869,32.0862447 124.149705,32.1935865 L125.98346,42.1137553 C126.010295,42.2389873 125.920844,42.3552743 125.795612,42.3642194 L123.58616,42.5610127 C123.487764,42.6057384 123.389367,42.5252321 123.371477,42.4178903 Z M136.145148,40.9240506 L135.313249,39.4123207 C135.277468,39.3407595 135.196962,39.3049789 135.125401,39.3139241 L131.708354,39.7790717 C131.627848,39.7880169 131.565232,39.8506329 131.547342,39.9221941 L131.171646,41.5949367 C131.153755,41.675443 131.091139,41.7291139 131.010633,41.7380591 L128.702785,42.0511392 C128.568608,42.0690295 128.461266,41.9437975 128.488101,41.8185654 L131.010633,31.2901266 C131.028523,31.2096203 131.091139,31.1559494 131.171646,31.1470042 L133.363207,30.8518143 C133.443713,30.8428692 133.515274,30.8786498 133.551055,30.950211 L138.828692,40.4231224 C138.891308,40.5394093 138.819747,40.6825316 138.68557,40.7004219 L136.332996,41.0135021 C136.261435,41.0313924 136.180928,40.9956118 136.145148,40.9240506 Z M148.802532,39.1171308 C146.271055,39.5733333 145.036624,37.0418565 144.705654,35.9863291 L143.721688,36.1652321 L144.365738,39.7432911 L141.7627,40.2084388 L139.92,29.8946835 L144.678819,29.0448945 C146.915105,28.6423629 148.426835,30.0288608 148.757806,31.8983966 C149.02616,33.3832911 148.408945,34.6982278 147.102954,35.3691139 C147.51443,36.3709705 148.095865,36.9971308 148.945654,36.8450633 C149.30346,36.7824473 149.688101,36.5588186 149.947511,36.2367932 L151.12827,37.8200844 C150.493165,38.4820253 149.858059,38.9292827 148.802532,39.1171308 Z M160.967932,36.5051477 C159.742447,36.7824473 158.490127,36.4067511 157.461435,35.0828692 L155.806582,33.0612658 C155.717131,32.9539241 155.538228,33.0344304 155.565063,33.1775527 L156.486414,37.2207595 C156.504304,37.2923207 156.459578,37.3638819 156.379072,37.3817722 L154.062278,37.9095359 C153.990717,37.9274262 153.919156,37.8827004 153.901266,37.8021941 L151.629198,27.8551899 C151.611308,27.7836287 151.656034,27.7120675 151.73654,27.6941772 L154.053333,27.1664135 C154.124895,27.1485232 154.196456,27.1932489 154.214346,27.2737553 L155.117806,31.2364557 C155.144641,31.3706329 155.341435,31.3795781 155.377215,31.2454008 L156.942616,26.5760338 C156.960506,26.531308 156.996287,26.4955274 157.041013,26.4865823 L159.447257,25.9409283 C159.518819,25.923038 159.59038,25.9677637 159.60827,26.04827 L159.652996,26.227173 C159.661941,26.2540084 159.652996,26.2808439 159.644051,26.3076793 L157.774515,31.4690295 C157.756624,31.5137553 157.76557,31.5674262 157.80135,31.6032068 L159.384641,33.4727426 C160.162869,34.403038 160.449114,34.4388186 160.976878,34.3225316 C161.13789,34.2867511 161.343629,34.161519 161.522532,34.0005063 C161.585148,33.9468354 161.674599,33.9557806 161.719325,34.0183966 C162.077131,34.4835443 162.443882,34.9397468 162.801688,35.3959494 C162.846414,35.4496203 162.837468,35.5390717 162.783797,35.5837975 C162.175527,36.0847257 161.701435,36.3351899 160.967932,36.5051477 Z M165.574684,34.8592405 L162.882194,25.3594937 C162.837468,25.198481 162.92692,25.0285232 163.087932,24.9837975 L169.447932,23.1768776 C169.608945,23.1321519 169.778903,23.2216034 169.823629,23.382616 L170.252996,24.9032911 C170.297722,25.0643038 170.20827,25.2342616 170.047257,25.2789873 L166.236624,26.3613502 C166.075612,26.4060759 165.98616,26.5760338 166.030886,26.7370464 L166.433418,28.1593249 C166.478143,28.3203376 166.648101,28.409789 166.809114,28.3650633 L170.047257,27.4437131 C170.20827,27.3989873 170.378228,27.4884388 170.422954,27.6494515 L170.825485,29.0538397 C170.870211,29.2148523 170.780759,29.3848101 170.619747,29.4295359 L167.381603,30.3508861 C167.220591,30.3956118 167.131139,30.5655696 167.175865,30.7265823 L167.542616,32.0325738 C167.587342,32.1935865 167.7573,32.283038 167.918312,32.2383122 L171.728945,31.1559494 C171.889958,31.1112236 172.059916,31.2006751 172.104641,31.3616878 L172.534008,32.8823629 C172.578734,33.0433755 172.489283,33.2133333 172.32827,33.2580591 L165.96827,35.0649789 C165.780422,35.1097046 165.619409,35.0202532 165.574684,34.8592405 Z M177.856371,31.1291139 L175.315949,23.8745992 C175.262278,23.7135865 175.092321,23.6330802 174.931308,23.6867511 L172.802363,24.4291983 C172.64135,24.4828692 172.471392,24.4023629 172.417722,24.2413502 L171.898903,22.7475105 C171.845232,22.5864979 171.925738,22.4165401 172.086751,22.3628692 L179.457553,19.7866667 C179.618565,19.7329958 179.788523,19.8135021 179.842194,19.9745148 L180.361013,21.4683544 C180.414684,21.6293671 180.334177,21.7993249 180.173165,21.8529958 L177.999494,22.6133333 C177.838481,22.6670042 177.757975,22.836962 177.811646,22.9979747 L180.352068,30.2524895 C180.405738,30.4135021 180.325232,30.5834599 180.164219,30.6371308 L178.232068,31.316962 C178.08,31.3706329 177.910042,31.2901266 177.856371,31.1291139 Z" id="Shape"></path>
                        </g>
                    </g>
                    <g transform="translate(62.616034, 7.156118)" id="Path">
                        <path d="M2.02160338,63.2153586 L58.7964557,63.2153586 C59.4941772,63.2153586 60.0577215,62.6428692 60.0487764,61.9362025 L58.8054008,2.99662447 C58.7964557,2.4956962 59.0827004,2.03054852 59.5478481,1.82481013 C60.6570464,1.332827 62.8933333,0.518818565 65.4963713,0.518818565 C68.1083544,0.518818565 70.3446414,1.34177215 71.4538397,1.83375527 C71.9100422,2.03949367 72.1962869,2.48675105 72.1962869,2.98767932 L71.6953586,61.9540928 C71.6864135,62.6518143 72.2499578,63.2153586 72.9476793,63.2153586 L130.259241,63.2153586 C130.84962,63.2153586 131.359494,63.6268354 131.484726,64.20827 C131.985654,66.6324051 132.164557,73.0729114 132.164557,78.6994093 C132.164557,84.3885232 131.878312,91.4462447 131.359494,94.0224473 C131.243207,94.6038819 130.733333,95.0153586 130.134008,95.0153586 L2.96084388,95.0153586 C2.38835443,95.0153586 1.89637131,94.6307173 1.75324895,94.0761181 C1.10919831,91.5714768 0.465147679,84.5227004 0.465147679,78.6904641 C0.465147679,73.0102954 0.375696203,66.6950211 0.787172996,64.2529958 C0.88556962,63.6536709 1.41333333,63.2153586 2.02160338,63.2153586 Z"></path>
                        <path d="M8.39054852,96.5270886 C10.1795781,96.5897046 13.5966245,96.7149367 19.0263291,96.9296203 C20.0102954,96.9654008 20.5648945,98.065654 20.0192405,98.8796624 C18.0781435,101.76 15.4751055,104.998143 12.11173,107.923207 C11.4855696,108.468861 10.5016034,108.272068 10.1437975,107.51173 C8.76624473,104.577722 7.88962025,101.813671 7.1292827,98.0209283 C6.95932489,97.2337553 7.57654008,96.5002532 8.39054852,96.5270886 Z"></path>
                        <path d="M125.348354,96.6881013 C123.675612,96.6791561 120.473249,96.7059916 115.177722,96.9027848 C114.175865,96.9385654 113.630211,98.065654 114.2027,98.8886076 C116.143797,101.643713 118.73789,104.559831 122.07443,107.395443 C122.709536,107.932152 123.684557,107.735359 124.033418,106.983966 C125.321519,104.17519 125.867173,101.885232 126.564895,98.1729958 C126.708017,97.4037131 126.126582,96.6881013 125.348354,96.6881013 Z"></path>
                        <path d="M33.6516456,97.215865 C36.4872574,97.215865 40.8524895,97.2069198 45.003038,97.1889841 C46.1032911,97.1800844 46.6757806,98.4950211 45.9243882,99.3000844 C43.8043882,101.554262 41.6843882,103.844219 40.5394093,105.087595 C40.0653165,105.597468 39.2602532,105.624304 38.7593249,105.132321 C37.372827,103.799494 34.707173,101.223291 32.7929114,99.3716456 C31.9699578,98.5755274 32.524557,97.215865 33.6516456,97.215865 Z"></path>
                        <path d="M88.4496203,97.215865 C91.2852321,97.215865 95.6504641,97.2069198 99.8010127,97.1889841 C100.901266,97.1800844 101.473755,98.4950211 100.722363,99.3000844 C98.6023629,101.554262 96.4823629,103.844219 95.337384,105.087595 C94.8632911,105.597468 94.0582278,105.624304 93.5572996,105.132321 C92.1708017,103.799494 89.5051477,101.223291 87.5908861,99.3716456 C86.7768776,98.5755274 87.3314768,97.215865 88.4496203,97.215865 Z"></path>
                        <path d="M61.2563713,97.215865 C64.0919831,97.215865 68.4572152,97.2069198 72.6077637,97.1889841 C73.7080169,97.1800844 74.2805063,98.4950211 73.5291139,99.3000844 C71.4091139,101.554262 69.2891139,103.844219 68.144135,105.087595 C67.6700422,105.597468 66.8649789,105.624304 66.3640506,105.132321 C64.9775527,103.799494 62.3118987,101.223291 60.3976371,99.3716456 C59.5746835,98.5755274 60.1292827,97.215865 61.2563713,97.215865 Z"></path>
                        <path d="M15.931308,109.148692 C15.5735021,108.692489 15.5735021,108.057384 15.931308,107.610127 C16.7721519,106.536709 18.4180591,104.479325 20.2607595,102.430886 C22.0766245,100.400338 23.9908861,98.611308 25.0285232,97.6810127 C25.4757806,97.278481 26.1466667,97.2516456 26.6207595,97.6183966 C27.7299578,98.4681857 29.7515612,100.069367 31.4421941,101.616878 C33.1775527,103.209114 35.6732489,105.660084 36.9971308,106.975021 C37.4980591,107.467004 37.4891139,108.281013 36.9792405,108.764051 L28.8391561,116.555274 C28.5439662,116.841519 28.1235443,116.957806 27.7210127,116.8773 L21.3252321,115.562363 C21.0389873,115.499747 20.7706329,115.338734 20.59173,115.10616 L15.931308,109.148692 Z"></path>
                        <path d="M118.272743,109.35443 C118.630549,108.898228 118.630549,108.263122 118.272743,107.815865 C117.431899,106.742447 115.785992,104.685063 113.943291,102.636624 C111.975359,100.436118 109.148692,98.5755274 107.815865,97.761519 C107.359662,97.4842194 106.796118,97.52 106.375696,97.8509705 C105.338059,98.6918143 103.280675,100.373502 101.527426,101.983629 C99.8904641,103.486414 98.1103797,105.302278 97.1085232,106.357806 C96.6433755,106.840844 96.6523207,107.601181 97.1085232,108.084219 L105.042869,116.385316 C105.320169,116.680506 105.731646,116.814684 106.134177,116.761013 L112.834093,115.750211 C113.147173,115.705485 113.433418,115.535527 113.630211,115.285063 L118.272743,109.35443 Z"></path>
                        <path d="M43.4376371,106.822954 L51.908692,98.0835443 C52.4006751,97.5736709 53.2057384,97.5736709 53.6977215,98.0835443 L62.8843882,107.484895 C63.3227004,107.941097 63.358481,108.647764 62.9648945,109.139747 L55.2094515,118.791561 C54.9679325,119.086751 54.6101266,119.256709 54.2344304,119.256709 L53.6440506,119.256709 C53.2862447,119.256709 52.9552743,119.104641 52.7137553,118.845232 L43.4018565,108.531477 C42.9724895,108.039494 42.9814346,107.297046 43.4376371,106.822954 Z"></path>
                        <path d="M90.1223629,106.304135 L81.5976371,97.761519 C81.105654,97.2695359 80.3095359,97.2695359 79.8264979,97.761519 L70.7113924,106.957131 C70.264135,107.413333 70.2283544,108.128945 70.6219409,108.620928 L78.3684388,118.263797 C78.6099578,118.558987 78.9677637,118.728945 79.3434599,118.728945 L79.9338397,118.728945 C80.2916456,118.728945 80.622616,118.576878 80.864135,118.317468 L90.1670886,108.012658 C90.614346,107.538565 90.5964557,106.778228 90.1223629,106.304135 Z"></path>
                        <path d="M33.2670042,115.67865 L38.8487764,110.096878 C39.3407595,109.604895 40.1547679,109.61384 40.6378059,110.114768 L47.0156962,116.769958 C47.8118143,117.601857 47.1677637,118.979409 46.0138397,118.881013 C42.6504641,118.603713 37.4443882,118.156456 34.0273418,117.807595 C32.9718143,117.700253 32.524557,116.430042 33.2670042,115.67865 Z"></path>
                        <path d="M58.5370464,119.05097 C58.2418565,119.024135 63.6983966,113.048776 65.9257384,110.615696 C66.4266667,110.070042 67.2764557,110.078987 67.777384,110.624641 L73.6901266,117.154599 C74.4146835,117.959662 73.8511392,119.247764 72.7598312,119.247764 C68.4214346,119.238819 60.451308,119.203038 58.5370464,119.05097 Z"></path>
                        <path d="M85.828692,117.047257 L92.6091139,109.703291 C93.0832068,109.193418 93.8793249,109.166582 94.3802532,109.640675 L100.632911,115.499747 C101.402194,116.215359 100.999662,117.50346 99.9620253,117.646582 C96.5986498,118.120675 90.6859072,118.916793 86.8216034,119.140422 C85.6945148,119.211983 85.0683544,117.870211 85.828692,117.047257 Z"></path>
                        <path d="M12.5858228,110.311561 L12.5858228,110.311561 C11.9864979,110.669367 11.7986498,111.43865 12.1564557,112.037975 C12.6305485,112.816203 13.2745992,113.746498 13.6771308,113.925401 C13.6950211,113.934346 13.7218565,113.943291 13.748692,113.952236 C14.902616,114.408439 15.9491983,113.084557 15.2335865,112.06481 L14.2406751,110.660422 C13.8739241,110.123713 13.1493671,109.971646 12.5858228,110.311561 Z"></path>
                        <path d="M121.439325,110.266835 L121.510886,110.311561 C122.110211,110.669367 122.298059,111.43865 121.940253,112.037975 C121.46616,112.816203 120.82211,113.746498 120.419578,113.925401 C120.294346,113.979072 120.097553,114.041688 119.838143,114.113249 C118.657384,114.453165 117.753924,113.057722 118.532152,112.109536 L119.829198,110.544135 C120.222785,110.061097 120.911561,109.94481 121.439325,110.266835 Z"></path>
                    </g>
                    <path d="M199.861435,48.3574684 C199.691477,48.0533333 199.387342,47.5434599 198.957975,47.2840506 C198.528608,47.0246414 198.269198,46.8546835 197.974008,46.5147679 C197.669873,46.1748523 197.329958,46.1748523 196.900591,45.6560338 C196.471224,45.1372152 194.70903,45.1014346 194.15443,45.0119831 C193.599831,44.9225316 192.097046,44.1532489 191.748186,43.9385654 C191.40827,43.7238819 189.476118,43.5986498 189.002025,43.5539241 C188.527932,43.5091983 187.329283,43.1692827 187.025148,43.0351055 C186.721013,42.9098734 184.923038,43.5091983 184.923038,43.5091983 C184.923038,43.5091983 184.448945,43.6344304 184.019578,43.7686076 C183.590211,43.8938397 182.606245,44.0727426 182.221603,44.0727426 C181.836962,44.0727426 180.718819,44.8867511 180.504135,44.8867511 C180.289451,44.8867511 179.645401,45.4413502 179.350211,45.5308017 C179.046076,45.6202532 178.580928,46.5594937 178.321519,46.7294515 C178.06211,46.8994093 177.588017,47.8028692 177.203376,48.1427848 C176.818734,48.4827004 176.988692,48.7868354 176.648776,49.4308861 C176.308861,50.0749367 176.434093,50.0749367 176.094177,50.7189873 C175.852658,51.1751899 175.951055,51.3272574 175.968945,51.7476793 C175.986835,52.1144304 175.763207,52.454346 175.423291,52.5795781 C174.001013,53.1162869 173.115443,54.4043882 172.811308,54.8963713 C172.784473,54.941097 172.703966,54.9232068 172.712911,54.8695359 C172.730802,54.4670042 172.793418,53.6529958 172.91865,53.3399156 C173.088608,52.9105485 172.873924,52.821097 172.534008,52.7853165 C172.194093,52.7405907 171.845232,52.2664979 171.979409,51.8013502 C172.104641,51.3272574 171.42481,51.4614346 171.031224,51.5419409 C170.646582,51.6313924 170.387173,51.1125738 170.217215,51.5419409 C170.047257,51.971308 170.342447,53.304135 170.601857,53.9839662 C170.753924,54.3864979 170.81654,55.7819409 170.852321,56.8732489 C170.870211,57.4904641 170.091983,58.1166245 169.671561,57.6604219 C167.569451,55.3972996 161.871392,52.6600844 156.450633,56.4975527 C156.361181,56.5601688 156.244895,56.5959494 156.146498,56.6406751 C155.493502,56.9805907 154.76,56.3544304 154.974684,55.6477637 C155.207257,54.8874262 155.404051,54.2254852 155.591899,53.6619409 C155.770802,53.2772996 155.913924,52.9016034 156.030211,52.5437975 C156.388017,51.9802532 156.370127,51.6761181 156.325401,51.2825316 C156.844219,47.7760338 154.330633,46.0048945 152.738397,45.244557 C152.3627,45.065654 152.165907,44.6362869 152.291139,44.2337553 C152.335865,44.0816878 152.398481,43.91173 152.478987,43.7238819 C153.301941,41.7827848 152.30903,43.2229536 153.695527,42.4536709 C155.07308,41.675443 154.080169,42.8383122 155.68135,42.1495359 C156.906835,41.6217722 158.239662,40.4231224 158.490127,39.5017722 C157.443544,39.8953586 156.030211,39.6806751 157.112574,39.2065823 C157.282532,39.1350211 157.461435,39.0455696 157.649283,38.947173 C158.472236,38.5267511 158.09654,37.2654852 157.184135,37.372827 C157.148354,37.372827 157.121519,37.3817722 157.085738,37.3907173 C157.032068,37.3996624 156.978397,37.4175527 156.924726,37.435443 C155.735021,37.9274262 155.556118,38.1063291 155.296709,38.8219409 C155.064135,39.4838819 155.099916,38.3836287 154.974684,38.1242194 C154.616878,38.8040506 154.813671,38.6967089 154.652658,39.4659916 C154.491646,40.2263291 152.926245,41.4875949 152.801013,41.5770464 C152.675781,41.6664979 153.87443,37.2207595 154.527426,35.977384 C155.171477,34.7250633 155.126751,33.5174684 156.423797,32.9628692 C157.720844,32.3993249 158.919494,32.0594093 159.572489,32.7034599 C160.21654,33.3475105 160.950042,33.9557806 161.039494,35.8968776 C161.128945,37.8379747 161.388354,38.4820253 160.950042,39.0455696 C160.520675,39.6091139 161.683544,39.7790717 161.808776,37.9274262 C161.934008,36.0757806 162.372321,35.6016878 162.542278,36.764557 C162.712236,37.9274262 163.061097,39.6985654 163.490464,40.4320675 C163.767764,40.8972152 164.16135,41.2102954 164.411814,41.371308 C164.501266,41.4339241 164.626498,41.3534177 164.608608,41.2460759 C164.537046,40.7540928 164.384979,39.734346 164.47443,39.6985654 C164.617553,39.6359494 164.778565,41.0313924 165.467342,40.9956118 C166.156118,40.9508861 166.326076,40.0474262 165.6373,39.2691983 C164.948523,38.4909705 165.467342,38.2762869 165.467342,38.2762869 C165.467342,38.2762869 166.200844,38.0168776 165.037975,37.2833755 C163.875105,36.5498734 163.526245,36.2099578 163.660422,36.2099578 C163.785654,36.2099578 163.919831,36.2099578 165.037975,36.3799156 C166.156118,36.5498734 166.719662,36.1652321 165.127426,35.5211814 C163.53519,34.8771308 162.452827,34.7429536 163.186329,34.403038 C163.919831,34.0541772 165.771477,33.6695359 165.431561,33.5800844 C165.0827,33.4906329 164.393924,33.5800844 163.186329,33.3654008 C161.978734,33.1507173 160.21654,32.2472574 159.393586,32.0325738 C159.107342,31.9610127 158.7227,31.9073418 158.338059,31.8805063 C158.11443,31.862616 158.042869,31.5674262 158.239662,31.4511392 C159,31.0038819 159.715612,30.6013502 160.162869,30.3419409 C161.370464,29.6621097 162.103966,29.8678481 162.998481,30.2345992 C163.892996,30.6013502 165.413671,32.1756962 166.200844,32.8108017 C166.988017,33.4459072 167.354768,33.4906329 168.195612,34.1257384 C169.036456,34.7608439 169.403207,35.6016878 169.93097,34.9665823 C169.984641,33.8126582 167.828861,33.2312236 167.614177,32.7571308 C167.408439,32.283038 168.768101,32.5424473 170.083038,32.1220253 C171.397975,31.7016034 167.819916,31.4421941 167.193755,31.1201688 C166.55865,30.8070886 168.71443,30.3866667 169.242194,29.9125738 C169.769958,29.438481 166.191899,29.2774684 165.878819,28.9643882 C165.565738,28.651308 166.773333,27.864135 168.455021,28.5439662 C170.136709,29.2237975 170.81654,31.7016034 170.923882,31.4869198 C171.031224,31.2722363 170.244051,28.8570464 170.664473,29.07173 C171.084895,29.2864135 171.451646,30.0735865 171.925738,31.1738397 C172.399831,32.2740928 173.294346,33.857384 173.294346,33.857384 C173.294346,33.857384 173.240675,33.3832911 173.079662,32.1756962 C172.91865,30.9681013 171.925738,29.2327426 172.077806,29.2327426 C172.238819,29.2327426 172.757637,30.3866667 173.974177,31.8089451 C175.181772,33.2312236 174.76135,32.4887764 175.816878,32.8108017 C175.521688,31.7731646 174.806076,30.7981435 174.519831,30.4403376 C174.44827,30.3508861 174.349873,30.2703797 174.251477,30.2167089 C173.938397,30.0646414 173.24962,29.6710549 173.088608,29.1880169 C172.882869,28.5529114 173.768439,28.8749367 174.984979,29.1880169 C176.201519,29.501097 176.460928,29.0806751 176.040506,28.6065823 C175.620084,28.1324895 173.151224,28.1324895 172.730802,27.6583966 C172.31038,27.1843038 173.831055,27.5510549 174.519831,26.4508017 C175.199662,25.3505485 175.414346,25.1895359 175.253333,25.1895359 C175.092321,25.1895359 173.151224,26.710211 171.469536,27.3989873 C169.787848,28.0788186 169.993586,26.6654852 169.993586,26.4508017 C169.993586,26.2450633 170.252996,25.7172996 170.888101,25.0821941 C171.120675,24.8496203 171.344304,24.7333333 171.541097,24.6886076 C171.70211,24.652827 171.746835,24.4470886 171.621603,24.3397468 C171.487426,24.2234599 171.353249,24.0982278 171.254852,23.9819409 C170.995443,23.6688608 171.049114,23.0337553 172.882869,23.6151899 C174.716624,24.1966245 176.085232,23.4541772 176.085232,23.4541772 C176.085232,23.4541772 173.983122,22.8727426 173.768439,22.1392405 C173.5627,21.4057384 176.505654,21.0389873 178.232068,20.716962 C176.55038,19.3483544 174.439325,21.1821097 174.027848,20.716962 C173.625316,20.2607595 175.450127,18.8205907 174.609283,19.0352743 C174.018903,19.1783966 172.775527,20.350211 172.068861,21.0479325 C171.907848,21.2089451 171.639494,21.0389873 171.711055,20.8243038 C171.791561,20.59173 171.907848,20.3233755 172.086751,20.0371308 C172.614515,19.1962869 173.5627,17.3535865 172.560844,18.1407595 C171.558987,18.9279325 170.011477,23.015865 169.564219,22.7654008 C169.28692,22.6133333 170.154599,20.5648945 169.403207,21.0837131 C169.116962,21.2805063 169.099072,22.0229536 168.785992,22.6043882 C168.419241,23.2931646 167.381603,23.141097 167.229536,22.3718143 C167.220591,22.3091983 167.2027,22.2555274 167.193755,22.1929114 C166.880675,20.5648945 169.975696,19.6703797 171.192236,18.9905485 C172.408776,18.3107173 171.245907,18.2033755 170.718143,18.2033755 C170.369283,18.2033755 168.99173,19.1605063 168.115105,19.7956118 C167.900422,19.9476793 167.632068,19.7151055 167.748354,19.4825316 C167.864641,19.258903 168.007764,18.9905485 168.195612,18.6774684 C168.481857,18.1944304 169.00962,17.747173 169.492658,17.4072574 C169.644726,17.3088608 169.608945,17.0762869 169.438987,17.022616 C169.152743,16.9331646 168.938059,16.7900422 168.982785,16.6737553 C169.090127,16.414346 171.872068,14.4106329 171.872068,14.4106329 C171.872068,14.4106329 170.664473,13.990211 169.349536,14.6253165 C169.251139,14.6700422 169.161688,14.7237131 169.072236,14.7863291 C168.410295,15.2067511 167.578397,14.6074262 167.784135,13.8560338 C167.828861,13.6771308 167.882532,13.5161181 167.936203,13.3729958 C167.954093,13.3193249 167.980928,13.2567089 167.998819,13.203038 C168.061435,13.0151899 168.249283,12.9078481 168.437131,12.961519 C169.027511,13.1135865 169.528439,13.2209283 169.743122,13.2119831 C170.387173,13.1672574 171.120675,13.0867511 171.290633,12.9525738 C171.460591,12.8273418 171.612658,12.1475105 170.646582,11.9596624 C169.635781,11.7718143 169.26903,11.5750211 169.653671,11.3156118 C170.038312,11.0562025 170.172489,10.841519 170.646582,10.537384 C171.120675,10.2332489 171.809451,10.2779747 170.691308,9.93805907 C169.573165,9.58919831 169.653671,9.50869198 168.884388,9.55341772 C168.10616,9.59814346 168.71443,8.95409283 168.624979,8.77518987 C168.535527,8.60523207 168.455021,8.64995781 167.327932,9.29400844 C166.996962,9.48185654 166.737553,9.63392405 166.531814,9.76810127 C166.352911,9.87544304 166.147173,9.69654008 166.218734,9.49974684 C166.317131,9.25822785 166.397637,8.97198312 166.415527,8.69468354 C166.460253,7.96118143 166.066667,7.70177215 166.066667,7.70177215 C166.066667,7.70177215 165.6373,8.56050633 165.243713,8.73940928 C164.859072,8.90936709 163.562025,8.52472574 164.680169,7.83594937 C165.798312,7.147173 167.649958,7.62126582 168.124051,7.147173 C168.598143,6.67308017 168.982785,5.59966245 167.524726,5.81434599 C166.057722,6.02902954 166.147173,6.24371308 166.961181,5.2150211 C167.784135,4.17738397 169.546329,3.22919831 167.739409,3.53333333 C165.932489,3.83746835 165.279494,4.2221097 166.317131,2.8892827 C167.354768,1.5564557 167.909367,1.03763713 166.361857,1.46700422 C164.814346,1.89637131 164.590717,2.79983122 164.420759,2.97873418 C164.250802,3.14869198 163.857215,2.85350211 164.250802,1.60118143 C164.635443,0.348860759 164.680169,-0.644050633 163.687257,1.34177215 C162.694346,3.32759494 162.569114,4.70514768 162.434937,4.74987342 C162.309705,4.79459916 161.227342,6.08270042 161.316793,5.31341772 C161.406245,4.53518987 162.139747,3.41704641 161.916118,3.46177215 C161.701435,3.50649789 160.878481,4.66936709 160.583291,5.66227848 C160.279156,6.65518987 159.983966,7.43341772 159.849789,5.87696203 C159.724557,4.32945148 159.849789,3.55122363 159.635105,3.50649789 C159.500928,3.47966245 158.946329,4.49940928 158.901603,6.04691983 C158.856878,7.59443038 158.731646,9.0614346 159.679831,10.1437975 C160.628017,11.2172152 160.8427,11.0472574 160.323882,12.2995781 C160.118143,12.8094515 159.894515,13.4266667 159.706667,13.9991561 C159.661941,14.1422785 159.465148,14.1691139 159.384641,14.0438819 C159.375696,14.0259916 159.366751,14.0170464 159.348861,13.9991561 C158.767426,13.2119831 158.570633,14.294346 158.490127,13.8828692 C158.37384,13.2567089 159.187848,13.265654 158.928439,12.6842194 C158.749536,12.2816878 158.740591,10.8862447 158.758481,10.0722363 C158.758481,9.96489451 158.606414,9.93805907 158.579578,10.0454008 C158.454346,10.4658228 158.284388,11.1188186 158.150211,12.0043882 C157.890802,13.6860759 157.416709,12.9525738 157.568776,12.3711392 C157.640338,12.1206751 157.604557,11.8165401 157.50616,11.4676793 C157.667173,11.1814346 157.792405,10.9488608 157.792405,10.8862447 C157.792405,10.6715612 157.881857,9.812827 158.141266,8.86464135 C158.400675,7.9164557 158.185992,6.49417722 158.09654,7.44236287 C158.060759,7.88067511 157.908692,8.14008439 157.756624,8.30109705 C157.622447,8.44421941 157.389873,8.36371308 157.363038,8.16691983 C157.291477,7.56759494 157.121519,6.35105485 156.844219,5.71594937 C156.459578,4.85721519 155.985485,4.59780591 156.110717,5.93063291 C156.235949,7.26345992 155.547173,8.0864135 154.992574,9.37451477 C154.42903,10.6715612 154.089114,10.537384 153.445063,9.84860759 C152.801013,9.15983122 153.489789,8.47105485 154.178565,7.47814346 C154.867342,6.48523207 154.867342,6.44050633 154.697384,5.70700422 C154.598987,5.28658228 154.241181,5.37603376 153.954937,5.53704641 C153.85654,5.5907173 153.740253,5.48337553 153.784979,5.3849789 C153.901266,5.13451477 154.026498,4.78565401 154.089114,4.41890295 C154.214346,3.68540084 154.13384,3.08607595 153.704473,3.64067511 C153.275105,4.20421941 152.845738,4.58886076 152.022785,3.4707173 C151.44135,2.67459916 151.334008,1.27021097 151.325063,0.518818565 C151.325063,0.286244726 151.038819,0.178902954 150.877806,0.348860759 C150.645232,0.608270042 150.341097,1.06447257 150.081688,1.86953586 C149.518143,3.55122363 150.555781,5.27763713 150.341097,5.83223629 C150.153249,6.32421941 149.30346,5.12556962 148.453671,4.4457384 C148.247932,4.27578059 147.934852,4.4457384 147.961688,4.71409283 C148.024304,5.37603376 148.766751,6.18109705 149.30346,6.65518987 C149.992236,7.25451477 150.985148,7.81805907 150.600506,8.2921519 C150.52,8.39949367 150.376878,8.4621097 150.20692,8.48894515 C149.383966,8.63206751 149.240844,9.75021097 150.010127,10.0811814 C150.117468,10.1259072 150.215865,10.1706329 150.314262,10.2064135 C150.448439,10.2600844 150.528945,10.3942616 150.511055,10.537384 C150.466329,10.9935865 150.314262,11.4587342 149.858059,11.3961181 C148.999325,11.2708861 148.650464,10.3227004 147.362363,10.4479325 C146.065316,10.5731646 145.117131,11.0114768 145.117131,11.0114768 C145.117131,11.0114768 145.072405,12.0043882 146.324726,11.9149367 C147.577046,11.8254852 150.940422,11.0562025 151.450295,12.174346 C151.969114,13.2924895 151.450295,13.1672574 150.591561,13.2119831 C150.22481,13.2298734 149.679156,13.4177215 149.169283,13.6234599 C149.070886,13.6681857 149.106667,13.811308 149.214008,13.8023629 C149.509198,13.7844726 149.840169,13.8023629 150.20692,13.8918143 C150.296371,13.9097046 150.385823,13.9365401 150.466329,13.9544304 C151.003038,14.0886076 151.280338,14.6879325 151.020928,15.1799156 C150.949367,15.3140928 150.895696,15.4751055 150.85097,15.6629536 C150.779409,16.0028692 150.734684,16.3070042 150.716793,16.5574684 C150.689958,16.8168776 150.994093,16.9689451 151.190886,16.7989873 C151.351899,16.6648101 151.566582,16.4948523 151.843882,16.3070042 C153.355612,15.2693671 153.829705,14.9741772 154.16962,15.0099578 C154.357468,15.0367932 154.500591,15.0278481 154.670549,15.0546835 C154.804726,15.0725738 154.921013,15.1709705 154.956793,15.3051477 C155.314599,16.655865 155.66346,18.1407595 155.904979,19.1873418 C155.913924,19.2141772 155.913924,19.2499578 155.904979,19.2767932 C155.833418,19.8313924 155.869198,20.1623629 155.788692,20.0371308 C155.591899,19.7240506 155.05519,17.8992405 154.733165,16.9331646 C154.509536,16.2443882 154.366414,15.4572152 154.098059,16.9331646 C153.999662,17.4698734 154.071224,18.0602532 154.205401,18.596962 C154.348523,19.1962869 153.820759,19.7329958 153.212489,19.6077637 C153.123038,19.5898734 153.033586,19.5719831 152.944135,19.563038 C151.620253,19.4109705 150.886751,18.9637131 150.511055,18.6237975 C150.358987,18.4806751 150.108523,18.6416878 150.18903,18.838481 C150.287426,19.1068354 150.528945,19.4020253 151.056709,19.6167089 C153.892321,21.1284388 154.563207,22.7832911 154.706329,23.2663291 C154.733165,23.3468354 154.74211,23.4362869 154.733165,23.5167932 C154.724219,23.865654 154.661603,24.9927426 154.312743,27.1306329 C154.089114,28.5529114 153.24827,30.7444726 152.523713,32.4708861 C152.425316,32.7124051 152.058565,32.6050633 152.112236,32.345654 C152.273249,31.5048101 152.407426,30.5208439 152.425316,29.4921519 C152.478987,26.4955274 151.056709,25.2879325 150.636287,24.5007595 C150.215865,23.7135865 150.430549,23.1321519 150.582616,22.291308 C150.681013,21.7724895 150.654177,21.2 150.627342,20.8243038 C150.609451,20.654346 150.412658,20.5738397 150.287426,20.6901266 C150.001181,20.9405907 149.527089,21.4057384 148.900928,22.1839662 C147.845401,23.498903 148.373165,20.6632911 148.686245,18.8205907 C148.784641,18.2481013 148.793586,17.8366245 148.766751,17.5503797 C148.73097,17.1925738 148.256878,17.0762869 148.060084,17.3804219 C147.675443,17.9708017 147.102954,18.8742616 146.897215,19.2410127 C146.584135,19.8224473 146.26211,16.5574684 145.841688,16.0386498 C145.627004,15.7702954 145.421266,15.9044726 145.278143,16.0923207 C145.179747,16.2175527 144.982954,16.1817722 144.947173,16.0297046 C144.777215,15.3498734 144.383629,14.0886076 143.578565,13.1046414 C143.050802,16.5753586 144.696709,17.8008439 144.526751,18.0960338 C144.428354,18.2391561 143.668017,17.0941772 142.558819,16.2712236 C141.834262,15.7345148 140.886076,16.5753586 141.333333,17.3625316 C141.574852,17.7829536 141.843207,18.1139241 142.102616,18.3822785 C142.496203,18.7848101 142.388861,19.4646414 141.878987,19.7240506 C141.530127,19.9029536 141.234937,20.0729114 141.217046,20.1534177 C141.163376,20.3591561 141.691139,20.412827 143.006076,20.7885232 C143.766414,21.0032068 144.204726,21.4951899 144.14211,21.9513924 C144.079494,22.3897046 144.365738,22.774346 144.804051,22.8101266 C147.040338,23.0069198 149.339241,23.8388186 150.466329,25.3058228 C151.888608,27.1485232 151.727595,31.0843882 151.727595,32.0325738 C151.727595,32.6050633 151.164051,34.0452321 150.716793,35.0739241 C150.591561,35.3601688 150.171139,35.2886076 150.153249,34.9755274 C150.126414,34.4745992 150.072743,33.8484388 149.992236,33.132827 C149.822278,31.621097 150.600506,30.4313924 150.886751,30.0556962 C150.931477,29.9930802 150.904641,29.9036287 150.83308,29.8767932 L150.83308,29.8767932 C150.50211,29.7605063 150.305316,29.4116456 150.376878,29.0627848 L150.50211,28.4276793 C150.511055,28.3918987 150.457384,28.3740084 150.439494,28.409789 C150.22481,28.8838819 149.777553,29.6978903 149.357131,29.3579747 C148.775696,28.8838819 148.829367,27.1485232 148.355274,25.261097 C147.442869,26.8712236 147.639662,28.409789 147.961688,29.4205907 C148.015359,29.5726582 147.800675,29.6710549 147.711224,29.5368776 C147.612827,29.3937553 147.51443,29.2327426 147.407089,29.0448945 C146.673586,27.8372996 144.839831,26.1466667 145.143966,26.7817722 C145.67173,27.8909705 145.725401,27.9893671 146.244219,30.0378059 C146.771983,32.0862447 147.666498,32.0325738 148.4,32.5603376 C149.133502,33.0881013 148.927764,33.0344304 149.455527,34.8234599 C149.983291,36.6124895 149.267679,38.7593249 149.267679,38.7593249 C149.097722,40.1279325 148.668354,41.2460759 148.668354,41.8454008 C148.668354,42.2389873 148.569958,42.0600844 147.970633,43.2050633 C147.800675,43.5270886 147.442869,43.7059916 147.076118,43.6344304 C146.0027,43.4376371 144.499916,43.2855696 143.668017,43.7596624 C142.254684,44.5736709 141.440675,44.8151899 140.635612,46.7115612 C140.635612,46.7115612 139.58903,48.6794937 139.463797,49.4577215 C139.338565,50.2091139 138.730295,50.9515612 138.587173,51.8818565 C137.907342,53.545654 137.299072,55.0752743 137.19173,55.72827 C137.155949,55.9608439 137.102278,56.3365401 137.039662,56.8016878 C137.030717,56.8374684 137.030717,56.8732489 137.030717,56.9179747 L137.030717,67.0975527 C137.030717,67.5627004 137.406414,67.9383966 137.871561,67.9383966 L149.339241,67.9383966 C149.643376,67.9383966 149.920675,67.7684388 150.072743,67.5090295 C150.251646,67.1959494 150.421603,66.8560338 150.582616,66.4982278 C150.627342,66.4177215 150.663122,66.3461603 150.707848,66.265654 C150.761519,66.1672574 150.913586,66.2209283 150.895696,66.32827 C150.859916,66.5518987 150.824135,66.7755274 150.7973,66.990211 C150.725738,67.4911392 151.119325,67.9473418 151.629198,67.9473418 L187.552911,67.9473418 C188.116456,67.9473418 188.527932,67.3927426 188.357975,66.8560338 C188.286414,66.6234599 188.196962,66.3998312 188.107511,66.1762025 C186.765738,63.2064135 185.93384,61.2921519 183.312911,59.538903 C180.700928,57.7945992 178.840338,58.2329114 177.695359,58.0361181 C176.791899,57.8840506 174.770295,58.2150211 173.652152,58.3402532 C173.061772,58.4028692 172.587679,57.8572152 172.748692,57.2847257 C172.927595,56.6496203 173.204895,55.844557 173.625316,55.0394937 C174.528776,53.3220253 177.096034,52.5974684 177.355443,52.6332489 C177.614852,52.6779747 177.355443,52.6332489 177.999494,52.4632911 C178.643544,52.2933333 178.303629,52.3380591 178.554093,52.3738397 C178.813502,52.4185654 178.894008,52.3738397 179.502278,52.2038819 C180.101603,52.0339241 179.716962,52.2933333 179.842194,52.5080169 C179.967426,52.7227004 180.656203,52.5080169 180.656203,52.5080169 C180.656203,52.5080169 180.870886,52.6332489 181.08557,52.7227004 C181.300253,52.8121519 181.944304,52.5974684 181.944304,52.5974684 C181.944304,52.5974684 181.944304,52.5974684 182.463122,52.6869198 C182.981941,52.7763713 182.677806,52.6869198 183.447089,52.4722363 C184.216371,52.2575527 183.751224,52.4722363 184.046414,52.6421941 C184.350549,52.8121519 184.645738,52.4722363 184.905148,52.5974684 C185.164557,52.7227004 185.075105,52.5974684 185.593924,52.6421941 C186.112743,52.6869198 186.148523,52.4275105 186.622616,52.6421941 C187.096709,52.8568776 186.926751,52.8568776 187.696034,52.8121519 C188.465316,52.7674262 188.554768,52.6421941 188.939409,52.8568776 C189.324051,53.0715612 189.842869,52.9463291 190.5227,52.9016034 C191.11308,52.8658228 191.605063,52.7942616 191.730295,52.7763713 C191.748186,52.7763713 191.775021,52.7674262 191.792911,52.7674262 C191.971814,52.7227004 192.93789,52.5080169 193.483544,52.4275105 C194.082869,52.3380591 193.957637,52.3022785 194.172321,52.0875949 C194.387004,51.8729114 194.43173,51.9981435 195.201013,51.8281857 C195.970295,51.6582278 195.63038,51.48827 196.059747,51.184135 C196.489114,50.88 196.149198,50.7994937 196.918481,50.7547679 C197.687764,50.7100422 197.651983,50.3254008 197.947173,50.0659916 C198.251308,49.8065823 198.036624,49.547173 198.072405,49.2967089 C198.117131,49.0372996 198.331814,49.1267511 198.501772,48.9925738 C198.67173,48.8673418 198.805907,48.7331646 199.145823,48.822616 C199.512574,48.8315612 200.031392,48.6616034 199.861435,48.3574684 Z M165.843038,26.1824473 C165.422616,27.2290295 164.698059,27.3274262 163.597806,27.801519 C162.497553,28.2756118 163.231055,26.8622785 163.392068,25.6636287 C163.544135,24.4649789 163.544135,24.411308 164.483376,23.5794093 C165.422616,22.7475105 164.277637,22.1213502 164.277637,22.1213502 C164.277637,22.1213502 163.499409,21.6025316 163.186329,22.2734177 C162.873249,22.9532489 163.078987,22.8995781 162.139747,23.4183966 C161.603038,23.7135865 161.128945,23.2037131 160.797975,22.71173 C160.672743,22.532827 160.82481,22.291308 161.039494,22.3181435 C161.558312,22.3897046 162.086076,22.5059916 162.506498,22.1660759 C163.284726,21.5399156 164.018228,21.2805063 164.75173,21.5399156 C165.485232,21.7993249 165.69097,22.4791561 166.156118,23.3647257 C166.630211,24.2502954 166.26346,25.135865 165.843038,26.1824473 Z M160.78903,23.1321519 C160.869536,23.257384 160.744304,23.4094515 160.601181,23.3647257 C159.975021,23.1500422 159.402532,22.8727426 159.796118,22.532827 C159.88557,22.4523207 159.983966,22.3986498 160.082363,22.3628692 C160.225485,22.3091983 160.386498,22.3807595 160.449114,22.5149367 C160.538565,22.6938397 160.645907,22.9085232 160.78903,23.1321519 Z M161.236287,8.32793249 C161.361519,7.82700422 161.647764,7.34396624 161.916118,6.97721519 C162.095021,6.72675105 162.479662,6.87881857 162.452827,7.18295359 C162.33654,8.23848101 161.817722,9.21350211 161.370464,9.66075949 C160.80692,10.2243038 160.985823,9.35662447 161.236287,8.32793249 Z M159.152068,18.6237975 C159.88557,17.1478481 160.467004,17.8902954 162.202363,17.201519 C162.730127,16.9957806 163.177384,16.9689451 163.5173,17.022616 C163.901941,17.0852321 164.277637,16.8437131 164.411814,16.476962 C164.537046,16.1281013 164.671224,15.8329114 164.671224,15.8329114 C164.671224,15.8329114 164.885907,14.1512236 164.036118,15.3051477 C163.186329,16.4590717 163.454684,14.6253165 163.454684,14.6253165 L162.846414,15.4214346 C162.587004,15.7613502 162.121857,15.8508017 161.755105,15.6361181 C161.594093,15.5377215 161.388354,15.4124895 161.146835,15.2604219 C161.048439,15.1978059 160.950042,15.1620253 160.860591,15.1351899 C160.8427,14.5537553 160.923207,13.6592405 161.629873,13.3640506 C162.667511,12.9346835 162.578059,13.4535021 163.615696,12.7647257 C164.653333,12.0759494 164.134515,11.691308 165.037975,11.9417722 C165.288439,12.0133333 165.699916,12.1385654 166.182954,12.2906329 C166.57654,12.4069198 166.818059,12.8005063 166.764388,13.2119831 C166.612321,14.4911392 166.719662,16.1549367 166.719662,16.1549367 C166.719662,16.1549367 166.397637,15.5824473 166.066667,14.9920675 C166.111392,15.6629536 165.923544,16.3338397 165.825148,16.7900422 C165.798312,16.9152743 165.762532,16.9957806 165.708861,17.0405063 C165.395781,17.3535865 165.34211,17.8366245 165.619409,18.1854852 C165.717806,18.3107173 165.843038,18.4359494 165.977215,18.5701266 C167.032743,19.5719831 166.451308,19.7240506 166.236624,19.8313924 C166.021941,19.9387342 165.288439,19.9387342 165.288439,19.9387342 C165.288439,19.9387342 166.129283,21.1463291 165.65519,21.3073418 C165.181097,21.4683544 164.501266,19.9387342 163.24,19.3125738 C161.978734,18.6774684 162.086076,19.8940084 162.184473,19.9924051 C162.291814,20.0997468 162.390211,20.9137553 161.916118,21.2268354 C161.442025,21.5399156 161.021603,21.9335021 161.075274,20.9316456 C161.128945,19.929789 161.021603,19.3572996 160.547511,19.9834599 C160.073418,20.6185654 159.026835,22.0318987 158.230717,22.3002532 C157.47038,22.5686076 158.418565,20.0908017 159.152068,18.6237975 Z M156.370127,13.1493671 C156.405907,13.1046414 156.441688,13.0599156 156.486414,12.9972996 C156.58481,12.8631224 156.799494,12.8810127 156.86211,13.0330802 C156.888945,13.0867511 156.915781,13.1493671 156.942616,13.203038 C158.203882,15.7792405 158.516962,16.8794937 158.09654,19.563038 C157.676118,22.2465823 156.996287,21.8261603 156.996287,21.8261603 C156.996287,21.8261603 156.835274,20.2518143 156.942616,18.7221941 C157.014177,17.6398312 157.121519,16.8437131 157.17519,16.476962 C157.184135,16.4054008 157.094684,16.3606751 157.049958,16.414346 C156.888945,16.5753586 156.665316,16.8168776 156.557975,16.9242194 C156.531139,16.9510549 156.495359,16.9421097 156.486414,16.9063291 C156.298565,16.1817722 156.030211,15.081519 155.949705,14.4821941 C155.806582,13.5429536 156.021266,13.5787342 156.370127,13.1493671 Z M156.200169,29.68 C156.352236,29.1611814 156.933671,27.1753586 157.246751,26.289789 C157.559831,25.4042194 157.980253,24.7780591 158.651139,24.0982278 C159.107342,23.6420253 160.171814,23.7314768 160.923207,23.7851477 C161.128945,23.803038 161.325738,23.8924895 161.468861,24.0535021 C161.594093,24.1966245 161.737215,24.3397468 161.880338,24.4649789 C162.971646,25.4042194 162.506498,24.9837975 162.345485,25.6636287 C162.193418,26.3434599 161.880338,25.5562869 161.459916,25.8156962 C161.039494,26.0751055 161.719325,26.2361181 162.032405,27.6405063 C162.345485,29.0448945 161.254177,28.5797468 160.780084,29.0448945 C160.314937,29.5100422 158.865823,30.0825316 157.291477,31.0843882 C156.164388,31.8 154.840506,33.31173 154.348523,33.436962 C154.312743,33.4459072 154.250127,33.374346 154.276962,33.3475105 C154.348523,33.2580591 156.065992,30.1183122 156.200169,29.68 Z" id="Shape"></path>
                    <path d="M118.979409,46.1480169 C116.170633,45.7723207 114.310042,46.4432068 113.979072,46.577384 C113.943291,46.5952743 113.916456,46.6042194 113.880675,46.6221097 L113.424473,46.8636287 C113.406582,46.8725738 113.388692,46.8546835 113.397637,46.8367932 C113.692827,45.9333333 114.157975,44.6810127 114.667848,43.9206751 C115.052489,43.3481857 115.347679,42.8919831 115.562363,42.5610127 C115.821772,42.158481 115.777046,41.6307173 115.437131,41.2908017 C115.124051,40.9866667 114.739409,40.7451477 114.48,41.067173 C113.988017,41.6843882 114.417384,42.1853165 114.050633,42.1853165 C113.674937,42.1853165 113.496034,41.6307173 113.120338,42.7399156 C113.004051,43.0798312 112.896709,43.4823629 112.780422,43.91173 C112.771477,43.9296203 112.744641,43.9296203 112.744641,43.91173 C112.297384,42.3552743 111.134515,41.3802532 111.134515,41.3802532 C111.134515,41.3802532 111.134515,41.3802532 111.134515,41.3802532 C111.134515,41.3802532 111.009283,41.004557 110.884051,40.5751899 C110.794599,40.2442194 110.731983,39.7075105 110.705148,39.4659916 C110.696203,39.3765401 110.696203,39.2960338 110.714093,39.2155274 L110.857215,38.3299578 C110.875105,38.2136709 110.875105,38.097384 110.84827,37.981097 C110.803544,37.7395781 110.696203,37.3012658 110.57097,37.0418565 C110.383122,36.6661603 110.320506,36.6661603 110.078987,35.494346 C109.828523,34.3135865 109.703291,34.8145148 108.781941,33.9468354 C107.851646,33.0791561 108.620928,33.2312236 107.484895,32.7660759 C107.323882,32.7034599 107.484895,32.7660759 107.109198,32.7034599 C106.733502,32.6408439 105.991055,32.0236287 104.50616,31.2811814 C103.021266,30.5387342 102.028354,30.4135021 99.8636287,30.1004219 C99.0585654,29.984135 98.7454852,29.9572996 98.6023629,29.984135 C98.5844726,29.984135 98.5755274,29.9662447 98.5844726,29.9483544 C99.3895359,28.9196624 100.158819,28.1593249 100.767089,27.622616 C100.963882,27.4526582 100.758143,27.1395781 100.52557,27.255865 C99.4432068,27.7746835 97.8956962,28.6691983 96.2676793,30.1272574 C96.0619409,30.3061603 95.7935865,30.3956118 95.5162869,30.3687764 C95.3105485,30.3508861 95.0779747,30.3419409 94.7827848,30.3419409 C92.8595781,30.3419409 93.7272574,30.6550211 92.9848101,30.8965401 C92.5822785,31.0307173 91.8129958,31.3795781 91.1957806,31.6747679 C90.9989873,31.7731646 91.0616034,32.0683544 91.2852321,32.0683544 C91.2941772,32.0683544 91.3031224,32.0683544 91.3031224,32.0683544 C92.0455696,32.0683544 91.5535865,32.3814346 92.3586498,33.1238819 C93.1637131,33.8663291 92.3586498,33.1238819 92.2960338,33.741097 C92.2781435,33.8842194 92.2781435,33.9647257 92.2781435,34.0005063 C92.3228692,34.403038 92.2244726,35.0202532 92.0276793,35.3780591 C91.1421097,36.9076793 90.3459916,38.6967089 89.7198312,40.7809283 C88.6016878,43.9832911 88.1723207,45.0298734 88.0828692,45.2266667 C88.0739241,45.244557 88.0560338,45.244557 88.0470886,45.2266667 C87.9755274,45.065654 87.6535021,44.4394937 87.2509705,44.4394937 C86.7947679,44.4394937 88.0291983,43.4734177 86.5264135,42.6504641 C86.5264135,42.6504641 86.5174684,42.641519 86.5174684,42.641519 C86.5174684,42.2300422 86.4190717,41.2818565 85.4351055,41.1387342 C85.4261603,41.1387342 85.4172152,41.129789 85.4172152,41.1208439 C85.283038,40.2621097 85.2293671,39.8595781 84.737384,39.67173 C84.7284388,39.67173 84.7284388,39.6627848 84.7284388,39.6627848 C84.6837131,39.2065823 84.5853165,38.4372996 83.8697046,38.0705485 C83.8607595,38.0705485 83.8607595,38.0616034 83.8607595,38.0526582 C83.6818565,37.372827 84.0843882,36.9613502 83.404557,36.5498734 C83.404557,36.5498734 83.3956118,36.5498734 83.3956118,36.5409283 C82.8946835,35.8968776 83.2614346,35.6732489 82.5279325,35.1633755 C81.7944304,34.6624473 81.7049789,33.741097 80.6941772,33.4190717 L80.2916456,33.3296203 C80.2827004,33.3296203 80.2737553,33.3206751 80.2737553,33.31173 C80.2737553,33.2133333 80.2379747,32.6587342 79.8175527,32.3635443 C79.4508017,32.1130802 79.2361181,32.0862447 79.1556118,32.0862447 C79.1466667,32.0862447 79.1377215,32.0683544 79.1377215,32.0594093 C79.2182278,31.9252321 79.5223629,31.3348523 79.0751055,30.8428692 C78.6994093,30.4313924 78.3952743,30.404557 78.2700422,30.4135021 C78.2521519,30.4135021 78.2432068,30.3956118 78.2521519,30.3866667 C78.3594937,30.2793249 78.5652321,29.9930802 78.0643038,29.5547679 L77.4202532,29.0091139 C77.4202532,29.0091139 77.4202532,29.0091139 77.4202532,29.0091139 C77.3844726,28.9643882 76.7672574,28.0877637 76.3647257,27.9983122 L75.9711392,27.9088608 C75.9621941,27.9088608 75.9532489,27.8999156 75.9532489,27.8909705 C75.9621941,27.7925738 75.9443038,27.2379747 74.987173,26.9875105 C74.4325738,26.8443882 74.0658228,27.0680169 73.8332489,27.3453165 C73.5738397,27.6673418 73.1265823,27.7567932 72.7419409,27.6047257 C72.5898734,27.5421097 72.384135,27.5331646 72.0889451,27.6315612 C71.0781435,27.9535865 70.5235443,28.5081857 70.5235443,28.8749367 C70.5235443,29.2416878 70.3267511,29.6084388 69.9957806,29.5279325 C69.5664135,29.4295359 68.9134177,30.1540928 68.868692,30.6192405 C68.8239662,31.075443 68.7792405,31.6747679 68.6361181,31.5853165 C68.5019409,31.495865 68.0367932,31.5853165 67.9920675,31.9967932 C67.9473418,32.40827 68.0367932,32.2472574 68.1709705,32.587173 C68.2425316,32.7750211 67.6253165,32.7302954 67.6700422,33.3296203 C67.7147679,33.8842194 67.9205063,34.3225316 67.9383966,34.3762025 C67.9383966,34.3762025 67.9383966,34.3851477 67.9383966,34.3851477 C67.9115612,34.4298734 67.7147679,34.7787342 67.7594937,35.2081013 C67.8042194,35.6643038 67.4374684,35.1186498 67.3480169,35.7627004 C67.2585654,36.4067511 67.3032911,36.9076793 67.4821941,36.9524051 C67.6700422,36.9971308 67.294346,37.3638819 67.5269198,37.918481 C67.6163713,38.1421097 67.7058228,38.3031224 67.7863291,38.4104641 C67.8221097,38.464135 67.7594937,38.5267511 67.7058228,38.4909705 C67.4553586,38.3567932 67.1064979,38.16 66.8828692,38.0437131 C66.5161181,37.855865 65.782616,37.1670886 63.5731646,37.676962 C61.3726582,38.1778903 58.6622785,39.8774684 56.5422785,39.8327426 C55.5762025,39.8148523 54.7174684,39.8595781 53.9839662,39.8327426 C53.0894515,39.8059072 52.5885232,40.8524895 53.178903,41.5323207 C53.8855696,42.337384 54.9768776,42.9903797 56.9090295,43.1335021 C60.5854852,43.4108017 61.4084388,41.8901266 67.0081013,44.9672574 C70.8813502,47.0962025 72.7061603,48.3843038 73.475443,48.9836287 C73.5648945,49.0551899 73.4843882,49.2072574 73.3770464,49.1535865 C72.9476793,48.9657384 72.3304641,48.6616034 71.7400844,48.2232911 C70.8187342,47.5434599 70.0673418,47.2840506 69.897384,47.2214346 C69.8794937,47.2124895 69.8705485,47.2303797 69.8705485,47.24827 L74.7367089,59.905654 C74.7903797,60.0577215 74.6025316,60.1740084 74.4951899,60.0487764 C73.7259072,59.181097 72.5540928,57.7677637 72.0710549,57.3115612 C71.292827,56.5780591 62.7770464,53.545654 61.721519,53.178903 C60.6659916,52.8121519 55.5225316,52.9016034 54.8337553,53.1341772 C54.1449789,53.3667511 53.9392405,53.3220253 53.6887764,53.7782278 C53.6798312,53.787173 54.0555274,53.9750211 54.2612658,54.0823629 C54.3507173,54.1270886 54.4580591,54.1539241 54.5564557,54.1539241 C55.0484388,54.1449789 55.9250633,54.1360338 57.3115612,55.4330802 C59.422616,57.4099578 63.9220253,63.4658228 69.9421097,67.23173 C70.1836287,67.3837975 70.4162025,67.5269198 70.6398312,67.6700422 C70.8008439,67.777384 70.9976371,67.8310549 71.1854852,67.8310549 L74.3162869,67.8310549 C74.3341772,67.8310549 74.3431224,67.8042194 74.3252321,67.7952743 C74.0032068,67.6342616 73.7527426,67.4821941 73.6096203,67.3748523 C72.8313924,66.7308017 70.4251477,65.5500422 70.0315612,64.8970464 C69.7274262,64.4050633 70.8724051,64.7807595 71.9905485,65.541097 C73.2965401,66.4266667 74.6204219,67.2138397 75.7564557,67.7505485 C75.8816878,67.8042194 76.0069198,67.84 76.1500422,67.84 C76.9193249,67.8668354 77.4202532,67.0349367 77.0803376,66.3551055 L75.2823629,62.7591561 C75.2734177,62.750211 75.2734177,62.7412658 75.2644726,62.7233755 C75.1660759,62.4460759 73.9137553,58.876962 76.7404219,63.9578059 C77.4381435,65.2190717 77.715443,66.4535021 78.0911392,67.2496203 C78.261097,67.6074262 78.6278481,67.84 79.0214346,67.84 L86.2759494,67.84 C87.0362869,67.84 87.5372152,67.0438819 87.2062447,66.3640506 C86.7768776,65.4695359 86.4101266,64.7270886 86.3296203,64.628692 C86.1059916,64.3513924 77.7422785,51.2199156 77.2950211,50.7726582 C76.8477637,50.3254008 71.5880169,45.5665823 67.3211814,42.5162869 C64.7270886,40.6646414 62.4639662,40.2621097 62.4639662,40.2621097 C62.3118987,40.1905485 62.0524895,40.0742616 62.6160338,39.9221941 C66.3103797,39.4659916 73.1802532,45.9691139 76.6956962,49.001519 C79.04827,51.0320675 82.8499578,57.3741772 85.40827,61.5515612 C86.7768776,63.7878481 87.4745992,63.5016034 87.3225316,60.9611814 C87.1346835,57.6962025 86.9647257,53.3935865 87.3940928,50.3790717 C87.9308017,46.5863291 89.6124895,42.9188186 90.5875105,41.0224473 C90.6680169,40.8703797 90.8916456,40.9687764 90.8379747,41.129789 L88.9416034,46.7741772 C87.1972996,51.9802532 87.9755274,61.9809283 88.5211814,66.9365401 C88.5748523,67.4464135 89.0042194,67.8310549 89.523038,67.8310549 C91.1152743,67.8310549 94.6486076,67.8310549 98.7544304,67.8310549 C98.7633755,67.8310549 98.7723207,67.8221097 98.7723207,67.8131646 C98.8081013,66.811308 99.0675105,64.9596624 99.3090295,63.3942616 C99.3627004,63.0364557 99.8725738,63.0364557 99.9351899,63.3853165 C100.301941,65.3800844 101.080169,67.052827 101.4827,67.8221097 C101.4827,67.8310549 101.491646,67.8310549 101.500591,67.8310549 C108.424135,67.8310549 116.072236,67.8310549 118.800506,67.8310549 C119.372996,67.8310549 119.829198,67.3748523 119.829198,66.8023629 C119.829198,63.1080169 119.829198,50.5579747 119.829198,47.1319831 C119.873924,46.6578903 119.489283,46.2195781 118.979409,46.1480169 Z M112.386835,45.3608439 C112.261603,45.790211 112.127426,46.1480169 112.002194,46.335865 C111.885907,46.5147679 111.73384,46.7920675 111.581772,47.0783122 C111.572827,47.0872574 111.554937,47.0962025 111.545992,47.0783122 C110.991392,46.3716456 109.980591,45.244557 109.086076,45.1551055 C107.780084,45.0209283 103.343291,43.9832911 100.212489,45.6739241 C99.1480169,46.2464135 97.3500422,47.3377215 95.5610127,48.9478481 C94.9259072,49.5203376 93.8972152,49.1088608 93.8435443,48.2590717 C93.6825316,45.9422785 93.7451477,43.3124051 94.2013502,40.4767932 C94.3623629,39.5017722 94.5591561,38.5893671 94.79173,37.7395781 C94.9259072,37.2475949 95.3910549,36.9255696 95.8919831,36.9792405 C95.945654,36.9881857 95.9814346,36.9881857 96.00827,36.9792405 C96.0172152,36.9792405 96.0261603,36.9792405 96.0261603,36.9881857 L96.2050633,37.3459916 C96.3929114,37.7216878 96.5807595,37.6590717 97.6273418,37.8379747 C98.6828692,38.0258228 100.597131,38.643038 101.965738,38.76827 C103.325401,38.8935021 103.388017,38.8308861 103.951561,39.0187342 C104.50616,39.2065823 106.849789,39.9490295 106.858734,39.9490295 C106.858734,39.9490295 106.858734,39.9490295 106.858734,39.9490295 C106.867679,39.9490295 107.475949,39.9490295 107.78903,40.3247257 C108.10211,40.7004219 108.218397,40.6378059 108.907173,40.6378059 C109.587004,40.6378059 109.524388,40.7004219 109.524388,40.7004219 C109.524388,40.7004219 109.524388,40.7004219 111.071899,42.1227004 C111.868017,42.8562025 112.243713,43.9564557 112.413671,44.8509705 C112.449451,45.0209283 112.440506,45.1908861 112.386835,45.3608439 Z" id="Shape"></path>
                </g>
            </g>
        </g>
    </g>
</svg>