<svg width="19" height="23" viewBox="0 0 19 23" fill="none" xmlns="http://www.w3.org/2000/svg">
<path d="M1.81084 9.42999C1.84939 8.94968 2.06744 8.50151 2.42156 8.17473C2.77569 7.84796 3.2399 7.66656 3.72176 7.66666H15.2773C15.7592 7.66656 16.2234 7.84796 16.5775 8.17473C16.9317 8.50151 17.1497 8.94968 17.1883 9.42999L17.9578 19.0133C17.979 19.2771 17.9453 19.5423 17.8589 19.7924C17.7726 20.0425 17.6353 20.2719 17.4559 20.4664C17.2765 20.6608 17.0588 20.816 16.8164 20.9222C16.5741 21.0284 16.3124 21.0832 16.0478 21.0833H2.95126C2.68668 21.0832 2.42499 21.0284 2.18265 20.9222C1.94032 20.816 1.72259 20.6608 1.54317 20.4664C1.36376 20.2719 1.22655 20.0425 1.14017 19.7924C1.0538 19.5423 1.02013 19.2771 1.0413 19.0133L1.81084 9.42999V9.42999Z" stroke="white" stroke-width="2" stroke-linecap="round" stroke-linejoin="round"/>
<path d="M13.3327 10.5417V5.74999C13.3327 4.73333 12.9288 3.7583 12.2099 3.03941C11.491 2.32052 10.516 1.91666 9.49935 1.91666C8.48269 1.91666 7.50766 2.32052 6.78877 3.03941C6.06988 3.7583 5.66602 4.73333 5.66602 5.74999V10.5417" stroke="white" stroke-width="2" stroke-linecap="round" stroke-linejoin="round"/>
</svg>
