<svg width="15" height="42" viewBox="0 0 15 42" fill="none" xmlns="http://www.w3.org/2000/svg">
<path d="M7.33422 41.4125C6.99791 41.1861 6.91588 40.8706 6.91588 40.4743C6.93229 36.9558 6.90768 33.4373 6.93229 29.9188C6.94049 28.5923 6.48113 27.468 5.60344 26.4973C4.52887 25.3083 3.17541 24.6046 1.60048 24.273C1.51025 24.2568 1.41182 24.273 1.28057 24.273C1.21495 26.0929 1.68251 27.6944 3.1262 28.9158C3.88906 29.5629 4.77496 29.9592 5.75109 30.1614C6.11201 30.2423 6.34989 30.4203 6.34169 30.8166C6.34169 31.2129 6.00537 31.4799 5.58703 31.399C3.27385 30.9865 0.673568 29.3202 0.140387 26.1253C0.000939936 25.3164 0.0419538 24.459 0.0829677 23.634C0.107576 23.0516 0.419282 22.8737 1.00168 22.9303C3.29025 23.1649 5.2015 24.1274 6.71081 25.8503C6.75183 25.8988 6.80104 25.9392 6.92408 26.0444C6.92408 25.737 6.92408 25.5186 6.92408 25.3002C6.92408 24.3458 6.89948 23.3833 6.93229 22.4288C6.98971 20.7545 6.30067 19.428 5.07846 18.336C4.0203 17.3897 2.76528 16.8316 1.31338 16.5808C1.20675 17.2845 1.28878 17.9478 1.46103 18.5868C2.01882 20.7141 3.48712 21.9354 5.58703 22.4774C5.69367 22.5016 5.8003 22.5178 5.90694 22.5582C6.25966 22.6796 6.42371 22.9869 6.33348 23.3186C6.25146 23.6178 5.93975 23.8281 5.60344 23.7553C2.99495 23.1811 1.13292 21.7575 0.304443 19.1772C-0.0154656 18.1743 -0.0564795 17.1389 0.0583594 16.0955C0.140387 15.408 0.345457 15.222 1.04269 15.2867C3.18362 15.4808 4.98823 16.3786 6.46473 17.9154C6.57957 18.0368 6.6862 18.1581 6.79284 18.2713C6.80925 18.2875 6.84206 18.2875 6.92408 18.3037C6.92408 17.9882 6.92408 17.689 6.92408 17.3816C6.92408 16.5161 6.90768 15.6587 6.93229 14.7933C6.9651 13.4991 6.51394 12.391 5.66906 11.4285C4.59449 10.199 3.21643 9.47912 1.61689 9.13941C1.52666 9.12323 1.42822 9.13941 1.23956 9.13941C1.28878 9.68134 1.28057 10.2233 1.38721 10.7409C1.83836 13.0138 3.28205 14.3646 5.505 14.9712C5.61164 15.0036 5.71828 15.0198 5.82491 15.0521C6.21865 15.1653 6.41551 15.4484 6.34169 15.7962C6.27606 16.136 5.96436 16.3382 5.56242 16.2573C4.25818 16.0146 3.10159 15.4646 2.12546 14.5749C0.29624 12.9167 -0.212332 10.8137 0.0829677 8.46806C0.156793 7.91804 0.427484 7.73201 0.993476 7.79671C3.7332 8.11217 5.89874 9.34162 7.39164 11.6711C7.41625 11.7035 7.44086 11.7277 7.49008 11.7843C7.5557 11.7035 7.61312 11.6468 7.66233 11.574C9.17165 9.285 11.3454 8.07981 14.0769 7.79671C14.5691 7.74818 14.8316 7.93422 14.9054 8.42762C15.5042 12.3991 13.2074 15.4727 9.52436 16.2573C9.05681 16.3544 8.7369 16.1764 8.66307 15.8124C8.58925 15.4323 8.79432 15.1492 9.25367 15.0521C10.3693 14.8014 11.3618 14.3241 12.1821 13.5234C13.3633 12.3586 13.757 10.9189 13.7242 9.31735C13.7242 9.26882 13.6996 9.22029 13.6586 9.09896C13.273 9.19603 12.8875 9.26882 12.5184 9.39015C10.6153 10.0453 9.11423 11.1615 8.36777 13.0704C8.17911 13.5476 8.10528 14.0896 8.08888 14.6072C8.04786 15.7073 8.07247 16.8154 8.08068 17.9235C8.08068 18.0529 8.08888 18.1824 8.09708 18.3441C8.56464 17.9073 8.97478 17.4787 9.43413 17.1147C10.7876 16.0389 12.3297 15.408 14.0769 15.2948C14.6265 15.2624 14.8398 15.4161 14.9136 15.9499C15.4796 19.9133 13.2074 22.9788 9.44234 23.7634C9.05681 23.8443 8.72869 23.634 8.65487 23.2943C8.57284 22.9141 8.78611 22.6149 9.24547 22.5178C10.2298 22.3156 11.0993 21.9031 11.8786 21.2722C13.2812 20.1317 13.88 18.2147 13.6668 16.5404C13.0844 16.7183 12.502 16.8478 11.9606 17.0742C10.1232 17.8588 8.72869 19.0802 8.19551 21.0619C8.11349 21.3692 8.08068 21.7009 8.07247 22.0163C8.05607 23.2053 8.06427 24.3862 8.06427 25.5753C8.06427 25.7047 8.07247 25.8341 8.08068 25.9473C8.66307 25.4377 9.20446 24.912 9.81146 24.4671C11.0665 23.545 12.502 23.0597 14.0605 22.9222C14.5527 22.8818 14.8152 23.0597 14.889 23.5531C15.5124 27.654 13.0516 30.6872 9.43413 31.399C9.0404 31.4799 8.72049 31.2776 8.64667 30.946C8.56464 30.582 8.76971 30.2747 9.18805 30.1857C10.5005 29.9107 11.6243 29.3202 12.4856 28.293C13.4617 27.1363 13.757 25.7694 13.6914 24.2164C13.2648 24.3215 12.8711 24.3862 12.5102 24.5157C10.6071 25.1708 9.09782 26.279 8.35137 28.1878C8.1627 28.6812 8.07247 29.2393 8.06427 29.7651C8.03966 33.3402 8.04786 36.9072 8.05607 40.4824C8.05607 40.8787 7.98224 41.1942 7.63773 41.4206C7.54749 41.4125 7.44086 41.4125 7.33422 41.4125Z" fill="#008571"/>
<path d="M7.66236 0C7.90024 0.21839 8.17094 0.412514 8.3596 0.671346C10.0576 2.93613 10.681 5.41121 9.77868 8.1613C9.72126 8.33925 9.64744 8.5172 9.549 8.67897C9.37674 8.98633 9.08965 9.06722 8.77794 8.95398C8.44983 8.84074 8.33499 8.57382 8.40061 8.24219C8.41702 8.15322 8.45803 8.06424 8.49084 7.97527C9.34393 5.74284 8.87637 3.69645 7.59674 1.76329C7.58034 1.73094 7.53932 1.71476 7.4737 1.67432C6.8831 2.45891 6.48937 3.31629 6.26789 4.25455C5.96439 5.54063 5.9972 6.81861 6.53038 8.05615C6.71084 8.46058 6.5878 8.80838 6.25149 8.95398C5.89877 9.10766 5.54605 8.95398 5.36559 8.54146C4.48789 6.52743 4.64374 4.51339 5.51324 2.54788C5.83314 1.81991 6.34172 1.16475 6.78467 0.493399C6.91591 0.299275 7.13739 0.169859 7.32605 0.00808851C7.44089 0 7.54752 0 7.66236 0Z" fill="#008571"/>
</svg>
