<svg width="33" height="38" viewBox="0 0 33 38" fill="none" xmlns="http://www.w3.org/2000/svg">
<path d="M16.0414 37.8958C15.7036 37.7255 15.591 37.4517 15.591 37.0816C15.606 35.1424 15.5985 33.2106 15.591 31.2714C15.591 30.8421 15.5535 30.4128 15.5084 29.9835C15.4934 29.8725 15.4034 29.7319 15.3058 29.6653C14.5176 29.162 13.677 29.0806 12.7988 29.3988C12.6937 29.4358 12.5811 29.6209 12.5736 29.7467C12.491 30.7977 12.3184 31.8265 11.9506 32.8183C11.0949 35.1276 9.36097 36.4599 6.98904 36.9854C6.11834 37.1778 5.2101 37.2222 4.31688 37.2888C3.82898 37.3258 3.58879 37.0742 3.58879 36.6005C3.58128 34.9722 3.86651 33.4104 4.64715 31.9597C5.62294 30.139 7.25176 29.1916 9.21835 28.7327C9.71375 28.6143 10.2242 28.5551 10.7346 28.4958C11.4627 28.4144 12.1908 28.407 12.9038 28.1628C13.5869 27.9259 14.1273 28.0221 15.2908 28.3108C15.2833 28.2146 15.2983 28.1184 15.2758 28.0295C14.908 26.5863 14.1423 25.3872 12.9714 24.4398C12.7988 24.2992 12.6636 24.2992 12.4685 24.3806C11.2075 24.8765 9.9014 25.1726 8.52779 25.18C6.45611 25.18 4.76724 24.3436 3.36361 22.8707C2.4929 21.9529 1.80985 20.9167 1.28442 19.7695C1.09677 19.3624 1.17934 19.0737 1.55464 18.8961C3.55876 17.9561 5.64545 17.4528 7.87476 17.9117C9.6537 18.2817 10.9748 19.3476 12.0707 20.7168C12.7237 21.531 13.2791 22.4044 13.6469 23.3888C13.6695 23.448 13.6995 23.4998 13.7445 23.5442C14.1423 23.9291 14.5477 24.3066 15.0206 24.7507C14.4351 21.5532 13.4518 18.5556 12.0857 15.7134C11.4402 15.8615 10.8472 16.0613 10.2317 16.1279C7.52948 16.4166 5.33771 15.4618 3.87402 13.2117C2.53794 11.1467 1.35948 8.98544 0.120978 6.86121C-0.104205 6.47633 -0.0141319 6.18767 0.383691 5.96562C1.15682 5.53633 1.98249 5.26248 2.8607 5.18846C3.16845 5.16626 3.25852 5.07744 3.31106 4.75918C3.49871 3.64155 3.73891 2.51652 3.99412 1.40629C4.0917 0.991803 4.36191 0.843773 4.79727 0.969599C5.85563 1.28046 6.90648 1.63574 7.96483 1.97621C8.11496 2.02802 8.25757 2.10943 8.45273 2.19085C9.0382 1.25826 9.86387 0.577318 10.7871 0C10.9147 0 11.0348 0 11.1624 0C11.3276 0.192439 11.5227 0.370076 11.6503 0.58472C12.7537 2.4499 13.7971 4.34469 14.9455 6.18027C16.867 9.2667 15.9663 13.0859 13.2041 15.0029C13.1741 15.0251 13.144 15.0473 13.0915 15.0991C14.6152 18.2595 15.6736 21.568 16.2966 25.0245C17.1748 21.7383 18.631 18.7258 20.7177 15.9873C20.0421 15.2545 19.5467 14.433 19.3215 13.4782C18.9162 11.7536 19.224 10.1623 20.3424 8.7708C21.3932 7.46813 22.5041 6.20987 23.5925 4.93681C23.9153 4.56674 24.253 4.51493 24.5833 4.8776C25.0487 5.3809 25.469 5.94342 25.8668 6.49853C26.0095 6.69837 26.092 6.73538 26.3397 6.69097C27.2254 6.53554 28.1112 6.40231 29.0044 6.30609C29.5598 6.24688 29.785 6.43932 29.8225 7.01664C29.8976 7.98624 29.9126 8.95584 29.9577 9.89583C30.5656 10.2141 31.2262 10.5102 31.8267 10.8876C32.4797 11.2947 32.4947 11.576 31.9918 12.1681C31.0535 13.2783 30.0853 14.3589 29.177 15.4914C27.2855 17.8525 24.0579 18.2595 21.776 16.8162C21.7385 16.794 21.686 16.7866 21.6109 16.757C19.1564 19.9841 17.6327 23.5886 17.0097 27.6447C17.3099 27.4596 17.5426 27.2376 17.8203 27.1562C18.676 26.8971 19.284 26.305 19.9445 25.7647C21.2656 24.6841 22.7443 23.8699 24.4557 23.5294C26.2947 23.1667 28.0061 23.5738 29.6274 24.4176C30.7833 25.0245 31.8117 25.8017 32.7274 26.7269C33.0727 27.0747 33.0952 27.3708 32.7649 27.6965C31.1511 29.3026 29.3121 30.5313 27.0078 30.9605C25.1463 31.301 23.4199 30.8791 21.8286 29.9539C20.9278 29.4358 20.1172 28.7623 19.2915 28.1332C19.0813 27.9777 18.9387 27.9333 18.6985 28.0295C17.5576 28.4736 16.7995 29.5321 16.792 30.7903C16.777 32.8849 16.7845 34.987 16.792 37.0816C16.792 37.4591 16.6794 37.7255 16.3416 37.8958C16.244 37.8958 16.139 37.8958 16.0414 37.8958ZM1.40452 6.75018C1.49459 6.90562 1.55464 7.01664 1.61469 7.12026C2.613 8.83001 3.61881 10.5324 4.60962 12.2421C5.52536 13.8112 6.88396 14.7364 8.69292 14.9955C9.6462 15.1287 10.577 15.0177 11.5077 14.6032C11.4026 14.4034 11.3201 14.2331 11.215 14.0629C10.2317 12.3753 9.24087 10.7026 8.27258 9.00765C7.69462 7.99364 6.86895 7.24609 5.79558 6.77979C4.36191 6.15066 2.90573 6.13586 1.40452 6.75018ZM12.5886 13.9889C12.6636 13.9371 12.7087 13.9075 12.7462 13.8778C14.8554 12.2717 15.4109 9.35552 14.0448 6.99443C13.0239 5.22547 11.9881 3.47871 10.9598 1.71715C10.9072 1.62093 10.8397 1.53952 10.7796 1.4433C8.75297 2.79777 7.86726 5.8472 9.21084 8.21568C9.63118 8.95584 10.074 9.68118 10.5019 10.4213C11.1924 11.5982 11.883 12.775 12.5886 13.9889ZM20.7627 26.6529C20.9804 26.6529 21.1155 26.6529 21.2506 26.6529C23.2622 26.6529 25.2739 26.6529 27.2855 26.6529C27.3981 26.6529 27.5107 26.6455 27.6233 26.6603C27.9535 26.6973 28.2012 26.9489 28.1787 27.245C28.1562 27.5707 27.961 27.7631 27.6383 27.8075C27.5257 27.8223 27.4131 27.8149 27.3005 27.8149C25.2664 27.8149 23.2247 27.8149 21.1906 27.8149C21.063 27.8149 20.9429 27.8149 20.8152 27.8149C22.4216 29.125 24.148 30.0576 26.2647 29.8799C28.3589 29.7023 30.0252 28.6143 31.5414 27.2524C27.931 23.8477 24.2455 23.7589 20.7627 26.6529ZM2.56045 19.7398C3.61131 21.5902 4.84981 23.189 7.00406 23.8181C8.31762 24.203 10.4869 23.9513 11.3125 23.4702C10.4644 23.1667 9.63869 22.8633 8.80552 22.5672C7.9273 22.249 7.04909 21.9381 6.17088 21.6124C5.78056 21.4718 5.63044 21.1979 5.73553 20.8797C5.84812 20.5392 6.15587 20.406 6.55369 20.5244C6.63626 20.5466 6.71882 20.5836 6.80139 20.6132C7.97234 21.0351 9.14329 21.457 10.3142 21.8789C10.7796 22.0417 11.245 22.212 11.7554 22.3896C9.69874 18.8517 6.47863 18.0893 2.56045 19.7398ZM30.8809 11.6796C29.2596 10.5398 26.655 10.8654 25.3639 12.3457C24.5458 13.2783 23.7576 14.2257 22.9545 15.1731C22.7743 15.3878 22.5942 15.6024 22.4216 15.817C23.2622 16.4092 24.5308 16.6386 25.6041 16.4092C26.5499 16.2093 27.3606 15.7726 27.9986 15.0547C28.9594 13.9445 29.9051 12.812 30.8809 11.6796ZM24.1555 6.10625C24.0654 6.20247 23.9828 6.27649 23.9153 6.3579C23.0971 7.3201 22.2864 8.2897 21.4533 9.24449C20.8152 9.97725 20.4249 10.8136 20.3424 11.7758C20.2373 13.0119 20.6126 14.0999 21.4683 15.0695C22.5266 13.8038 23.63 12.6196 24.5758 11.3243C25.7242 9.78481 25.484 7.45333 24.1555 6.10625ZM4.80477 36.0898C8.10745 36.3489 11.4176 33.5141 11.1924 30.5757C11.0048 30.7385 10.8622 30.9383 10.682 31.1086C9.87889 31.9079 9.07574 32.6999 8.27258 33.4919C7.87476 33.8767 7.29679 33.7731 7.22924 33.2846C7.19921 33.0848 7.33432 32.8035 7.48445 32.6481C8.34764 31.7599 9.24087 30.8939 10.1266 30.0206C10.2167 29.9317 10.2992 29.8355 10.4193 29.7023C6.75635 30.1538 4.93988 32.3224 4.80477 36.0898ZM4.38443 5.04043C5.48032 5.46232 6.4411 5.8324 7.31181 6.16546C7.45442 5.23287 7.61205 4.21886 7.78469 3.10864C6.99655 2.83478 6.11083 2.53872 5.23262 2.23526C5.06749 2.17605 4.94739 2.20565 4.90986 2.40549C4.72971 3.31588 4.54957 4.21146 4.38443 5.04043ZM26.4223 10.1327C27.0903 10.0291 27.7809 9.94024 28.4639 9.82181C28.5615 9.80701 28.7116 9.67378 28.7116 9.59237C28.7342 8.96324 28.7267 8.33411 28.7116 7.71238C28.7116 7.63837 28.5615 7.50514 28.494 7.51254C27.7959 7.60876 27.0978 7.72718 26.4223 7.83081C26.4223 8.66718 26.4223 9.42213 26.4223 10.1327Z" fill="#008571"/>
</svg>
