<svg width="27" height="37" viewBox="0 0 27 37" fill="none" xmlns="http://www.w3.org/2000/svg">
<path d="M20.1711 0.0141709C20.6166 0.148794 21.0692 0.24799 21.4932 0.41804C21.9099 0.581005 22.0249 1.00613 21.7806 1.3108C21.601 1.53045 21.371 1.58005 21.1052 1.49503C19.0357 0.850251 17.7064 1.38166 16.6717 3.26638C16.6286 3.35141 16.5855 3.43643 16.528 3.5498C18.0082 4.48508 18.5687 5.81714 18.195 7.52473C18.813 7.69478 19.4094 7.85066 19.9986 8.03488C20.9471 8.33246 21.8596 8.72216 22.6501 9.3386C24.0728 10.4439 24.6404 11.8539 24.2165 13.6253C24.1878 13.7457 24.2668 13.937 24.3602 14.0362C24.9279 14.6598 25.5889 15.2124 26.0776 15.8855C27.3135 17.5931 27.2919 19.3786 26.1063 21.1287C26.0704 21.1783 26.0416 21.2279 26.0273 21.2492C26.2069 21.4122 26.4368 21.5326 26.5159 21.7168C26.5877 21.9011 26.5374 22.1561 26.4871 22.3687C25.553 26.4641 24.6045 30.5524 23.6776 34.6407C23.4764 35.5193 22.9662 36.0507 22.1111 36.2987C16.219 36.2987 10.3269 36.2987 4.43474 36.2987C4.10421 36.1144 3.72337 35.9869 3.46469 35.7389C3.22038 35.4909 3.02638 35.1366 2.94733 34.7965C1.96292 30.6161 1.01443 26.4428 0.0515661 22.2695C-0.106516 21.5893 0.0874937 21.3555 0.791676 21.3413C0.84916 21.3413 0.906644 21.3342 1.00724 21.3342C0.899459 21.0083 0.777305 20.7107 0.705449 20.3919C0.338987 18.7339 1.12221 17.2601 2.7677 16.5445C3.05512 16.4169 3.09105 16.2894 3.08386 15.9989C3.05512 15.347 3.02638 14.6739 3.13416 14.0292C3.3641 12.6758 4.18325 11.7335 5.44071 11.1525C5.62754 11.0674 5.73532 10.9895 5.74969 10.7486C5.95807 7.58849 7.61074 5.3495 10.3269 3.7907C10.7077 3.57106 11.0095 3.67025 11.2394 4.03869C11.3903 4.2796 11.5484 4.51342 11.7137 4.74724C11.7424 4.78975 11.7999 4.82518 11.8646 4.87477C12.346 4.10955 12.9783 3.5498 13.8478 3.31598C14.2574 3.2097 14.6957 3.16719 15.1196 3.16719C15.3424 3.16719 15.4358 3.10342 15.5292 2.92628C15.9028 2.21065 16.3843 1.56588 16.995 1.0203C17.6202 0.467638 18.3603 0.17005 19.1651 0C19.4956 0.0141709 19.8333 0.0141709 20.1711 0.0141709ZM4.31259 16.091C4.37007 16.0839 4.42755 16.0768 4.47785 16.0627C5.92214 15.7297 7.36644 15.4108 8.81073 15.0636C9.61551 14.8723 10.4059 14.6456 11.2035 14.433C11.4981 14.3551 11.7927 14.3905 11.9077 14.6739C11.9795 14.8581 11.9436 15.1345 11.8574 15.3187C11.7999 15.4462 11.57 15.5242 11.4047 15.5667C9.45742 16.0556 7.51015 16.5303 5.56287 17.0121C4.7509 17.2105 3.90301 17.331 3.14853 17.6569C1.72579 18.2662 1.35215 19.8675 2.29345 21.0862C2.39405 21.2209 2.62399 21.3271 2.78925 21.3271C5.93651 21.3413 9.09096 21.3413 12.2382 21.3342C12.3963 21.3342 12.5759 21.3059 12.7197 21.2279C14.3005 20.399 15.8885 19.57 17.4549 18.7197C18.0585 18.3867 18.6262 17.9828 19.2082 17.6073C19.4525 17.4514 19.7327 17.3947 19.9339 17.6144C20.0633 17.7561 20.1495 18.0112 20.1279 18.2025C20.1136 18.3513 19.9267 18.5213 19.7758 18.6134C18.4106 19.4424 17.0382 20.2502 15.6657 21.0721C15.5508 21.1358 15.443 21.2067 15.328 21.2705C15.3424 21.2917 15.3496 21.313 15.3639 21.3413C15.4933 21.3413 15.6226 21.3413 15.7591 21.3413C18.4034 21.3413 21.0549 21.3271 23.6991 21.3555C24.2381 21.3626 24.6117 21.2067 24.8991 20.7816C25.0213 20.5973 25.1722 20.4202 25.2943 20.236C25.9338 19.2086 25.9985 18.1529 25.4524 17.0688C25.0285 16.2327 24.3818 15.5667 23.6417 14.9503C23.5626 15.0565 23.5051 15.1557 23.4261 15.2478C23.1315 15.6163 22.8441 15.9989 22.5207 16.3461C22.298 16.5941 21.9459 16.587 21.7159 16.3815C21.486 16.176 21.4644 15.8501 21.6728 15.5809C21.7519 15.4746 21.8596 15.3966 21.9315 15.2833C22.3052 14.6952 22.7578 14.1354 23.0093 13.5048C23.5123 12.2649 22.9734 10.869 21.8596 10.2172C21.1914 11.3792 20.9758 11.6272 19.9555 12.2649C18.31 13.2993 16.4849 13.9512 14.6597 14.5818C14.2861 14.7094 13.9699 14.5606 13.8622 14.2488C13.7472 13.9087 13.9053 13.6324 14.3077 13.4836C15.1268 13.1789 15.946 12.8955 16.7579 12.5696C17.8861 12.1161 18.9998 11.613 19.9555 10.8407C20.207 10.6352 20.4369 10.3731 20.6094 10.0967C20.8106 9.77789 20.6956 9.49447 20.3291 9.38111C19.5244 9.12603 18.7052 8.89221 17.8932 8.67256C17.7711 8.63714 17.5627 8.71508 17.4693 8.81427C16.3915 9.91251 14.9112 10.2455 13.5604 9.68578C12.2239 9.13312 11.4119 7.85066 11.4406 6.36272C11.4406 6.2706 11.4478 6.15015 11.3975 6.09347C11.0957 5.74628 10.7796 5.42035 10.4634 5.08734C8.43708 6.23518 6.72692 8.96307 6.99279 10.6352C7.05027 10.6281 7.10776 10.6281 7.16524 10.6211C8.27181 10.4085 9.3712 10.1959 10.4778 9.98337C10.9161 9.89834 11.2179 10.0755 11.2682 10.4227C11.3257 10.784 11.1101 11.032 10.6718 11.117C10.1329 11.2162 9.58676 11.2942 9.04785 11.4146C8.07062 11.6343 7.07183 11.8114 6.13052 12.1303C4.34851 12.7467 3.89582 14.6314 4.31259 16.091ZM15.7735 22.4821C15.2921 22.4821 14.7891 22.5033 14.2933 22.475C13.9556 22.4537 13.8478 22.5458 13.8478 22.9001C13.8622 26.8396 13.855 30.7791 13.855 34.7257C13.855 34.8461 13.8693 34.9737 13.8765 35.1296C14.1639 35.1296 14.4226 35.1012 14.6669 35.1366C15.0478 35.1862 15.1268 35.0091 15.1412 34.6761C15.3424 31.0271 15.5579 27.371 15.7663 23.722C15.7951 23.3252 15.7735 22.9284 15.7735 22.4821ZM12.6765 35.1012C12.6765 30.8925 12.6765 26.7121 12.6765 22.5104C12.0298 22.5104 11.3975 22.5104 10.7221 22.5104C10.9664 26.7262 11.2035 30.9066 11.4478 35.1012C11.8933 35.1012 12.2813 35.1012 12.6765 35.1012ZM16.2837 35.1296C16.5711 35.1296 16.8154 35.1012 17.0525 35.1366C17.4477 35.1933 17.5555 34.9879 17.5914 34.6619C17.7064 33.6274 17.8286 32.6001 17.9507 31.5727C18.2597 28.9156 18.5615 26.2586 18.8705 23.5945C18.9136 23.2402 18.9423 22.8789 18.9783 22.5175C18.2956 22.5175 17.6705 22.5175 17.0238 22.5175C16.7651 26.7192 16.528 30.8996 16.2837 35.1296ZM10.2766 35.1225C10.0323 30.8783 9.78796 26.705 9.55084 22.5104C8.88258 22.5104 8.24307 22.5104 7.582 22.5104C7.71853 23.6937 7.84787 24.8344 7.97721 25.9823C8.2287 28.1717 8.48019 30.3611 8.73887 32.5505C8.8251 33.3015 8.91132 34.0526 9.01911 34.7965C9.03348 34.9099 9.17 35.087 9.2706 35.1012C9.58676 35.1508 9.91011 35.1225 10.2766 35.1225ZM4.44911 22.4892C4.48504 22.7159 4.49941 22.8789 4.52815 23.0347C5.04551 26.0248 5.56287 29.0077 6.08023 31.9978C6.23112 32.8551 6.36046 33.7196 6.53291 34.5769C6.57603 34.7753 6.74129 35.0445 6.91375 35.1012C7.19398 35.1862 7.52452 35.1225 7.85505 35.1225C7.75445 34.251 7.66104 33.422 7.56763 32.593C7.31614 30.4036 7.06464 28.2071 6.80596 26.0177C6.68381 24.9265 6.56166 23.8354 6.42513 22.7513C6.41076 22.6592 6.28861 22.5033 6.20957 22.5033C5.64191 22.475 5.07425 22.4892 4.44911 22.4892ZM18.698 35.1296C18.9136 35.1296 19.0932 35.1296 19.2657 35.1296C19.8693 35.1296 19.9411 35.0729 20.0417 34.499C20.6597 30.9562 21.2776 27.4135 21.8884 23.8708C21.9674 23.4244 22.0321 22.978 22.1111 22.5175C21.4357 22.5175 20.8106 22.5175 20.1567 22.5175C19.6681 26.7192 19.1866 30.8996 18.698 35.1296ZM21.1339 35.0729C22.0393 35.2642 22.3626 35.0729 22.5495 34.251C23.2968 30.9846 24.0512 27.7253 24.8057 24.4589C24.9566 23.8212 25.1003 23.1764 25.2584 22.4821C24.6907 22.4821 24.1806 22.4962 23.6704 22.475C23.383 22.4608 23.2896 22.56 23.2393 22.8434C22.7363 25.8335 22.2117 28.8164 21.6944 31.8065C21.5076 32.8976 21.3207 33.9888 21.1339 35.0729ZM1.3234 22.4892C1.35215 22.6379 1.35933 22.7371 1.38089 22.8363C1.55334 23.6087 1.73298 24.3739 1.91262 25.1462C2.63117 28.2567 3.34972 31.3672 4.06109 34.4848C4.13295 34.7824 4.2551 35.0445 4.57845 35.0941C4.8515 35.1366 5.13892 35.1012 5.41197 35.1012C5.41916 35.0516 5.42634 35.0304 5.42634 35.0091C5.05269 32.848 4.67186 30.6941 4.29821 28.533C3.96049 26.6058 3.62996 24.6786 3.28505 22.7513C3.27068 22.6521 3.14853 22.5033 3.06949 22.5033C2.50183 22.475 1.92699 22.4892 1.3234 22.4892ZM12.6047 6.55402C12.6047 7.78689 13.6107 8.79302 14.8538 8.80719C16.104 8.82136 17.1531 7.80106 17.1531 6.56819C17.1531 5.34241 16.14 4.33628 14.8969 4.3292C13.6178 4.31503 12.6047 5.2999 12.6047 6.55402Z" fill="#008571"/>
</svg>
