<svg width="37" height="37" viewBox="0 0 37 37" fill="none" xmlns="http://www.w3.org/2000/svg">
<path d="M0 14.323C0 14.038 0 13.753 0 13.4679C0.0216797 13.4038 0.0578125 13.3397 0.0722656 13.2755C0.534766 10.6675 3.3459 9.27078 5.74512 10.4679C5.96191 10.5748 6.13535 10.5677 6.35215 10.4964C16.0502 7.07601 25.7482 3.66983 35.4463 0.263658C35.6559 0.192399 35.8582 0.0926366 36.0605 0C36.3713 0 36.6893 0 37 0C37 0.306413 37 0.619952 37 0.926366C36.9494 1.04038 36.8771 1.15439 36.841 1.26841C33.4301 11.0879 30.0264 20.9074 26.6299 30.7268C26.5648 30.9121 26.5648 31.1473 26.6299 31.3325C27.3598 33.4846 26.1023 35.7791 23.8621 36.342C23.6887 36.3848 23.5225 36.4347 23.349 36.4774C23.06 36.4774 22.7709 36.4774 22.4818 36.4774C22.0555 36.3492 21.6219 36.2637 21.2172 36.0926C16.8596 34.2898 12.9355 31.81 9.53184 28.5748C5.26094 24.5416 1.89336 19.9026 0 14.323ZM29.7156 17.4656C30.207 16.0475 30.6768 14.6936 31.1537 13.3254C28.7473 12.7696 28.0246 10.5962 28.5811 9.0285C29.1086 7.56057 30.9514 6.22803 33.2566 7.25416C33.8709 5.47981 34.4852 3.71259 35.1211 1.86698C31.8547 3.01425 28.6895 4.12589 25.5098 5.25178C25.6182 5.51544 25.7121 5.72922 25.7916 5.95012C25.9578 6.39192 25.8061 6.7696 25.4086 6.91924C25.0256 7.06888 24.6787 6.90499 24.4836 6.47743C24.368 6.23515 24.2668 5.98575 24.1512 5.72209C21.1377 6.78385 18.1676 7.82423 15.1975 8.87173C16.0719 11.0879 15.501 12.848 13.6799 13.6033C12.8633 13.9454 12.0395 13.9596 11.2156 13.639C10.0232 13.1686 9.36563 12.2637 9.12715 11.0024C8.46231 11.2375 7.84082 11.4584 7.23379 11.6722C7.44336 12.1211 7.63125 12.5131 7.81191 12.9192C9.21387 16.076 11.0783 18.9335 13.4486 21.4774C15.118 23.266 16.9463 24.8979 19.0492 26.1591C21.1377 27.4062 23.3129 28.5036 25.4664 29.6651C25.517 29.5439 25.5459 29.5012 25.5604 29.4584C26.76 26.0024 27.9523 22.5534 29.1592 19.0974C29.2314 18.8907 29.1664 18.7981 29.0146 18.6912C28.4654 18.285 27.9234 17.8717 27.3814 17.4584C26.8973 17.0879 26.7889 16.7102 27.0635 16.3468C27.3381 15.9834 27.7645 15.9834 28.2342 16.3397C28.6967 16.696 29.1736 17.0594 29.7156 17.4656ZM25.4014 32.5724C25.3941 31.6176 24.8594 30.7625 23.9777 30.3492C23.1756 29.9715 22.3445 29.6437 21.5568 29.2375C14.5687 25.6675 9.51738 20.3159 6.38105 13.2043C6.23652 12.8836 6.07031 12.5558 5.84629 12.285C5.04414 11.3515 3.65664 11.1663 2.60879 11.8147C1.53926 12.4774 1.16348 13.7601 1.68379 14.9786C4.86348 22.3753 9.90039 28.2114 16.8885 32.3587C18.4928 33.3064 20.1982 34.0903 21.9037 34.8527C23.573 35.6009 25.4086 34.361 25.4014 32.5724ZM14.3158 10.5962C14.193 10.2827 14.0846 9.96199 13.9545 9.64845C13.8605 9.43468 13.716 9.37055 13.4703 9.46318C12.5959 9.79097 11.7143 10.0974 10.8254 10.3895C10.5797 10.4751 10.5219 10.6033 10.5508 10.8314C10.6664 11.772 11.5264 12.4988 12.473 12.4561C13.4703 12.4133 14.2508 11.6081 14.3158 10.5962ZM29.824 10.0974C29.8168 10.9525 30.4094 11.6936 31.2404 11.886C31.4861 11.943 31.6523 11.9287 31.7463 11.6223C32.0354 10.7173 32.3461 9.8266 32.6785 8.93587C32.7797 8.65796 32.6857 8.55819 32.4545 8.45131C31.2332 7.88836 29.8385 8.75772 29.824 10.0974Z" fill="#008571"/>
<path d="M18.7246 21.1995C18.7246 19.4109 20.2061 17.9644 22.0127 17.9644C23.7977 17.9715 25.2719 19.4323 25.2719 21.1924C25.2719 22.9667 23.7832 24.4275 21.9766 24.4275C20.1916 24.4204 18.7246 22.9667 18.7246 21.1995ZM20.1482 21.1924C20.1482 22.2114 20.9648 23.0237 21.9982 23.0237C23.0027 23.0237 23.841 22.2114 23.8482 21.2209C23.8627 20.209 23.0316 19.3824 22.0127 19.3753C20.9865 19.3682 20.1555 20.1734 20.1482 21.1924Z" fill="#008571"/>
<path d="M25.4514 12.3562C25.4442 14.1519 23.9699 15.5771 22.1489 15.5557C20.3494 15.5343 18.9186 14.0949 18.9258 12.3134C18.933 10.5177 20.4 9.09962 22.2283 9.11388C24.0278 9.12813 25.4586 10.5676 25.4514 12.3562ZM22.2067 10.5106C21.1877 10.4892 20.3422 11.3015 20.3278 12.3134C20.3133 13.3039 21.1516 14.1448 22.1778 14.159C23.1678 14.1733 24.0061 13.3609 24.035 12.3633C24.0639 11.3657 23.2473 10.5319 22.2067 10.5106Z" fill="#008571"/>
<path d="M15.4713 14.7577C16.1722 14.8503 16.9383 14.9358 17.697 15.057C18.0801 15.114 18.3258 15.4845 18.2679 15.8408C18.2101 16.2042 17.8777 16.4822 17.4947 16.4394C16.7431 16.3539 15.9988 16.2613 15.2472 16.1472C14.8209 16.0831 14.5896 15.7482 14.6474 15.3563C14.7053 14.9786 15.0015 14.7434 15.4713 14.7577Z" fill="#008571"/>
<path d="M16.5264 20.3303C16.5192 20.7436 16.2373 21.05 15.8616 21.0785C15.5075 21.107 15.175 20.8576 15.1172 20.4942C15.0377 19.9953 14.9655 19.4894 14.9149 18.9835C14.8715 18.6129 15.1317 18.2994 15.4786 18.2352C15.8688 18.1711 16.2301 18.3706 16.3024 18.7483C16.4036 19.2828 16.4614 19.8243 16.5264 20.3303Z" fill="#008571"/>
<path d="M6.01212 18.4631C5.82423 18.3206 5.56407 18.2137 5.4629 18.0213C4.79806 16.7387 4.15489 15.4417 3.52618 14.1377C3.33107 13.7387 3.5045 13.3467 3.88028 13.19C4.25607 13.0332 4.62462 13.19 4.82696 13.5961C5.44122 14.836 6.06271 16.0831 6.67696 17.323C6.93712 17.8503 6.6336 18.3919 6.01212 18.4631Z" fill="#008571"/>
<path d="M6.49622 19.5108C6.48899 19.1118 6.79251 18.8125 7.1972 18.8125C7.58743 18.8125 7.88372 19.0975 7.89817 19.4823C7.91263 19.8814 7.60911 20.202 7.21888 20.2092C6.82142 20.2092 6.50345 19.9028 6.49622 19.5108Z" fill="#008571"/>
</svg>
