<svg width="30" height="41" viewBox="0 0 30 41" fill="none" xmlns="http://www.w3.org/2000/svg">
<path d="M0.48937 40.5028C0.0962695 40.2971 0 39.9727 0 39.5535C0.00802246 32.9085 0.00802246 26.2635 0.00802246 19.6185C0.00802246 16.5729 1.27557 14.2155 3.88287 12.5543C4.01123 12.4752 4.09947 12.2378 4.09947 12.0717C4.11552 8.36952 4.11552 4.66731 4.09947 0.957194C4.09947 0.537927 4.21179 0.213589 4.58082 0C6.08102 0 7.5732 0 9.0734 0C9.47452 0.197767 9.56277 0.522106 9.56277 0.949284C9.55474 4.63567 9.56277 8.32996 9.54672 12.0163C9.54672 12.317 9.65101 12.4831 9.89971 12.6413C12.2503 14.1601 13.5499 16.3119 13.6382 19.0885C13.7024 21.2877 13.6622 23.4869 13.6622 25.6939C13.6622 30.3217 13.6622 34.9415 13.6703 39.5693C13.6703 39.9886 13.574 40.3208 13.1649 40.5028C8.93702 40.5028 4.70918 40.5028 0.48937 40.5028ZM5.45527 10.8139C5.45527 11.4468 5.43922 12.0559 5.46329 12.6571C5.47131 13.0447 5.31889 13.2979 4.97392 13.4877C2.56719 14.8167 1.3558 16.8419 1.3558 19.5552C1.3558 25.9471 1.3558 32.3389 1.3558 38.7308C1.3558 38.8653 1.37184 39.0076 1.37184 39.1421C5.0381 39.1421 8.65623 39.1421 12.2984 39.1421C12.3064 39.0076 12.3225 38.8969 12.3225 38.7782C12.3225 32.3627 12.3305 25.9392 12.3225 19.5236C12.3145 16.8814 11.1512 14.8642 8.81668 13.5431C8.36742 13.29 8.18291 12.9894 8.20697 12.4989C8.23104 11.9372 8.215 11.3756 8.215 10.806C7.26032 10.8139 6.36983 10.8139 5.45527 10.8139ZM5.47934 4.73851C5.47934 6.31274 5.47934 7.87114 5.47934 9.43746C6.3939 9.43746 7.28439 9.43746 8.18291 9.43746C8.18291 7.85532 8.18291 6.31274 8.18291 4.73851C7.27637 4.73851 6.38588 4.73851 5.47934 4.73851ZM8.18291 3.37787C8.18291 2.68173 8.18291 2.02514 8.18291 1.36064C7.26834 1.36064 6.37785 1.36064 5.48736 1.36064C5.48736 2.04887 5.48736 2.70546 5.48736 3.37787C6.40192 3.37787 7.27637 3.37787 8.18291 3.37787Z" fill="#008571"/>
<path d="M19.6632 40.5028C19.206 40.2734 19.1418 39.8937 19.1899 39.4348C19.3664 37.829 20.7944 36.5158 22.431 36.4762C22.6957 36.4683 22.9605 36.4762 23.2493 36.4762C23.2493 33.9606 23.2493 31.4925 23.2493 29.0877C22.4871 28.8029 21.725 28.6051 21.0431 28.2412C19.4867 27.4185 18.6043 26.0737 18.1309 24.4045C17.7378 23.0043 17.9705 21.6358 18.1791 20.2593C18.492 18.1472 18.7968 16.035 19.1097 13.9308C19.1337 13.7884 19.1498 13.646 19.1739 13.5036C19.2541 13.0527 19.4707 12.847 19.928 12.847C22.6155 12.8391 25.303 12.8391 27.9905 12.847C28.4157 12.847 28.6724 13.0448 28.7286 13.4324C29.1618 16.3673 29.7073 19.2863 29.9721 22.2291C30.2529 25.3538 28.4077 28.4232 24.6612 29.0006C24.6612 31.4688 24.6612 33.9448 24.6612 36.4842C24.926 36.4842 25.1987 36.4762 25.4715 36.4842C27.1402 36.5316 28.5842 37.8843 28.7286 39.5219C28.7687 39.957 28.6644 40.2971 28.2553 40.5107C25.3832 40.5028 22.5192 40.5028 19.6632 40.5028ZM28.6243 22.2765C28.6243 22.1737 28.6323 22.1262 28.6243 22.0709C28.2553 19.5315 27.8862 16.9922 27.5252 14.445C27.4851 14.1681 27.3407 14.1523 27.1161 14.1523C25.0062 14.1602 22.8963 14.1602 20.7864 14.1523C20.4976 14.1523 20.4093 14.2472 20.3692 14.5241C20.0964 16.478 19.7996 18.4319 19.5188 20.3859C19.4306 21.0029 19.3504 21.6279 19.2621 22.2765C22.3989 22.2765 25.4956 22.2765 28.6243 22.2765ZM19.3824 23.6372C19.6392 26.0499 21.7972 27.8378 24.236 27.6796C26.9316 27.5055 28.4238 25.3063 28.496 23.6372C25.4635 23.6372 22.439 23.6372 19.3824 23.6372ZM27.2043 39.1501C27.1482 38.5251 26.2577 37.829 25.5517 37.8132C24.4847 37.7973 23.4177 37.7815 22.3508 37.8132C21.5806 37.8369 20.8345 38.4697 20.6981 39.1501C22.8642 39.1501 25.0303 39.1501 27.2043 39.1501Z" fill="#008571"/>
<path d="M2.7424 27.6874C2.7424 25.7256 2.7424 23.7637 2.7424 21.8019C2.7424 21.169 2.959 20.9475 3.60882 20.9475C5.75884 20.9475 7.90886 20.9475 10.0589 20.9475C10.7167 20.9475 10.9173 21.1532 10.9173 21.794C10.9173 25.7177 10.9173 29.6414 10.9173 33.573C10.9173 34.19 10.7007 34.4036 10.0749 34.4036C7.90886 34.4036 5.7428 34.4036 3.58476 34.4036C2.96703 34.4036 2.73438 34.1742 2.73438 33.573C2.73438 31.6111 2.7424 29.6493 2.7424 27.6874ZM4.09819 33.0588C5.93533 33.0588 7.73236 33.0588 9.55346 33.0588C9.55346 29.4594 9.55346 25.8838 9.55346 22.2923C7.72434 22.2923 5.91929 22.2923 4.09819 22.2923C4.09819 25.8917 4.09819 29.4594 4.09819 33.0588Z" fill="#008571"/>
</svg>
