<svg width="13" height="43" viewBox="0 0 13 43" fill="none" xmlns="http://www.w3.org/2000/svg">
<path d="M8.59813 0C8.92591 0.232048 9.01836 0.546971 9.01836 0.928193C9.00996 4.29289 9.01836 7.66588 9.00995 11.0306C9.00995 11.3455 9.07719 11.503 9.40497 11.6356C11.4221 12.4809 12.481 14.0886 12.876 16.1439C12.9937 16.7738 12.9853 17.4285 12.9937 18.0749C13.0021 24.9203 13.0021 31.7657 12.9937 38.6112C12.9937 40.3598 12.128 41.6527 10.6152 42.1996C10.3715 42.2908 10.1194 42.3571 9.86722 42.4317C7.62321 42.4317 5.38761 42.4317 3.1436 42.4317C2.98392 42.382 2.83263 42.3239 2.67295 42.2825C1.12652 41.8516 0.0675479 40.5587 0.0255253 38.9841C0.00031171 37.9647 0.0171207 36.9371 0.0171207 35.9178C0.0171207 29.9508 0.0339298 23.9921 0.000311711 18.0252C-0.00809281 16.7572 0.151593 15.5555 0.706291 14.4119C1.31982 13.1522 2.25272 12.2157 3.56383 11.6936C3.90841 11.5527 3.99246 11.3787 3.99246 11.0223C3.97565 7.62444 3.99246 4.22659 3.97565 0.828744C3.97565 0.464096 4.0681 0.182324 4.39587 0C5.79943 0 7.20298 0 8.59813 0ZM1.18535 21.4727C1.18535 25.4176 1.18535 29.3127 1.18535 33.1995C4.73206 33.1995 8.23674 33.1995 11.7414 33.1995C11.7414 29.2712 11.7414 25.3761 11.7414 21.4727C8.21152 21.4727 4.71525 21.4727 1.18535 21.4727ZM5.14388 3.96968C5.14388 4.12714 5.14388 4.28461 5.14388 4.45035C5.14388 6.87857 5.14388 9.30679 5.14388 11.7433C5.14388 12.1245 5.05983 12.4146 4.63961 12.5389C2.65614 13.1107 1.57196 14.4947 1.30301 16.434C1.12652 17.6771 1.21056 18.9617 1.17694 20.2296C1.17694 20.2545 1.21056 20.2711 1.21897 20.2959C4.72365 20.2959 8.22834 20.2959 11.8591 20.2959C11.775 18.8788 11.8255 17.4699 11.5901 16.1108C11.2876 14.4036 10.2454 13.1687 8.51409 12.5969C7.85854 12.3814 7.7913 12.2986 7.7913 11.6356C7.7913 9.24878 7.7913 6.862 7.7913 4.46693C7.7913 4.30947 7.7913 4.15201 7.7913 3.96968C6.88361 3.96968 6.05156 3.96968 5.14388 3.96968ZM1.17694 34.4094C1.17694 35.8929 1.17694 37.3349 1.17694 38.7852C4.71525 38.7852 8.22833 38.7852 11.7498 38.7852C11.7498 37.31 11.7498 35.868 11.7498 34.4094C8.21993 34.4094 4.72365 34.4094 1.17694 34.4094ZM11.4473 40.0283C8.09386 40.0283 4.83291 40.0283 1.47951 40.0283C2.00899 40.8405 2.70657 41.2383 3.59745 41.2549C5.50527 41.2797 7.40469 41.2797 9.31252 41.2549C10.2034 41.2383 10.9094 40.8488 11.4473 40.0283ZM7.76609 1.17682C6.89202 1.17682 6.03476 1.17682 5.17749 1.17682C5.17749 1.7155 5.17749 2.22932 5.17749 2.73485C6.05997 2.73485 6.90042 2.73485 7.76609 2.73485C7.76609 2.20446 7.76609 1.69892 7.76609 1.17682Z" fill="#008571"/>
</svg>
