<svg width="45" height="36" viewBox="0 0 45 36" fill="none" xmlns="http://www.w3.org/2000/svg">
<path d="M45 26.1549C44.9297 26.518 44.877 26.8898 44.7891 27.253C44.0332 30.3742 42.3193 32.8816 39.6826 34.7665C38.8916 35.3285 38.0303 35.7868 37.0459 35.8559C36.5273 35.8905 35.9912 35.7262 35.4639 35.6657C35.2617 35.6398 35.0332 35.5879 34.8574 35.6571C34.0225 35.977 33.2139 35.9943 32.3789 35.6744C30.0938 34.7924 28.5117 33.1324 27.2021 31.1783C26.9209 30.7633 26.6836 30.3137 26.4814 29.9592C25.752 30.2878 25.0576 30.6509 24.3193 30.9017C23.4492 31.2043 22.5527 31.1178 21.6914 30.7979C21.4277 30.7028 21.2783 30.746 21.085 30.9362C19.0107 32.9595 16.1367 32.9422 14.0361 30.9103C13.8691 30.746 13.7373 30.7028 13.5088 30.7893C11.8301 31.3772 10.3096 31.0227 8.93848 29.9765C8.74512 29.8295 8.60449 29.7777 8.3584 29.8901C6.6709 30.7028 5.0625 30.5212 3.55078 29.4664C1.87207 28.2905 0.975586 26.5872 0.457031 24.685C0.246094 23.9242 0.149414 23.1374 0 22.3679C0 21.7367 0 21.0969 0 20.4657C0.123047 19.7999 0.210937 19.1342 0.369141 18.4771C0.84375 16.5663 1.67871 14.837 3.27832 13.566C4.56152 12.5371 6.01172 12.1654 7.6377 12.6409C7.91016 12.7187 7.99805 12.6063 8.12109 12.4247C8.68359 11.5861 9.36914 10.8598 10.2568 10.3497C11.8477 9.44181 13.4473 9.45046 15.0557 10.3324C15.1787 10.4015 15.3018 10.4707 15.4863 10.5831C15.4863 10.1854 15.5215 9.83954 15.4775 9.51098C15.4248 9.13055 15.1436 8.98356 14.7568 8.94898C13.3154 8.81929 12.4277 7.53965 12.8496 6.25137C13.1396 5.39539 13.9482 4.82475 14.8887 4.83339C17.4287 4.85068 19.5469 6.86525 19.6699 9.38129C19.6875 9.75308 19.6699 10.1249 19.6699 10.5399C19.7578 10.5139 19.8193 10.5139 19.8545 10.488C22.0518 9.07003 24.5479 9.56286 26.2881 11.4823C26.5781 11.8022 26.8066 12.174 27.0967 12.5026C27.1758 12.589 27.3516 12.6323 27.4834 12.6409C27.624 12.6409 27.7646 12.5371 27.9053 12.5458C28.7578 12.6063 29.25 12.1913 29.5928 11.4564C29.7686 11.0846 30.0938 10.782 30.3574 10.4621C31.3506 9.26889 31.9219 7.89414 31.8691 6.37241C31.7988 4.40108 32.9502 2.62861 35.1562 2.11849C35.1562 1.68618 35.1475 1.24522 35.1562 0.804267C35.165 0.32008 35.4287 0.0174634 35.833 0.000170985C36.2549 -0.00847521 36.5273 0.311434 36.5361 0.812913C36.5449 1.21928 36.5449 1.61701 36.5449 2.02338C36.5449 2.04932 36.5625 2.07526 36.5625 2.0839C36.9844 2.25683 37.4062 2.37787 37.7842 2.58538C39.0586 3.31166 39.7881 4.40973 39.7881 5.86229C39.7881 7.78174 40.4473 9.38994 41.6689 10.8857C43.7344 13.4191 44.0859 16.2723 42.8994 19.2985C42.7852 19.6011 42.8115 19.774 43.0225 20.0161C44.0508 21.192 44.6748 22.5494 44.8857 24.0885C44.9033 24.1836 44.9473 24.2787 44.9736 24.3738C45 24.9444 45 25.5497 45 26.1549ZM34.4004 22.0047C34.4443 21.8923 34.4619 21.8664 34.4619 21.8405C34.4619 21.4687 34.4707 21.0882 34.4707 20.7164C34.4707 19.9642 34.4707 19.9642 33.7764 19.6875C31.3066 18.7192 28.626 19.7135 27.4658 22.0653C26.7188 23.5783 26.5166 25.1865 26.8682 26.8207C27.4131 29.3972 28.8105 31.481 30.8145 33.1843C31.5264 33.7895 32.3174 34.291 33.2578 34.4985C33.7676 34.6109 34.2334 34.559 34.6465 34.1786C35.0068 33.8414 35.332 33.8327 35.6924 34.1699C36.0967 34.5504 36.5713 34.6628 37.0723 34.4985C37.6436 34.3083 38.2324 34.0835 38.7422 33.7635C40.1133 32.9076 41.1504 31.723 42.0117 30.3742C43.3213 28.3164 43.998 26.1117 43.4443 23.6734C43.04 21.901 42.1875 20.4484 40.3945 19.7135C38.8652 19.0823 37.3623 19.2639 35.9033 19.9815C35.9033 20.63 35.9033 21.2784 35.9033 22.0393C36.2373 21.8232 36.5098 21.6675 36.7559 21.4773C37.1602 21.1747 37.5381 21.166 37.8105 21.4773C38.083 21.7886 38.0303 22.169 37.6611 22.5062C36.2988 23.7686 34.0752 23.7686 32.7041 22.5149C32.335 22.1777 32.2734 21.8059 32.5371 21.4946C32.8096 21.166 33.1875 21.1747 33.6182 21.4946C33.8467 21.6762 34.1191 21.8318 34.4004 22.0047ZM12.6475 23.1547C12.6475 24.6591 12.8145 25.8177 13.1836 26.9331C13.6494 28.3251 14.335 29.5788 15.5918 30.4521C16.8838 31.3426 18.3604 31.3167 19.6348 30.4002C20.4346 29.8295 21.0234 29.0773 21.4365 28.204C22.7725 25.4027 22.8516 22.5408 21.8232 19.6443C21.4102 18.4684 20.7686 17.4309 19.7578 16.6527C18.3779 15.5979 16.752 15.572 15.4072 16.67C14.8887 17.0937 14.4229 17.6298 14.0625 18.1831C13.0166 19.7913 12.665 21.5984 12.6475 23.1547ZM36.0879 18.4252C37.9951 17.7508 39.832 17.8632 41.7305 18.8575C41.8887 18.0275 42.1172 17.2666 42.1699 16.4885C42.3105 14.5431 41.6426 12.8484 40.3506 11.3699C39.2168 10.073 38.5928 8.5599 38.4697 6.8566C38.4346 6.35512 38.4609 5.83635 38.3467 5.35216C38.0566 4.08982 36.8613 3.29437 35.5605 3.41542C34.2686 3.54511 33.2666 4.5913 33.2666 5.9401C33.2666 8.12759 32.5723 10.0298 31.1045 11.6725C30.8408 11.9665 30.6475 12.321 30.4014 12.6755C32.792 13.713 33.917 15.6584 34.6641 17.9756C34.7607 17.794 34.8223 17.6643 34.8838 17.5433C35.6748 16.0648 36.9141 15.2693 38.6016 15.2088C38.8389 15.2002 39.1553 15.399 39.2959 15.5979C39.4014 15.7449 39.3486 16.108 39.2168 16.2637C39.0762 16.4279 38.7686 16.523 38.5312 16.5403C37.415 16.6354 36.334 17.4222 36.0879 18.4252ZM14.4932 15.6152C13.3945 14.3961 11.6104 14.1367 10.1953 14.9754C9.21973 15.5547 8.56934 16.4106 8.07715 17.3963C7.06641 19.4282 6.8291 21.5724 7.14551 23.7858C7.37402 25.3854 7.91016 26.8898 8.97363 28.1608C9.52734 28.8179 10.1865 29.3281 11.0303 29.5788C11.6543 29.7604 12.2783 29.8036 12.9023 29.5269C10.0195 24.8493 11.1885 18.2955 14.4932 15.6152ZM8.49023 14.5777C7.66406 13.9465 6.78516 13.6612 5.80078 13.8341C4.42969 14.0762 3.51562 14.9494 2.82129 16.0648C1.61719 18.0015 1.26562 20.1371 1.44141 22.3679C1.57324 24.0279 2.02148 25.5929 2.97949 26.9849C3.5332 27.789 4.21875 28.4461 5.15039 28.8006C5.99414 29.1205 6.82031 29.1033 7.68164 28.6882C6.15234 26.5094 5.50195 24.1144 5.65137 21.5205C5.80078 18.9267 6.55664 16.549 8.49023 14.5777ZM20.6631 15.6325C22.6846 17.4309 23.5547 19.7221 23.8271 22.2901C24.0908 24.858 23.5723 27.2616 22.2451 29.5183C22.3594 29.5615 22.4297 29.6047 22.5088 29.622C23.6426 29.8728 24.6094 29.5096 25.4971 28.8439C25.7959 28.6191 25.8486 28.4116 25.7432 28.0398C24.9258 25.1606 25.1631 22.4197 27.2197 20.0853C27.7647 19.4714 27.7646 18.9959 27.501 18.3387C26.9209 16.9381 26.1826 15.6584 24.7939 14.8889C23.4316 14.1453 21.6387 14.4653 20.6631 15.6325ZM33.2402 18.1399C33.0732 17.3704 32.5898 16.3674 32.0361 15.6325C31.4912 14.9149 30.8408 14.3269 29.9883 13.9984C28.8721 13.566 27.4307 13.8341 26.7188 14.6122C27.835 15.7276 28.5908 17.0764 29.0391 18.6068C30.4102 17.9842 31.7813 17.8546 33.2402 18.1399ZM19.3359 14.8457C19.0635 14.1367 18.7822 13.4882 18.5625 12.8052C18.2197 11.7158 18.3076 10.5831 18.29 9.46775C18.2549 7.74716 16.7959 6.26001 15.0732 6.17355C14.4932 6.14761 14.1504 6.38106 14.124 6.83066C14.0977 7.26297 14.3877 7.52236 14.9502 7.58288C15.9873 7.68664 16.7871 8.41292 16.8486 9.41587C16.9629 11.2143 16.8223 12.9868 15.8818 14.5949C15.8467 14.6555 15.8291 14.7333 15.7764 14.8716C17.0068 14.3788 18.167 14.3874 19.3359 14.8457ZM9.14941 13.3067C9.58887 13.739 9.58887 13.739 10.0898 13.5228C10.8984 13.177 11.7334 12.9781 12.6035 13.1856C13.2979 13.3499 13.9746 13.6093 14.7393 13.8514C14.8975 13.4277 15.0908 12.9349 15.249 12.4334C15.2842 12.3383 15.2402 12.1654 15.1611 12.0962C14.3086 11.2835 13.2891 10.8598 12.0938 11.0673C10.749 11.3094 9.8877 12.2172 9.14941 13.3067ZM20.4609 13.9724C20.6279 13.886 20.6895 13.8514 20.751 13.8168C20.8301 13.7736 20.9004 13.7303 20.9795 13.6871C22.3154 12.9954 23.6953 12.9003 25.0752 13.5315C25.4971 13.7217 25.7432 13.6698 25.9893 13.3067C25.5674 12.6236 25.0488 12.0357 24.3633 11.5861C22.9834 10.6955 21.2256 10.8684 20.0654 12.027C19.9688 12.1221 19.8809 12.3123 19.916 12.4247C20.0654 12.9349 20.2588 13.4277 20.4609 13.9724Z" fill="#008571"/>
</svg>
