<svg width="19" height="41" viewBox="0 0 19 41" fill="none" xmlns="http://www.w3.org/2000/svg">
<path d="M4.49789 40.1758C4.12388 39.909 4.08409 39.5873 4.22733 39.1557C4.93556 36.9665 5.60401 34.7693 6.30429 32.5801C6.5271 31.8896 6.48731 31.2618 6.12922 30.6184C5.76316 29.9671 5.44486 29.2922 5.06289 28.5546C4.89578 28.8999 4.75254 29.1981 4.6093 29.4963C4.52176 29.6846 4.42627 29.8729 4.33874 30.0612C4.21141 30.3516 4.06818 30.6105 3.69416 30.6027C3.32015 30.5948 3.17691 30.3202 3.06551 30.0377C2.58804 28.8057 2.07875 27.5895 1.65699 26.3418C0.948759 24.2781 0.439466 22.1516 0.0734122 20.0016C-0.0698263 19.1541 -0.00616477 18.3067 0.28827 17.4906C0.328058 17.3807 0.359889 17.263 0.415593 17.161C1.28298 15.4426 1.56946 13.6064 1.83206 11.7153C2.43685 7.36033 4.25916 3.53892 7.45815 0.415882C7.60935 0.274639 7.7685 0.141243 7.9197 0C8.05498 0 8.1823 0 8.31758 0C8.62793 0.368801 8.93033 0.74545 9.24068 1.11425C9.39983 1.30258 9.5749 1.47521 9.74201 1.65568C9.7818 1.63999 9.81363 1.63214 9.85342 1.61645C9.85342 1.38889 9.85342 1.16918 9.85342 0.941621C9.85342 0.651288 9.92504 0.384495 10.2274 0.266793C10.5219 0.156937 10.7606 0.282486 10.9755 0.494351C13.0922 2.55022 14.5882 4.99844 15.5352 7.76052C15.949 8.97678 16.1877 10.2558 16.522 11.5035C16.5697 11.6761 16.6732 11.8644 16.8084 11.9821C17.2222 12.3274 17.6679 12.6334 18.0896 12.9708C18.7024 13.4652 19.0366 14.1165 18.9968 14.8855C18.8854 17.4671 18.4955 20.0016 17.5326 22.4263C17.4291 22.6852 17.3337 22.9442 16.9994 22.9991C16.6493 23.054 16.4663 22.85 16.2832 22.6067C16.1241 22.387 15.949 22.1752 15.7501 21.9162C15.6944 22.0418 15.6466 22.1281 15.6228 22.2222C14.8031 25.1256 13.6652 27.9034 12.2328 30.5634C11.8667 31.2461 11.811 31.8974 12.0418 32.635C12.75 34.8086 13.4185 36.9978 14.1028 39.1793C14.2779 39.7285 14.2381 39.8462 13.7925 40.1837C13.689 40.1837 13.5776 40.1837 13.4742 40.1837C12.2726 39.501 11.0709 38.8262 9.86934 38.1435C9.46349 37.9159 9.02582 37.8453 8.61998 38.065C7.36266 38.7555 6.12922 39.4696 4.87986 40.1837C4.76049 40.1758 4.63317 40.1758 4.49789 40.1758ZM12.6147 38.3397C12.559 38.1356 12.5352 38.0179 12.4954 37.8924C11.9702 36.2053 11.4529 34.5182 10.9118 32.839C10.6014 31.8896 10.6969 31.0029 11.1664 30.1162C11.6439 29.2295 12.0975 28.3271 12.5033 27.4012C14.2381 23.4934 15.4795 19.4602 15.5909 15.1601C15.7023 10.5932 14.3256 6.48934 11.5484 2.83271C11.4131 2.65223 11.254 2.4796 11.1107 2.30697C11.0312 2.4796 11.0312 2.60515 11.0312 2.7307C11.0152 3.30352 10.5855 3.53892 10.0762 3.25644C9.92504 3.17797 9.77384 3.08381 9.64652 2.97395C9.08948 2.49529 8.54836 2.01664 7.99132 1.52229C7.98336 1.53013 7.95153 1.54583 7.9197 1.56937C6.32816 3.20151 5.15042 5.0926 4.28303 7.17986C4.24324 7.28187 4.31486 7.48588 4.4024 7.56435C5.62788 8.67076 7.06823 9.29066 8.73138 9.39266C10.0762 9.47898 11.3415 9.20434 12.5272 8.58444C12.7898 8.4432 13.0445 8.38827 13.2991 8.59229C13.6492 8.88262 13.5458 9.36913 13.0683 9.59668C9.96483 11.1033 7.00456 10.8679 4.18754 8.89047C4.05226 8.79631 3.91698 8.68645 3.75783 8.56875C3.161 10.3186 2.83473 12.0684 2.76311 13.8654C2.67558 16.3528 3.04959 18.7932 3.67029 21.1943C3.85332 21.9005 4.09205 22.5989 4.25916 23.3051C4.29895 23.4934 4.20346 23.7916 4.06818 23.9172C3.94085 24.027 3.6305 24.0349 3.46339 23.9642C3.30424 23.8936 3.17691 23.6582 3.12917 23.4699C2.73128 21.9005 2.34931 20.3312 1.9753 18.7539C1.91164 18.5028 1.87981 18.2361 1.84798 17.985C1.80819 17.726 1.77636 17.4749 1.74453 17.216C1.32277 17.9693 1.09995 18.7304 1.23524 19.57C1.66495 22.5204 2.46868 25.3453 3.52705 28.0995C3.58276 28.2486 3.64642 28.3899 3.72599 28.5703C4.15571 27.7857 4.67296 27.0794 4.07613 26.2163C4.06022 26.1927 4.0443 26.1614 4.05226 26.1457C4.14775 25.9416 4.1955 25.6592 4.35465 25.5728C4.51381 25.4865 4.80824 25.5493 4.99923 25.6356C5.12655 25.6905 5.18225 25.9103 5.25387 26.0594C5.87457 27.3855 6.46344 28.7351 7.13189 30.0299C7.63322 31.0029 7.72076 31.9445 7.38653 32.9803C6.85337 34.6046 6.35203 36.2445 5.84274 37.8767C5.80295 38.0022 5.77908 38.1278 5.74725 38.2847C7.04435 37.7825 8.00723 36.6526 9.52715 36.7938C9.34413 35.9856 9.16906 35.2245 8.99399 34.4633C8.92237 34.1416 8.9542 33.8591 9.28047 33.6865C9.64652 33.4981 10.0205 33.7179 10.1319 34.173C10.3548 35.1303 10.5617 36.0876 10.7924 37.0371C10.8243 37.1705 10.88 37.3431 10.9755 37.4059C11.4847 37.7198 12.0179 38.0101 12.6147 38.3397ZM16.7448 21.2178C16.8084 21.0217 16.8721 20.8647 16.9199 20.7078C17.4451 18.9344 17.7077 17.1218 17.835 15.2778C17.8987 14.3676 17.636 13.8889 16.7607 13.4652C16.7607 13.6221 16.7607 13.7555 16.7607 13.8968C16.8244 15.8742 16.6572 17.8437 16.2116 19.7662C16.0525 20.4253 16.323 20.7941 16.7448 21.2178Z" fill="#008571"/>
<path d="M9.16105 13.4096C7.90374 13.4096 6.63846 13.4096 5.38115 13.4096C4.90369 13.4096 4.63312 13.2056 4.62517 12.8525C4.61721 12.4758 4.89573 12.2561 5.3891 12.2561C7.93557 12.2561 10.482 12.2561 13.0285 12.2561C13.4821 12.2561 13.7447 12.4523 13.7606 12.7975C13.7845 13.1663 13.5139 13.4017 13.0524 13.4096C11.7553 13.4096 10.4582 13.4096 9.16105 13.4096Z" fill="#008571"/>
<path d="M9.75145 6.26225C9.7435 7.26665 8.92385 8.07487 7.90527 8.07487C6.87077 8.07487 6.02725 7.23526 6.03521 6.23087C6.04317 5.23432 6.88668 4.4104 7.88935 4.4104C8.92385 4.4104 9.75145 5.24217 9.75145 6.26225ZM7.89731 5.57173C7.53126 5.57173 7.21295 5.87776 7.20499 6.23871C7.19703 6.61536 7.5233 6.92923 7.91323 6.92139C8.2952 6.91354 8.58167 6.62321 8.58167 6.24656C8.57372 5.86991 8.27132 5.57173 7.89731 5.57173Z" fill="#008571"/>
<path d="M9.19167 20.9508C8.0776 20.9508 6.96352 20.9508 5.84944 20.9508C5.35606 20.9508 5.10938 20.7546 5.10938 20.3858C5.10938 20.017 5.36402 19.8052 5.84944 19.8052C8.0776 19.8052 10.3058 19.8052 12.5339 19.8052C13.0193 19.8052 13.274 20.017 13.274 20.3858C13.274 20.7625 13.0273 20.9587 12.5339 20.9587C11.4198 20.9508 10.3058 20.9508 9.19167 20.9508Z" fill="#008571"/>
<path d="M7.32372 17.1757C6.6314 17.1757 5.94704 17.1757 5.25472 17.1757C4.82501 17.1757 4.58628 16.9717 4.57832 16.6264C4.57036 16.2576 4.80909 16.0301 5.25472 16.0222C6.6314 16.0144 8.00808 16.0144 9.38476 16.0222C9.83835 16.0222 10.085 16.242 10.085 16.6029C10.085 16.9639 9.83835 17.1757 9.39272 17.1757C8.7004 17.1836 8.00808 17.1757 7.32372 17.1757Z" fill="#008571"/>
<path d="M9.17674 28.4925C8.85843 28.4925 8.54012 28.5004 8.22977 28.4925C7.88759 28.4768 7.6966 28.2885 7.67273 27.9511C7.65682 27.6215 7.86372 27.3861 8.22181 27.3704C8.86638 27.3547 9.51892 27.3547 10.1635 27.3704C10.5295 27.3783 10.7364 27.6137 10.7205 27.9511C10.7046 28.2885 10.5057 28.469 10.1714 28.4925C10.1476 28.4925 10.1157 28.5004 10.0919 28.5004C9.78152 28.5004 9.47913 28.5004 9.17674 28.4925C9.17674 28.5004 9.17674 28.4925 9.17674 28.4925Z" fill="#008571"/>
<path d="M10.8253 24.7184C10.6025 24.7184 10.3717 24.7263 10.1489 24.7184C9.82265 24.7106 9.6237 24.5458 9.59187 24.2241C9.56004 23.8867 9.7192 23.6356 10.0614 23.612C10.5866 23.5728 11.1198 23.5806 11.645 23.612C11.9633 23.6356 12.1383 23.8788 12.1145 24.1927C12.0906 24.5144 11.8916 24.7184 11.5415 24.7263C11.3028 24.7263 11.064 24.7184 10.8253 24.7184Z" fill="#008571"/>
<path d="M12.647 17.1758C12.464 17.1758 12.281 17.1837 12.09 17.1758C11.7558 17.168 11.5409 17.011 11.5011 16.6658C11.4613 16.3362 11.6603 16.0616 12.0025 16.038C12.4322 16.0067 12.8778 15.9988 13.3075 16.038C13.6338 16.0694 13.8248 16.2891 13.8089 16.6344C13.785 16.9718 13.5781 17.1444 13.2439 17.168C13.0449 17.1837 12.846 17.1758 12.647 17.1758Z" fill="#008571"/>
<path d="M7.20346 24.7179C7.08409 24.7179 6.96473 24.7179 6.84536 24.7179C6.49522 24.7022 6.29628 24.506 6.27241 24.1843C6.25649 23.8548 6.44748 23.635 6.7817 23.5958C7.06818 23.5644 7.36261 23.5644 7.64909 23.5958C7.98331 23.6272 8.1743 23.8391 8.15838 24.1843C8.14246 24.5217 7.93556 24.7022 7.59338 24.7179C7.46606 24.7257 7.33078 24.7179 7.20346 24.7179Z" fill="#008571"/>
</svg>
