<svg width="28" height="37" viewBox="0 0 28 37" fill="none" xmlns="http://www.w3.org/2000/svg">
<path d="M7.64417 36.8648C7.32289 36.6704 6.91399 36.5336 6.69493 36.2528C6.44666 35.9432 6.32253 35.5112 6.22031 35.1152C6.09617 34.64 6.06697 34.1432 5.95744 33.668C5.92823 33.5384 5.78949 33.3872 5.66536 33.344C5.0301 33.128 4.6431 32.7103 4.51897 32.0695C4.2415 30.6079 3.98593 29.1463 3.70116 27.6846C3.65004 27.4326 3.52591 27.159 3.35067 26.9718C-1.12539 22.1549 -1.11809 14.6739 3.37987 9.87142C3.54051 9.69862 3.65734 9.44661 3.70116 9.21621C3.98593 7.76898 4.2488 6.32174 4.51167 4.86731C4.6358 4.17609 5.0155 3.72248 5.70917 3.51368C5.8187 3.47768 5.94283 3.31928 5.97204 3.19687C6.08887 2.65686 6.1765 2.10965 6.25682 1.56964C6.35904 0.792018 6.78255 0.280806 7.55655 0.0648015C7.58576 0.0576013 7.61497 0.0216005 7.63687 0C11.0907 0 14.5518 0 18.0055 0C18.9694 0.302407 19.4148 0.993623 19.4732 1.95844C19.4805 2.07365 19.517 2.19605 19.5316 2.31125C19.5828 2.62086 19.6193 2.93047 19.6923 3.23287C19.7215 3.34088 19.8383 3.48488 19.9478 3.51368C20.6415 3.72248 21.0212 4.17609 21.1454 4.86731C21.4082 6.31454 21.693 7.76178 21.934 9.21621C21.9997 9.61222 22.2479 9.84982 22.4962 10.1018C22.54 10.1522 22.6934 10.145 22.7737 10.1018C23.0146 9.98663 23.2337 9.83542 23.4747 9.72022C24.2341 9.33861 25.103 9.56182 25.5557 10.2674C25.8332 10.6994 26.096 11.1531 26.337 11.6067C26.7532 12.3771 26.5122 13.2339 25.7528 13.7091C25.49 13.8747 25.2125 14.0259 24.9277 14.1915C25.0665 14.6523 25.1979 15.0915 25.3366 15.5596C25.6725 15.5596 26.0011 15.5596 26.3297 15.5596C27.3081 15.5668 27.9872 16.2292 27.9945 17.1868C28.0018 18.0148 28.0018 18.8428 27.9945 19.6708C27.9872 20.6285 27.3081 21.2909 26.3297 21.3053C26.0011 21.3125 25.6725 21.3053 25.3366 21.3053C25.1979 21.7589 25.0665 22.1909 24.9204 22.6733C25.1468 22.8029 25.3878 22.9397 25.6214 23.0765C26.5488 23.6165 26.7824 24.4806 26.2494 25.4094C26.0303 25.7838 25.8186 26.1654 25.5922 26.5254C25.103 27.3102 24.2341 27.5334 23.4089 27.1014C23.1388 26.9646 22.8832 26.8062 22.6057 26.655C22.2698 26.9646 21.9997 27.2598 21.9194 27.7494C21.693 29.1823 21.4082 30.6007 21.1381 32.0263C21.0139 32.7031 20.6269 33.1424 19.9478 33.344C19.8383 33.38 19.7142 33.5384 19.685 33.6608C19.5682 34.2008 19.4805 34.748 19.4002 35.288C19.2834 36.0656 18.8599 36.5768 18.0786 36.7928C18.0494 36.8 18.0202 36.836 17.9982 36.8576C14.5518 36.8648 11.098 36.8648 7.64417 36.8648ZM1.13089 18.4036C1.12359 24.7542 6.33714 29.9383 12.7701 29.9599C19.225 29.9815 24.4969 24.8334 24.5188 18.4756C24.5407 12.1107 19.3126 6.91936 12.865 6.90496C6.40285 6.89056 1.1455 12.0459 1.13089 18.4036ZM5.0228 28.5486C5.22725 29.6719 5.4317 30.7519 5.62885 31.8319C5.68727 32.1415 5.87712 32.2639 6.1984 32.2639C10.616 32.2567 15.0264 32.2567 19.444 32.2639C19.8018 32.2639 19.9844 32.1055 20.0428 31.7743C20.0647 31.6591 20.0866 31.5367 20.1085 31.4215C20.2837 30.4711 20.459 29.5207 20.6342 28.5486C15.4134 31.9615 10.2509 31.9615 5.0228 28.5486ZM5.0228 8.31619C10.2436 4.91051 15.4134 4.90331 20.6196 8.31619C20.4152 7.20736 20.218 6.13454 20.0209 5.06172C19.9625 4.73771 19.7799 4.5937 19.4367 4.6009C18.9037 4.6153 18.3633 4.6009 17.8303 4.6009C13.9749 4.6009 10.1195 4.6009 6.26412 4.5937C5.91363 4.5937 5.67267 4.68731 5.60695 5.05451C5.4317 6.12734 5.22725 7.20016 5.0228 8.31619ZM18.5678 3.44888C18.4729 2.87287 18.3925 2.32565 18.2976 1.77124C18.2173 1.30323 18.0275 1.14483 17.5236 1.14483C16.1582 1.14483 14.8 1.14483 13.4346 1.14483C11.6602 1.14483 9.87855 1.14483 8.10419 1.14483C7.761 1.14483 7.48353 1.23843 7.41051 1.59124C7.28638 2.19605 7.19146 2.81526 7.08193 3.44888C10.9227 3.44888 14.727 3.44888 18.5678 3.44888ZM18.5678 33.4232C14.7124 33.4232 10.9081 33.4232 7.07463 33.4232C7.17685 34.0424 7.27178 34.6328 7.38131 35.2232C7.44702 35.5688 7.68068 35.7272 8.03117 35.7272C8.45468 35.7272 8.88549 35.7272 9.309 35.7272C12.0472 35.7272 14.7854 35.7272 17.5236 35.7272C17.969 35.7272 18.1735 35.5976 18.2465 35.2304C18.3779 34.6328 18.4656 34.0424 18.5678 33.4232ZM25.6141 20.1677C25.8624 20.1677 26.1325 20.1749 26.3954 20.1677C26.6875 20.1533 26.8481 19.9949 26.8481 19.7068C26.8554 18.8572 26.8554 18.0076 26.8481 17.1508C26.8481 16.8988 26.7094 16.726 26.4611 16.7044C26.1618 16.6756 25.8624 16.6972 25.6141 16.6972C25.6141 17.8708 25.6141 18.994 25.6141 20.1677ZM24.5188 13.1187C24.7452 12.9891 24.9715 12.8739 25.1833 12.7371C25.4097 12.5931 25.4754 12.3771 25.3439 12.1395C25.1103 11.7219 24.8693 11.3043 24.6138 10.8938C24.4896 10.685 24.2852 10.5986 24.0515 10.7138C23.8032 10.8362 23.5769 10.9802 23.3432 11.1099C23.7375 11.7867 24.1099 12.4275 24.5188 13.1187ZM23.3359 25.755C23.555 25.8846 23.774 26.0142 24.0004 26.1294C24.2414 26.2518 24.4604 26.2014 24.5991 25.971C24.862 25.5534 25.1249 25.1358 25.3293 24.6894C25.3951 24.5526 25.3147 24.2718 25.1979 24.1637C25.0081 23.9765 24.7379 23.8757 24.5115 23.7461C24.1099 24.4374 23.7302 25.0854 23.3359 25.755Z" fill="#008571"/>
<path d="M22.7435 18.4324C22.7435 23.8109 18.2894 28.2102 12.8349 28.2174C7.36578 28.2246 2.88973 23.8037 2.90433 18.418C2.91894 13.0322 7.37308 8.64735 12.8349 8.65455C18.2894 8.65455 22.7435 13.0466 22.7435 18.4324ZM21.5533 19.0444C21.5314 19.03 21.5095 19.0156 21.4876 19.0084C21.2175 19.0012 20.9546 18.994 20.6844 18.994C20.1222 18.994 19.8374 18.7996 19.8447 18.418C19.852 18.0436 20.1295 17.8564 20.699 17.8564C20.9838 17.8564 21.2686 17.8564 21.5606 17.8564C21.2613 13.0899 17.1284 9.90018 13.4336 9.83538C13.4263 9.85698 13.4044 9.87858 13.4044 9.90018C13.3971 10.2098 13.3971 10.5266 13.3971 10.8362C13.3898 11.2394 13.1708 11.4914 12.8349 11.4986C12.4844 11.5058 12.258 11.2394 12.2507 10.8146C12.2434 10.4834 12.2507 10.1522 12.2507 9.81378C8.01565 9.97938 4.29169 13.5651 4.10184 17.806C4.12375 17.8204 4.14565 17.842 4.16756 17.842C4.48154 17.8492 4.80282 17.8492 5.1168 17.8564C5.54761 17.8636 5.81778 18.0868 5.81048 18.4324C5.80318 18.7708 5.54031 18.9868 5.1022 18.994C4.76631 18.994 4.43043 18.994 4.09454 18.994C4.37931 23.7101 8.47567 26.943 12.258 27.015C12.258 26.6838 12.2507 26.3454 12.258 26.0141C12.2653 25.6109 12.4844 25.3589 12.8203 25.3517C13.1708 25.3445 13.3971 25.6109 13.4044 26.0285C13.4117 26.3598 13.4044 26.691 13.4044 27.0294C17.6249 26.871 21.3562 23.2997 21.5533 19.0444Z" fill="#008571"/>
<path d="M12.8287 17.6116C12.9383 17.5108 13.0405 17.4244 13.1354 17.3308C14.3986 16.0852 15.6619 14.8396 16.9324 13.5939C17.0273 13.5003 17.1222 13.4067 17.2318 13.3347C17.4727 13.1907 17.7064 13.2339 17.8962 13.4211C18.0861 13.6083 18.1372 13.8388 17.9985 14.0764C17.9327 14.1916 17.8378 14.2852 17.7429 14.3788C16.2971 15.8044 14.8513 17.23 13.4056 18.6557C12.9456 19.1093 12.7119 19.1093 12.2446 18.6557C11.3684 17.7916 10.4775 16.9348 9.6232 16.0492C9.47716 15.898 9.34573 15.6244 9.36763 15.43C9.42605 14.9548 9.9956 14.8468 10.3753 15.214C11.0982 15.9124 11.8065 16.618 12.522 17.3236C12.617 17.4244 12.7119 17.5108 12.8287 17.6116Z" fill="#008571"/>
</svg>
