<svg width="35" height="31" viewBox="0 0 35 31" fill="none" xmlns="http://www.w3.org/2000/svg">
<path d="M34.9932 5.78991C34.4055 7.3801 33.3259 8.66707 32.2872 9.96078C30.7907 11.8138 29.2191 13.6061 27.6952 15.4321C27.5791 15.5736 27.4834 15.7825 27.4834 15.9644C27.3194 23.1068 21.8255 29.4203 14.671 30.7006C10.3661 31.4687 6.47111 30.5119 2.95881 27.9986C1.63315 27.0485 0.635494 25.8222 0.198165 24.2185C0.122999 23.9423 0.0683327 23.6525 0.00683327 23.3695C0.00683327 23.0326 0.00683327 22.6957 0.00683327 22.3588C0.0683327 22.0691 0.122999 21.7726 0.191332 21.4829C0.498829 20.1757 1.33932 19.2458 2.38481 18.4575C2.85631 18.1071 3.3278 17.75 3.7788 17.3794C4.17513 17.0492 4.46896 16.6382 4.58512 16.1261C4.81062 15.1491 4.57829 14.2934 3.80613 13.6263C3.23214 13.1344 2.61031 12.6964 2.02265 12.2248C1.11382 11.4971 0.450996 10.6076 0.177665 9.4689C0.109332 9.1859 0.0614994 8.9029 0 8.6199C0 8.26279 0 7.89893 0 7.54181C0.0204998 7.51486 0.0478329 7.48791 0.0478329 7.45422C0.273331 5.71579 1.19582 4.3547 2.54198 3.30356C6.13627 0.507261 10.2089 -0.597784 14.712 0.311856C20.2196 1.43038 24.0736 4.61749 26.3286 9.698C26.3696 9.79233 26.4242 9.88666 26.4789 10.0079C26.5951 9.91361 26.6839 9.84623 26.7727 9.77211C28.3444 8.53231 29.9024 7.27229 31.5082 6.07291C32.1369 5.60125 32.8407 5.21044 33.5513 4.8668C34.2347 4.53663 34.6515 4.7253 35 5.37889C34.9932 5.52039 34.9932 5.65515 34.9932 5.78991ZM26.0963 17.3053C26.0689 17.2783 26.0416 17.2581 26.0074 17.2312C25.9459 17.3188 25.8913 17.4198 25.8161 17.5007C24.5929 18.8011 23.3834 20.1151 22.1261 21.3886C21.5863 21.9343 21.19 22.5071 20.9508 23.255C20.3426 25.1349 19.1263 26.5095 17.1652 27.1092C14.9922 27.783 12.867 27.4326 10.7829 26.6847C10.4754 26.5769 10.3456 26.3276 10.3934 26.0109C10.4412 25.6672 10.6736 25.4988 11.0016 25.4786C11.7464 25.4179 12.1906 25.0136 12.3819 24.3264C12.539 23.7738 12.6689 23.2213 12.785 22.6621C13.3385 20.014 14.4729 18.8887 17.1242 18.3699C17.2472 18.3429 17.377 18.2756 17.4727 18.188C20.0625 15.8229 22.6386 13.4511 25.2284 11.0793C25.3788 10.9445 25.4061 10.8367 25.3378 10.6481C23.4108 5.30477 17.9852 1.4169 12.2726 1.25519C9.90141 1.18781 7.70109 1.76054 5.59645 2.79147C4.23663 3.45854 3.02714 4.32101 2.12515 5.55408C0.833659 7.31272 0.956657 9.87319 2.84947 11.2747C3.34147 11.6386 3.82663 12.0092 4.30496 12.3865C4.94045 12.8918 5.47345 13.4848 5.73311 14.2731C6.25927 15.8566 5.76728 17.3929 4.35279 18.5316C3.81296 18.9628 3.2458 19.3604 2.71281 19.7984C1.53065 20.7687 1.11382 22.0287 1.33932 23.5043C1.53065 24.798 2.26181 25.802 3.2458 26.5971C6.48477 29.2115 10.1952 30.2357 14.3157 29.4608C19.0033 28.5781 22.4541 25.9839 24.6749 21.8198C25.4471 20.4183 25.8913 18.8955 26.0963 17.3053ZM20.7321 21.0517C25.1533 16.4293 29.5402 11.7666 33.2644 6.55131C33.2234 6.51089 33.1824 6.47046 33.1414 6.43003C27.8866 10.1494 23.1853 14.5022 18.5182 18.9224C19.2698 19.6501 19.9805 20.3307 20.7321 21.0517ZM12.8465 26.0109C13.359 26.0783 13.7827 26.1524 14.2132 26.1861C16.9602 26.3882 19.0922 25.3303 19.9053 22.3993C19.9395 22.2847 19.9053 22.1028 19.8233 22.0219C19.0717 21.2538 18.3063 20.4991 17.541 19.7512C17.4658 19.6771 17.3223 19.6232 17.2198 19.6367C15.6619 19.859 14.6095 20.6676 14.2064 22.2106C14.1585 22.406 14.1107 22.6014 14.0629 22.7968C13.81 23.8884 13.6939 25.0339 12.8465 26.0109Z" fill="#008571"/>
<path d="M3.7522 8.9971C3.7727 7.45408 5.03003 6.2547 6.61534 6.26818C8.1665 6.28839 9.39648 7.5282 9.37598 9.05774C9.35548 10.6008 8.09816 11.8069 6.51284 11.7867C4.96853 11.7664 3.7317 10.5199 3.7522 8.9971ZM6.57434 7.52146C5.71335 7.51472 5.01636 8.18179 5.00953 9.01731C5.00269 9.83936 5.69969 10.5266 6.56068 10.5334C7.41484 10.5401 8.11866 9.87305 8.1255 9.03753C8.13233 8.20875 7.43534 7.5282 6.57434 7.52146Z" fill="#008571"/>
<path d="M20.4726 14.0912C18.9282 14.0844 17.6573 12.8379 17.6641 11.3286C17.6709 9.79901 18.9487 8.55921 20.5067 8.56595C22.0442 8.56595 23.3084 9.81923 23.3015 11.3353C23.3015 12.8783 22.051 14.0979 20.4726 14.0912ZM22.0374 11.3286C22.0374 10.4863 21.3472 9.82597 20.4862 9.82597C19.6321 9.82597 18.9351 10.5065 18.9351 11.342C18.9351 12.1641 19.6457 12.8514 20.4999 12.8514C21.3404 12.8581 22.0374 12.1641 22.0374 11.3286Z" fill="#008571"/>
<path d="M14.1109 4.13911C15.6962 4.17954 16.9536 5.42609 16.9194 6.93541C16.8852 8.4717 15.6074 9.69803 14.0836 9.67107C12.4641 9.63738 11.2478 8.39084 11.282 6.80739C11.3161 5.31828 12.6076 4.10542 14.1109 4.13911ZM14.0904 5.38566C13.2431 5.38566 12.5461 6.05946 12.5393 6.89499C12.5324 7.72377 13.2226 8.40432 14.0768 8.41779C14.9173 8.43127 15.6347 7.74398 15.6484 6.92194C15.6689 6.09315 14.9514 5.3924 14.0904 5.38566Z" fill="#008571"/>
<path d="M10.1883 22.8238C10.1815 24.3534 8.89685 25.5999 7.33887 25.573C5.79455 25.5528 4.53723 24.2995 4.55089 22.7901C4.56456 21.2673 5.85605 20.0208 7.4072 20.041C8.95835 20.0612 10.1952 21.2943 10.1883 22.8238ZM8.91735 22.8171C8.92418 21.9816 8.23402 21.301 7.3867 21.2876C6.53937 21.2808 5.82871 21.9546 5.81505 22.7767C5.80138 23.6122 6.51204 24.3197 7.37303 24.3197C8.22036 24.3197 8.91735 23.6459 8.91735 22.8171Z" fill="#008571"/>
</svg>
