<?xml version="1.0" encoding="UTF-8"?>
<svg width="464px" height="14px" viewBox="0 0 464 14" version="1.1" xmlns="http://www.w3.org/2000/svg" xmlns:xlink="http://www.w3.org/1999/xlink">
    <title>Line 6 Copy</title>
    <g id="Home-Page" stroke="none" stroke-width="1" fill="none" fill-rule="evenodd" stroke-linecap="square">
        <g id="New-About-Page---2023" transform="translate(-443.000000, -4525.000000)" stroke="#039D85" stroke-width="2">
            <path d="M444,4526.63362 C460.5,4526.63362 460.5,4537.63362 477,4537.63362 C493.5,4537.63362 493.5,4526.63362 510,4526.63362 C526.5,4526.63362 526.5,4537.63362 543,4537.63362 C559.5,4537.63362 559.5,4526.63362 576,4526.63362 C592.5,4526.63362 592.5,4537.63362 609,4537.63362 C625.5,4537.63362 625.5,4526.63362 642,4526.63362 C658.5,4526.63362 658.5,4537.63362 675,4537.63362 C691.5,4537.63362 691.5,4526.63362 708,4526.63362 C724.5,4526.63362 724.5,4537.63362 741,4537.63362 C757.5,4537.63362 757.5,4526.63362 774,4526.63362 C790.5,4526.63362 790.5,4537.63362 807,4537.63362 C823.5,4537.63362 823.5,4526.63362 840,4526.63362 C856.5,4526.63362 856.5,4537.63362 873,4537.63362 C889.5,4537.63362 889.5,4526.63362 906,4526.63362" id="Line-6-Copy"></path>
        </g>
    </g>
</svg>