<svg width="59" height="39" viewBox="0 0 59 39" fill="none" xmlns="http://www.w3.org/2000/svg">
<path d="M58.9883 28.9191C58.7246 30.0926 58.4243 31.2661 57.6331 32.2005C57.4337 32.43 57.2828 32.6981 57.1896 32.9885C57.0964 33.2788 57.0629 33.5854 57.0911 33.8893C57.1241 34.6629 57.1069 35.4379 57.0398 36.2092C56.9153 37.612 55.7701 38.8299 54.3856 38.9211C52.8736 39.0202 51.357 39.0292 49.8439 38.9483C48.0151 38.8398 46.9358 37.6268 46.8284 35.7728C46.8162 35.5658 46.8284 35.3562 46.8284 35.1195H12.2264C12.1971 35.4844 12.1775 35.8296 12.1409 36.1722C12.0799 36.8836 11.7717 37.5503 11.2707 38.0542C10.7698 38.5582 10.1084 38.8671 9.40369 38.9261C7.92995 39.0247 6.4517 39.0346 4.9768 38.9557C3.06979 38.8423 1.9588 37.5775 1.91485 35.6446C1.89776 34.8902 1.93682 34.1334 1.89775 33.379C1.8824 33.081 1.78143 32.794 1.60718 32.553C0.599484 31.3137 0.0427741 29.7632 0.029809 28.1597C0.0151585 25.6031 -0.0336765 23.0416 0.029809 20.4874C0.117712 17.5438 1.25069 15.0069 3.26025 12.8743L5.67026 10.3177C5.22342 10.1032 4.63251 9.93063 4.18567 9.57808C3.55672 9.11553 3.01084 8.54769 2.57168 7.89915C1.99298 6.9623 2.3275 5.96875 3.28467 5.43376C4.57241 4.71255 6.07093 4.47333 7.51622 4.75824C8.35863 4.90617 8.83965 5.49786 9.00813 6.32623C9.05452 6.55305 9.08139 6.78479 9.1351 7.11269C9.328 6.93272 9.47451 6.79712 9.62345 6.65906C11.1585 5.16832 12.6935 3.67676 14.2286 2.18437C14.9186 1.49345 15.7374 0.947484 16.6376 0.578055C17.5379 0.208625 18.5017 0.0230601 19.4735 0.0320903C26.172 0.017298 32.8697 0.017298 39.5666 0.0320903C40.5287 0.0248402 41.4827 0.209005 42.3742 0.574067C43.2658 0.939129 44.0774 1.47794 44.7627 2.15972C46.3181 3.65868 47.8612 5.16996 49.402 6.67385C49.5363 6.80452 49.6779 6.92039 49.8562 7.0905C49.8879 6.94011 49.9074 6.84396 49.9245 6.7626C50.1858 5.21434 50.8622 4.62511 52.42 4.64976C53.5188 4.66702 54.6176 4.80755 55.5943 5.3524C56.7321 5.98108 57.0178 7.10283 56.3097 8.19993C55.6871 9.16389 54.7738 9.74819 53.7263 10.1451L53.299 10.3054C53.2844 10.3054 53.2771 10.3374 53.2819 10.33C54.0291 11.1091 54.747 11.9029 55.5186 12.6524C57.3475 14.4398 58.3876 16.6365 58.8638 19.1339C58.898 19.3016 58.9468 19.4692 58.9883 19.627V28.9191ZM9.45497 10.902L9.59171 11.0622H49.5265C49.3361 10.8576 49.2115 10.7171 49.0772 10.5864C47.0392 8.59275 44.9995 6.59825 42.9582 4.60292C42.4902 4.12745 41.9324 3.75157 41.318 3.49749C40.7036 3.24342 40.045 3.11631 39.3811 3.12369C32.7981 3.12369 26.216 3.12369 19.6346 3.12369C18.9713 3.11335 18.3127 3.23716 17.6975 3.48782C17.0823 3.73848 16.523 4.11092 16.0526 4.5832C14.0113 6.57523 11.9708 8.56891 9.93112 10.5642C9.78643 10.6913 9.63028 10.8043 9.46473 10.902H9.45497ZM16.0135 20.2927C16.0355 21.9174 16.3822 23.3695 17.3491 24.6293C17.6518 25.0555 18.0534 25.4002 18.5187 25.6331C18.984 25.8661 19.4988 25.9802 20.018 25.9655C26.3494 25.9655 32.6809 25.9655 39.0123 25.9507C39.4693 25.9494 39.9224 25.8659 40.3504 25.7042C41.2783 25.3442 41.8423 24.5775 42.2648 23.7097C42.7991 22.6579 43.0517 21.4833 42.9973 20.3025L16.0135 20.2927ZM17.1074 28.3422C17.21 30.4131 18.6164 31.7271 20.7139 31.7296C26.5838 31.7395 32.453 31.7395 38.3213 31.7296C38.5338 31.7296 38.7438 31.7296 38.9538 31.7025C40.6093 31.5472 42.0206 29.9299 41.8716 28.3397L17.1074 28.3422ZM7.87028 22.7876V22.7285C8.48275 22.7605 9.09644 22.7605 9.70891 22.7285C10.5842 22.6503 11.4526 22.5069 12.3069 22.2995C13.3837 22.0184 13.6133 21.2862 12.9857 20.374C12.7915 20.0861 12.5663 19.8207 12.3143 19.5826C10.6867 18.0715 8.77764 16.9024 6.69823 16.1434C6.14311 15.9133 5.53141 15.8609 4.94581 15.9931C4.36021 16.1254 3.82895 16.436 3.42385 16.883C2.95065 17.3317 2.6223 17.9139 2.48162 18.5538C2.34094 19.1937 2.39445 19.8615 2.63517 20.4702C3.06247 21.7029 3.92196 22.4844 5.22342 22.6446C6.10245 22.7507 6.97904 22.7433 7.86784 22.7876H7.87028ZM51.1552 22.8789L51.1723 22.7852C52.0318 22.7433 52.8986 22.7482 53.7532 22.6496C55.0815 22.4992 55.9508 21.7053 56.3903 20.4578C56.6295 19.8487 56.681 19.1809 56.5381 18.5418C56.3952 17.9026 56.0645 17.3219 55.5894 16.8756C55.1747 16.424 54.6324 16.1123 54.0361 15.9826C53.4398 15.8529 52.8185 15.9116 52.2564 16.1508C50.579 16.7704 49.0123 17.6604 47.6171 18.7863C47.0029 19.2777 46.4532 19.846 45.9811 20.4776C45.4146 21.2418 45.6734 21.91 46.5574 22.2551C46.7134 22.3238 46.8775 22.3718 47.0457 22.3981C48.4204 22.5633 49.7878 22.7186 51.1527 22.8789H51.1552ZM14.9758 31.7025C13.5913 30.0975 12.2898 28.5887 10.9884 27.0971C10.8502 26.9727 10.6705 26.9058 10.4854 26.9098C8.62151 26.895 6.76009 26.895 4.9011 26.9098C4.80924 26.9082 4.71812 26.9265 4.63387 26.9635C4.54963 27.0005 4.47422 27.0553 4.41275 27.1243C3.9244 27.965 3.69977 28.85 4.25405 29.7524C4.60791 30.3352 5.10088 30.819 5.68785 31.1597C6.27481 31.5004 6.93702 31.687 7.61388 31.7025C9.88959 31.8208 12.1775 31.7321 14.4508 31.7271C14.59 31.7296 14.7169 31.7148 14.9758 31.7025ZM44.0643 31.737H44.7822C46.8333 31.737 48.8868 31.7173 50.9403 31.7518C52.1612 31.7715 53.1843 31.2932 54.095 30.5585C55.1596 29.6981 55.3428 28.5591 54.7323 27.3338C54.6777 27.1921 54.5781 27.0726 54.4491 26.9941C54.3201 26.9156 54.169 26.8825 54.0193 26.8999C52.2344 26.9147 50.4495 26.8999 48.667 26.9221C48.3763 26.9397 48.1024 27.0653 47.8979 27.2746C46.7136 28.5961 45.5636 29.9471 44.4037 31.2908C44.3085 31.3968 44.2279 31.5176 44.0643 31.7345V31.737Z" fill="white"/>
</svg>
