<svg width="48" height="48" viewBox="0 0 48 48" fill="none" xmlns="http://www.w3.org/2000/svg">
<g clip-path="url(#clip0_65_212)">
<path d="M0 6.76836C0.177982 5.86591 0.308091 4.95113 0.549902 4.06594C0.773493 3.2852 1.05707 2.52306 1.39808 1.78639C1.88907 0.67682 3.15459 0.456138 4.0445 1.26982C4.14761 1.36599 4.24457 1.46831 4.344 1.56817C17.5679 14.8526 30.7922 28.1358 44.0169 41.4178C45.0725 42.478 45.0713 43.2892 44.0169 44.3495C43.0889 45.2815 42.1605 46.2132 41.2318 47.1444C40.303 48.0756 39.3885 48.0633 38.4884 47.1074C32.2308 40.3292 25.976 33.5484 19.7241 26.7653C19.6253 26.6396 19.4951 26.5426 19.3467 26.4841C19.1983 26.4256 19.0371 26.4078 18.8796 26.4324C17.6215 26.5619 16.3584 26.642 15.0978 26.7542C13.7476 26.8775 12.611 26.4435 11.6609 25.4893C9.17325 22.994 6.68805 20.4966 4.2053 17.9972C1.83383 15.5968 0.452933 12.7132 0.0908312 9.34379C0.0761016 9.20695 0.0368323 9.07257 0.00860064 8.93818L0 6.76836Z" fill="white"/>
<path d="M32.4832 23.714C32.1604 23.6696 31.5393 23.6043 30.9256 23.4933C30.7317 23.4444 30.5559 23.3409 30.4186 23.195C28.5774 21.3592 26.7288 19.5321 24.9343 17.6533C24.6471 17.3537 24.5329 16.8186 24.4814 16.3748C24.1635 13.6514 24.9723 11.293 26.8958 9.34753C29.8024 6.41004 32.7189 3.48119 35.6452 0.560964C36.2257 -0.0221772 36.8456 -0.145463 37.4679 0.171381C38.0498 0.468499 38.3996 1.08369 38.2351 1.73587C38.1281 2.10854 37.9288 2.44787 37.6557 2.72216C35.1394 5.27664 32.6109 7.81878 30.07 10.3486C29.4968 10.9206 29.1887 11.5704 29.3875 12.3804C29.4646 12.6979 29.6213 12.9903 29.8427 13.2298C30.064 13.4693 30.3427 13.648 30.6522 13.7488C30.9617 13.8496 31.2918 13.8692 31.611 13.8058C31.9302 13.7424 32.2279 13.598 32.4758 13.3864C32.7213 13.1866 32.9312 12.9573 33.1522 12.7366C35.5613 10.3194 37.9696 7.90057 40.377 5.48006C40.868 4.98692 41.4155 4.73048 42.1065 4.96226C42.3343 5.03607 42.5414 5.16313 42.7108 5.33299C42.8801 5.50285 43.0069 5.71066 43.0807 5.93934C43.1546 6.16802 43.1733 6.41103 43.1354 6.64839C43.0975 6.88575 43.004 7.11068 42.8626 7.30468C42.7404 7.46734 42.6045 7.61913 42.4564 7.75838C39.9499 10.2783 37.4422 12.7971 34.9332 15.3145C34.3465 15.9026 34.0666 16.5721 34.3195 17.4005C34.4093 17.6935 34.5675 17.9607 34.781 18.1798C34.9945 18.3989 35.257 18.5635 35.5467 18.6601C35.8364 18.7566 36.1449 18.7821 36.4464 18.7346C36.7479 18.6871 37.0338 18.5678 37.2801 18.3868C37.4547 18.2525 37.6189 18.1049 37.7711 17.9455C40.2923 15.4173 42.8111 12.8875 45.3274 10.356C45.8073 9.87149 46.3413 9.62245 47.0139 9.85546C47.2336 9.9283 47.4328 10.0528 47.5949 10.2185C47.757 10.3842 47.8774 10.5864 47.9461 10.8082C48.0148 11.0301 48.0297 11.2652 47.9897 11.4941C47.9497 11.7229 47.8559 11.9388 47.716 12.1239C47.6005 12.2721 47.4741 12.4114 47.338 12.5406C44.4984 15.3926 41.6597 18.2446 38.8218 21.0966C37.1439 22.7783 35.1529 23.6696 32.4832 23.714Z" fill="white"/>
<path d="M20.8659 32.7656C20.726 32.852 20.5931 32.9493 20.4683 33.0566C15.7491 37.7907 11.0315 42.5265 6.31559 47.264C5.34221 48.2416 4.55172 48.2503 3.58938 47.2788C2.66142 46.3467 1.731 45.4172 0.807946 44.4802C0.0125486 43.6727 0.0113212 42.8195 0.807946 42.0145C4.7702 38.0291 8.73615 34.0474 12.7058 30.0693C12.8224 29.9535 13.0396 29.8302 13.1759 29.8598C14.5997 30.1704 16.0101 29.9017 17.4205 29.7846C17.8587 29.7476 18.1692 29.8018 18.4773 30.163C19.2248 31.0273 20.0202 31.8484 20.8659 32.7656Z" fill="white"/>
</g>
<defs>
<clipPath id="clip0_65_212">
<rect width="48" height="48" fill="white"/>
</clipPath>
</defs>
</svg>
