<svg width="63" height="63" viewBox="0 0 63 63" fill="none" xmlns="http://www.w3.org/2000/svg">
<path d="M13.0204 31.4923C13.0204 41.6378 21.3811 49.9864 31.5257 49.954C41.6703 49.9216 49.9723 41.6394 49.9785 31.5046C49.9847 21.3699 41.6224 13.0106 31.4748 13.0429C21.3271 13.0753 13.0282 21.3591 13.0204 31.4923Z" fill="white"/>
<path d="M31.4997 63C33.4409 59.5878 35.3189 56.2913 37.2617 52.8776C33.4885 53.8916 29.5139 53.8916 25.7407 52.8776L31.4997 63Z" fill="white"/>
<path d="M10.1094 37.2347C9.08084 33.4921 9.08084 29.5418 10.1094 25.7992L0.00184536 31.5169L10.1094 37.2347Z" fill="white"/>
<path d="M52.9016 37.2193L62.9922 31.4985L52.9063 25.7838C53.9209 29.5285 53.9193 33.4754 52.9016 37.2193Z" fill="white"/>
<path d="M25.8111 10.1209C29.5344 9.10523 33.4623 9.10523 37.1855 10.1209C35.2705 6.71026 33.4157 3.40907 31.4991 0L25.8111 10.1209Z" fill="white"/>
<path d="M50.6852 42.5718C48.6405 46.0225 45.9833 48.6378 42.5529 50.6922L53.6758 53.6852C52.6743 49.9632 51.699 46.343 50.6852 42.5718Z" fill="white"/>
<path d="M20.4551 50.6922C17 48.627 14.3458 46.004 12.3181 42.5795C11.3058 46.3353 10.3306 49.954 9.32445 53.6836L20.4551 50.6922Z" fill="white"/>
<path d="M9.31184 9.35339C10.3272 13.0923 11.3056 16.6971 12.3194 20.4283C14.2841 17.0967 17.0658 14.3196 20.4023 12.3587L9.31184 9.35339Z" fill="white"/>
<path d="M50.6825 20.4251L53.6777 9.35181L42.6227 12.3463C45.9623 14.2996 48.7389 17.0827 50.6825 20.4251Z" fill="white"/>
</svg>
