<svg width="58" height="48" viewBox="0 0 58 48" fill="none" xmlns="http://www.w3.org/2000/svg">
<path d="M0 0.937768C0.367814 0.165387 0.966509 -0.0915399 1.80245 0.0272879C7.73524 0.87514 13.4897 2.34764 18.8955 5.01645C21.2695 6.18867 23.5847 7.47651 25.4938 9.37293C27.6705 11.5343 28.9283 14.2063 29.664 17.1513C30.4713 20.3806 30.5525 23.6612 30.312 26.9627C30.2977 27.1521 30.2754 27.3416 30.2579 27.5311C30.2404 27.7206 30.2324 27.8619 30.2101 28.1509C26.1435 23.0445 21.4526 18.9482 15.3367 16.7965C23.5751 21.6861 29.078 28.7354 31.9266 38.0233C33.0746 34.444 34.7927 31.279 37.2543 28.5106C39.6841 25.7808 42.3719 23.4026 45.808 21.9141C44.73 21.8515 41.9547 23.1345 39.2972 24.9362C37.3021 26.2882 35.5586 27.939 33.8182 29.7326C33.8182 29.3071 33.8182 28.8832 33.8182 28.4592C33.8437 25.2557 34.2226 22.1244 35.6366 19.1939C36.8244 16.7354 38.6874 14.9851 41.0758 13.7439C45.0771 11.6564 49.3396 10.4633 53.7789 9.84824C54.6196 9.73102 55.4651 9.64913 56.3074 9.54154C56.9157 9.46446 57.4395 9.58811 57.7914 10.1357C58.1433 10.6833 58.0175 11.1875 57.6927 11.6837C56.1648 14.0045 55.1344 16.6216 54.6674 19.3673C54.4031 20.9217 54.255 22.4986 53.9302 24.0401C53.0051 28.4335 50.1931 31.1168 46.1073 32.5845C43.2858 33.5993 40.3465 33.9189 37.3769 34.0297C37.2113 34.0299 37.0483 34.0711 36.9023 34.1498C36.7562 34.2285 36.6316 34.3422 36.5394 34.4809C35.2321 36.175 34.3675 38.1036 33.7864 40.1333C33.1192 42.4665 32.6304 44.8527 32.054 47.2132C31.9791 47.5182 32.0619 48.016 31.5922 48.0032C31.0779 47.9904 31.191 47.4845 31.1543 47.1553C30.7579 43.5504 29.5716 40.2039 27.9029 37.0148C27.3663 35.9888 26.7963 34.9803 26.2979 33.935C26.0766 33.4725 25.7788 33.3167 25.3012 33.2798C22.3451 33.077 19.4213 32.5384 16.5851 31.674C13.4642 30.6945 10.5886 29.275 8.30527 26.847C6.27831 24.6969 5.10323 22.1068 4.67172 19.2003C4.39148 17.3023 4.27683 15.3802 4.09691 13.4677C3.75268 9.70438 2.5927 6.06332 0.699009 2.80208C0.472906 2.41027 0.237245 2.02327 0.00636558 1.63307L0 0.937768Z" fill="white"/>
</svg>
