<?xml version="1.0" encoding="UTF-8"?>
<svg width="314px" height="71px" viewBox="0 0 314 71" version="1.1" xmlns="http://www.w3.org/2000/svg" xmlns:xlink="http://www.w3.org/1999/xlink">
    <title>Group 67</title>
    <defs>
        <polygon id="path-1" points="0.494128712 0.220302916 10.3351174 0.220302916 10.3351174 18.4767471 0.494128712 18.4767471"></polygon>
        <polygon id="path-3" points="0.410245374 0.421885724 31.0816539 0.421885724 31.0816539 33.4734604 0.410245374 33.4734604"></polygon>
        <polygon id="path-5" points="0 0.562345782 32.6644868 0.562345782 32.6644868 20.5399222 0 20.5399222"></polygon>
        <polygon id="path-7" points="0 70.4056446 312.452263 70.4056446 312.452263 0.615891568 0 0.615891568"></polygon>
    </defs>
    <g id="Home-Page" stroke="none" stroke-width="1" fill="none" fill-rule="evenodd">
        <g id="New-About-Page---2023" transform="translate(-518.000000, -36.000000)">
            <g id="Group-67" transform="translate(518.557418, 36.000000)">
                <path d="M5.69582681,34.8874242 L33.4127951,34.8874242 C33.7552308,34.8874242 34.0305343,34.6059618 34.0231436,34.2635261 L33.4152586,5.48845612 C33.4097156,5.2420995 33.5507548,5.01791496 33.7761711,4.91814053 C34.3193875,4.67671104 35.4088996,4.27946097 36.6819475,4.27946097 C37.9586907,4.27946097 39.0506665,4.6791746 39.5920352,4.9199882 C39.8149879,5.01914675 39.9554112,5.23963593 39.9535635,5.4829131 L39.7102864,34.2715327 C39.7072069,34.6108889 39.9812786,34.8874242 40.3206349,34.8874242 L68.2993571,34.8874242 C68.5888261,34.8874242 68.8382622,35.0882049 68.8967719,35.371515 C69.1431285,36.5546427 69.2268898,39.6981533 69.2268898,42.4450297 C69.2268898,45.2233165 69.0889301,48.6692299 68.8321033,49.9256487 C68.7742095,50.2095747 68.5241575,50.412203 68.2340726,50.412203 L6.15528192,50.412203 C5.87628304,50.412203 5.63362177,50.224972 5.56402602,49.9552115 C5.24745775,48.7332826 4.9370484,45.2916805 4.9370484,42.4450297 C4.9370484,39.67167 4.89393599,36.587285 5.09348486,35.3955348 C5.14275619,35.1011386 5.39773529,34.8874242 5.69582681,34.8874242" id="Fill-1" fill="#92BC5C"></path>
                <path d="M8.80441633,51.1498563 C9.67898235,51.2022071 11.3455849,51.3069087 13.9988458,51.4935238 C14.4773936,51.5273979 14.7502335,52.45801 14.4817048,53.1471927 C13.5326159,55.5848915 12.2614157,58.3317679 10.6200647,60.8101156 C10.3127348,61.2738819 9.83172346,61.10328 9.65865793,60.4633686 C8.98487256,57.9757826 8.5580597,55.6403218 8.18667708,52.424136 C8.10907475,51.7528142 8.41024572,51.1264525 8.80441633,51.1498563" id="Fill-3" fill="#92BC5C"></path>
                <path d="M65.9062488,51.2895406 C65.0895766,51.2833816 63.5270597,51.3074014 60.940931,51.4724603 C60.4525289,51.5038708 60.1846161,52.4609663 60.4660786,53.1538443 C61.4145516,55.4837621 62.6820564,57.9590303 64.3104737,60.3622392 C64.6190354,60.8186149 65.0975832,60.6510924 65.2669533,60.0111811 C65.8970104,57.6307601 66.1643074,55.694397 66.5012,52.5453435 C66.5707958,51.8961937 66.2868698,51.2920041 65.9062488,51.2895406" id="Fill-5" fill="#92BC5C"></path>
                <path d="M21.1384456,51.7337831 C22.5211222,51.7319355 24.6545706,51.7263924 26.6814698,51.7091311 C27.2179113,51.7042203 27.4962943,52.8146728 27.1292229,53.4933854 C26.0957569,55.4063446 25.0579796,57.3457871 24.49875,58.3928028 C24.265943,58.8282381 23.8754678,58.8448672 23.6291111,58.4328357 C22.9528622,57.3002111 21.6496356,55.1193391 20.7140964,53.5525109 C20.3193099,52.8910434 20.5890704,51.734399 21.1384456,51.7337831" id="Fill-7" fill="#92BC5C"></path>
                <path d="M47.8933297,51.7337831 C49.2760062,51.7319355 51.4094546,51.7263924 53.4363538,51.7091311 C53.9727953,51.7042203 54.2511783,52.8146728 53.884107,53.4933854 C52.8506409,55.4063446 51.8128636,57.3457871 51.2536341,58.3928028 C51.0208271,58.8282381 50.6303518,58.8448672 50.3839952,58.4328357 C49.7077462,57.3002111 48.4045197,55.1193391 47.4689804,53.5525109 C47.0741939,52.8910434 47.3439544,51.734399 47.8933297,51.7337831" id="Fill-9" fill="#92BC5C"></path>
                <path d="M34.6160624,51.7337831 C35.998739,51.7319355 38.1321874,51.7263924 40.1590865,51.7091311 C40.6955281,51.7042203 40.9739111,52.8146728 40.6068397,53.4933854 C39.5733737,55.4063446 38.5355964,57.3457871 37.9763668,58.3928028 C37.7435598,58.8282381 37.3530846,58.8448672 37.1067279,58.4328357 C36.430479,57.3002111 35.1272524,55.1193391 34.1917131,53.5525109 C33.7969266,52.8910434 34.0666871,51.734399 34.6160624,51.7337831" id="Fill-11" fill="#92BC5C"></path>
                <path d="M12.4859698,61.8410565 C12.3129042,61.4567402 12.3122883,60.9196827 12.4853539,60.5353664 C12.8980012,59.623231 13.7005079,57.8864167 14.597862,56.1496025 C15.4859776,54.431265 16.4202851,52.9143241 16.9253162,52.1229034 C17.1445736,51.7798518 17.4703802,51.7576797 17.704419,52.0699368 C18.2451718,52.7905299 19.2342937,54.1424119 20.0589725,55.4542609 C20.9052075,56.799984 22.123441,58.8773863 22.771359,59.9903023 C23.015252,60.4103404 23.0115567,61.0958277 22.7633524,61.5078592 L18.7871564,68.108985 C18.6424219,68.3497986 18.4385618,68.4514207 18.2420924,68.3812091 L15.1182903,67.2676771 C14.9760194,67.217174 14.8491457,67.0804461 14.7598414,66.8827449 L12.4859698,61.8410565 Z" id="Fill-13" fill="#92BC5C"></path>
                <path d="M62.4535607,62.0149227 C62.6266262,61.6306063 62.6272421,61.0935489 62.4541765,60.7092326 C62.0415292,59.7970971 61.2390225,58.0602829 60.3416685,56.3234687 C59.3790299,54.4603967 58.0031282,52.8861779 57.3496672,52.1908363 C57.129178,51.9561816 56.8501792,51.9857444 56.6487826,52.2678227 C56.1406721,52.9791775 55.1373847,54.4080459 54.2812954,55.7691663 C53.4818682,57.0403665 52.6146928,58.5837908 52.1232114,59.4756017 C51.8971792,59.8851696 51.898411,60.5281604 52.1244432,60.9377283 L55.9984011,67.9699783 C56.1363608,68.2194143 56.3352938,68.3370496 56.5317632,68.2853147 L59.8009157,67.426146 C59.9555045,67.3854972 60.0946959,67.244458 60.190775,67.0313595 L62.4535607,62.0149227 Z" id="Fill-15" fill="#92BC5C"></path>
                <g id="Group-19" transform="translate(25.251554, 51.928898)">
                    <mask id="mask-2" fill="white">
                        <use xlink:href="#path-1"></use>
                    </mask>
                    <g id="Clip-18"></g>
                    <path d="M0.666517855,7.94204495 L4.80284563,0.542107758 C5.04181156,0.114063118 5.43782984,0.112831335 5.67802755,0.539644192 L10.1611023,8.50312217 C10.3772802,8.88682262 10.3939093,9.48978046 10.2005193,9.90797084 L6.41401797,18.080852 C6.29823036,18.3309039 6.12331715,18.4768702 5.93793379,18.4768702 L5.65092832,18.4768702 C5.47786279,18.4768702 5.31280385,18.3493807 5.19701623,18.1270438 L0.651736458,9.39000603 C0.436174409,8.975511 0.442333324,8.34237447 0.666517855,7.94204495" id="Fill-17" fill="#92BC5C" mask="url(#mask-2)"></path>
                </g>
                <path d="M48.7091396,59.4361231 L44.549408,52.2037084 C44.3098262,51.7879816 43.9211986,51.7892134 43.6828486,52.206172 L39.2318002,59.9972003 C39.0131587,60.3802849 38.9946819,60.9869381 39.1893037,61.407592 L42.9733415,69.5749301 C43.0891291,69.825598 43.2640423,69.9709484 43.4494257,69.9709484 L43.7364311,69.9709484 C43.9094967,69.9709484 44.0745556,69.8440747 44.1903432,69.621122 L48.73008,60.8945543 C48.9481056,60.476364 48.9388672,59.8352208 48.7091396,59.4361231" id="Fill-20" fill="#92BC5C"></path>
                <path d="M20.9531239,67.3765667 L23.6759805,62.6520625 C23.9186418,62.2320245 24.3121965,62.2394152 24.5493147,62.6680757 L27.6620307,68.3016359 C28.0518901,69.0062158 27.7347059,70.1720986 27.1742446,70.0914168 C25.5328936,69.8555303 22.9923409,69.4792205 21.3208111,69.1798972 C20.8090052,69.0881294 20.589132,68.0078556 20.9531239,67.3765667" id="Fill-22" fill="#92BC5C"></path>
                <path d="M33.2861678,70.2317785 C33.142665,70.2126858 35.8039325,65.1475936 36.891597,63.088668 C37.1348742,62.628597 37.5524487,62.6335242 37.7938781,63.0966746 L40.6787143,68.6310763 C41.0340837,69.3134841 40.7557007,70.4042281 40.2254181,70.4017687 C38.1141418,70.3919103 34.2229388,70.3568044 33.2861678,70.2317785" id="Fill-24" fill="#92BC5C"></path>
                <path d="M46.6128911,68.5311787 L49.9220765,62.3131374 C50.1518041,61.8807815 50.5410475,61.8567617 50.7886359,62.2589389 L53.8416104,67.2242567 C54.2154566,67.8327576 54.0196031,68.921038 53.5114926,69.0466799 C51.8707574,69.4507048 48.982226,70.119563 47.0951342,70.3086417 C46.5463748,70.364072 46.2402767,69.2314474 46.6128911,68.5311787" id="Fill-26" fill="#92BC5C"></path>
                <path d="M10.8548425,62.8274684 L10.8548425,62.8274684 C10.5641417,63.1298712 10.4699103,63.7857957 10.6472871,64.2871314 C10.8800941,64.9449036 11.1923511,65.7375561 11.3912841,65.8853701 C11.4023701,65.8933767 11.4140721,65.9019991 11.4270058,65.9106216 C11.9911625,66.2943221 12.5011207,65.1727835 12.1519102,64.3136148 L11.6678194,63.1249441 C11.4836678,62.6716479 11.1289143,62.5423106 10.8548425,62.8274684" id="Fill-28" fill="#92BC5C"></path>
                <path d="M63.9980935,62.7895295 L64.0344311,62.8277148 C64.325132,63.1301175 64.4193634,63.7860421 64.2419866,64.2873778 C64.0097955,64.9445341 63.6975384,65.7371866 63.4979896,65.8856164 C63.438864,65.9299606 63.3390896,65.9853909 63.2140636,66.0475959 C62.6388208,66.3352173 62.1959948,65.1514737 62.5784635,64.3514305 L63.2134477,63.0217206 C63.4062217,62.6189275 63.7394191,62.5203849 63.9980935,62.7895295" id="Fill-30" fill="#92BC5C"></path>
                <g id="Group-34" transform="translate(40.648844, 0.194006)">
                    <mask id="mask-4" fill="white">
                        <use xlink:href="#path-3"></use>
                    </mask>
                    <g id="Clip-33"></g>
                    <path d="M9.74900923,14.8254955 C9.82537978,14.5711323 10.1056104,13.6035666 10.2583516,13.1705948 C10.4110927,12.7376231 10.6149528,12.4321408 10.9456865,12.1014071 C11.1674075,11.8790702 11.6884518,11.9203349 12.0555231,11.948666 C12.158377,11.9560567 12.2538402,12.0028644 12.3222042,12.079235 C12.3850251,12.1500625 12.4521573,12.2171947 12.5242166,12.2793997 C13.0588105,12.7376231 12.8296989,12.533763 12.7533283,12.8651126 C12.6769577,13.1958464 12.5242166,12.8139936 12.3203565,12.9414832 C12.1171123,13.0689727 12.4478461,13.1453433 12.6005872,13.8326783 C12.7533283,14.5200133 12.2187344,14.2909016 11.9896228,14.5200133 C11.7605111,14.7491249 11.0571629,15.0275079 10.2872985,15.5146781 C9.73545961,15.8645046 9.09123703,16.600495 8.8522711,16.6633159 C8.83317846,16.6682431 8.80361567,16.6349849 8.81531761,16.6189717 C8.84611219,16.5758593 9.68434061,15.0398257 9.74900923,14.8254955 M9.83277048,6.75854771 C9.84878366,6.73883918 9.8678763,6.71297174 9.8894325,6.68340894 C9.93808794,6.61627676 10.0409418,6.62736281 10.0748159,6.70311747 C10.0865178,6.7302167 10.0994515,6.75793182 10.113617,6.78626284 C10.7288927,8.04391342 10.8828656,8.58220265 10.6777737,9.89097223 C10.4726818,11.1997418 10.1388686,10.9946499 10.1388686,10.9946499 C10.1388686,10.9946499 10.0618821,10.2247855 10.113617,9.48078845 C10.1499546,8.9511217 10.199226,8.56434179 10.2250934,8.38573324 C10.2300205,8.35062742 10.187524,8.32968711 10.1628884,8.35493866 C10.0859019,8.43377278 9.97319376,8.5495604 9.92269065,8.60252707 C9.91098871,8.6148449 9.89066429,8.60930188 9.88635304,8.5932887 C9.7945852,8.23791926 9.66216851,7.70332538 9.62275145,7.41077689 C9.55931462,6.94762643 9.66463208,6.96856674 9.83277048,6.75854771 M11.1908114,9.42905356 C11.5504921,8.71092399 11.8325704,9.06998877 12.6794213,8.73617554 C12.9380958,8.63455343 13.1536578,8.62100382 13.3224121,8.65056661 C13.5108749,8.68320887 13.6931788,8.56434179 13.7584633,8.38450146 C13.8206684,8.21205182 13.885337,8.06916497 13.885337,8.06916497 C13.885337,8.06916497 13.987575,7.24818151 13.5773912,7.81295408 C13.1665915,8.37711076 13.2953129,7.47914085 13.2953129,7.47914085 L12.9959896,7.86776843 C12.8697318,8.03221148 12.6424678,8.07717156 12.4644752,7.97123821 C12.3844092,7.92319867 12.2864825,7.8628413 12.1663836,7.78708663 C12.1164964,7.75567616 12.0696887,7.73781531 12.0247286,7.72672926 C12.0154902,7.44341914 12.0542914,7.00736791 12.3998065,6.86324928 C12.9048376,6.65323026 12.862957,6.9057458 13.3679881,6.56885311 C13.8730192,6.23196042 13.6205036,6.04288171 14.0627138,6.16913948 C14.1834285,6.20362941 14.3860568,6.26645035 14.6231751,6.33912556 C14.8153333,6.39763526 14.9311209,6.58732986 14.907717,6.78687873 C14.83381,7.4095451 14.8861608,8.22313786 14.8861608,8.22313786 C14.8861608,8.22313786 14.7272608,7.94598666 14.5689766,7.65343816 C14.5923805,7.98109248 14.4969173,8.30997858 14.4494937,8.53108365 C14.43656,8.59205691 14.4168514,8.63147397 14.3934475,8.65487785 C14.2394747,8.80885075 14.2136072,9.04535311 14.350951,9.21472329 C14.4008382,9.27569655 14.458732,9.33913339 14.5264801,9.403802 C15.0401337,9.89097223 14.7574395,9.96795868 14.6552015,10.0190777 C14.5523476,10.0708126 14.1932828,10.0708126 14.1932828,10.0708126 C14.1932828,10.0708126 14.6034666,10.6608367 14.3725072,10.7378231 C14.1415479,10.8148096 13.8083506,10.0708126 13.192459,9.76286679 C12.5765674,9.454921 12.6276864,10.0449451 12.6794213,10.0960641 C12.7305403,10.147799 12.7804275,10.5468968 12.5494682,10.7008696 C12.3185088,10.8548425 12.1146487,11.0457689 12.1405162,10.5579828 C12.1663836,10.0708126 12.1146487,9.78873423 11.8836894,10.0960641 C11.6527301,10.4040099 11.1396924,11.0968879 10.7547602,11.2256093 C10.3698279,11.3537147 10.8317466,10.147799 11.1908114,9.42905356 M12.2107278,4.40153068 C12.272317,4.15640584 12.4127403,3.92113526 12.5414616,3.74375849 C12.6283023,3.62365963 12.8179969,3.69756662 12.8019837,3.8447647 C12.7459376,4.35841827 12.4903426,4.83758191 12.2741647,5.05375985 C12.0000929,5.32721571 12.0844701,4.90656177 12.2107278,4.40153068 M11.988391,11.6296341 C12.0265762,11.6912233 11.9668348,11.7669779 11.8984708,11.7435741 C11.5936045,11.6407202 11.312142,11.505224 11.505532,11.3370856 C11.5498762,11.2989004 11.5972998,11.272417 11.6459553,11.2539403 C11.7167828,11.226841 11.7956169,11.2607151 11.8270274,11.329079 C11.8664444,11.4165356 11.9212588,11.5200054 11.988391,11.6296341 M14.4593479,13.1194758 C14.2554878,13.6288182 13.8988866,13.6799372 13.3642927,13.9090488 C12.8296989,14.1381605 13.1863001,13.4508255 13.2626706,12.8651126 C13.3390412,12.2793997 13.3390412,12.2541482 13.7972645,11.846428 C14.2554878,11.4393236 13.6956424,11.1338414 13.6956424,11.1338414 C13.6956424,11.1338414 13.3137896,10.8788623 13.1610485,11.210212 C13.0083074,11.5409457 13.1099295,11.5156942 12.6517062,11.7700574 C12.3887205,11.9160237 12.1589929,11.6641241 11.9963976,11.4233105 C11.937272,11.335238 12.0099472,11.2188345 12.1146487,11.233 C12.3677802,11.2681058 12.6239911,11.323536 12.8296989,11.159093 C13.2115516,10.8536108 13.5681528,10.7261212 13.9247541,10.8536108 C14.2813553,10.9811003 14.3829774,11.3118341 14.612089,11.7448059 C14.8412007,12.1777776 14.663208,12.6101335 14.4593479,13.1194758 M31.0650164,23.9462337 C30.9812552,23.7996515 30.834673,23.5483678 30.6252698,23.4227259 C30.4158667,23.297084 30.2902248,23.2133227 30.1436426,23.0458002 C29.9970604,22.8782777 29.8295379,22.8782777 29.6201348,22.6263781 C29.4107317,22.3750943 28.5515629,22.354154 28.2793388,22.3122734 C28.0071148,22.2703928 27.2742038,21.8934671 27.1066813,21.7887655 C26.9391588,21.684064 25.9962288,21.621243 25.7658854,21.6003027 C25.5355419,21.5793624 24.9492131,21.4118399 24.8026309,21.349019 C24.6560487,21.286198 23.7759397,21.5793624 23.7759397,21.5793624 C23.7759397,21.5793624 23.5455962,21.6421834 23.3361931,21.7050043 C23.12679,21.7678252 22.6451628,21.8515865 22.4567,21.8515865 C22.2682371,21.8515865 21.723789,22.2494524 21.6190874,22.2494524 C21.5143859,22.2494524 21.1996653,22.5216765 21.0530831,22.5635571 C20.9065009,22.6054378 20.6761574,23.0667406 20.5505156,23.1505018 C20.4248737,23.2342631 20.1945302,23.6740096 20.0060674,23.8415321 C19.8176046,24.0090547 19.9013658,24.1556368 19.7338433,24.4697415 C19.5663208,24.7838462 19.6291418,24.7838462 19.4616193,25.0979509 C19.3427522,25.3215196 19.3926394,25.3966584 19.4012619,25.6017502 C19.4092685,25.7809747 19.3021033,25.9460336 19.1339649,26.0088546 C18.4386234,26.2699926 18.0062675,26.8988179 17.8609171,27.1390156 C17.8467516,27.1630354 17.810414,27.1519493 17.8116457,27.1242342 C17.8215,26.9289966 17.8492151,26.5311306 17.9114202,26.375926 C17.9951814,26.1665228 17.8904799,26.1246422 17.7229574,26.1037019 C17.5554349,26.0827616 17.3879123,25.8524181 17.4507333,25.6220747 C17.5135542,25.3917312 17.1785092,25.4545522 16.9900464,25.4964328 C16.8015836,25.5383134 16.6759417,25.2870297 16.5921804,25.4964328 C16.5084192,25.7058359 16.6550014,26.3549856 16.7806433,26.6900307 C16.8539344,26.8865001 16.8871925,27.5695238 16.901358,28.1016541 C16.9099805,28.4040569 16.5305913,28.7070755 16.3248835,28.4853546 C15.3000399,27.3798292 12.5186736,26.0421127 9.87218754,27.9193502 C9.82722745,27.9513766 9.773029,27.9655421 9.72498945,27.9901778 C9.40472584,28.1546208 9.04812462,27.8503704 9.1515944,27.5067029 C9.26368667,27.136552 9.36038165,26.813209 9.45399716,26.5385213 C9.53960609,26.3494426 9.61104951,26.1671387 9.66709565,25.9934573 C9.84077707,25.7156902 9.83461815,25.5684921 9.81244606,25.3787975 C10.0649616,23.6666189 8.8374897,22.8000595 8.06269811,22.4305246 C7.87854653,22.3424521 7.78493101,22.1336648 7.8446725,21.9384272 C7.86746048,21.8632884 7.89763917,21.7801431 7.93644034,21.6883752 C8.33615397,20.7417499 7.85514265,21.4457139 8.52831214,21.0669406 C9.20148162,20.6881673 8.71739085,21.2566352 9.49649368,20.9197425 C10.0963721,20.6604522 10.7461377,20.0753552 10.8656206,19.6269861 C10.3544306,19.8185284 9.66524797,19.7156745 10.1912194,19.4840993 C10.2743647,19.4477617 10.3630531,19.4046493 10.4529733,19.3584574 C10.8539187,19.1527496 10.6722307,18.5387057 10.2250934,18.5904406 C10.2084643,18.5929042 10.1924512,18.5947519 10.1776698,18.5978313 C10.1505705,18.6027585 10.1247031,18.6107651 10.1000674,18.6212352 C9.51989756,18.8632806 9.43059328,18.9482736 9.30679908,19.2993318 C9.19224325,19.6239067 9.21133589,19.0837698 9.14974673,18.9612074 C8.97421763,19.2944047 9.07091261,19.2420539 8.9914626,19.6152842 C8.91201258,19.9860509 8.14953882,20.6044061 8.08671788,20.6462867 C8.02328105,20.6881673 8.61268928,18.5208449 8.92802576,17.9104963 C9.24397814,17.3007637 9.22242193,16.7113555 9.85371079,16.4378996 C10.4849996,16.1644437 11.0744079,15.9956895 11.3903603,16.3116418 C11.7056967,16.6269783 12.0635297,16.9219904 12.1054104,17.8686157 C12.147291,18.8152411 12.2741647,19.1311934 12.0635297,19.4046493 C11.8528948,19.6781051 12.4213627,19.7624823 12.4841837,18.8577376 C12.5476205,17.9529929 12.7576395,17.7214176 12.8420167,18.2892697 C12.9263938,18.8577376 13.0945322,19.7206017 13.3051671,20.0778188 C13.4394315,20.3063145 13.6334373,20.457208 13.7559998,20.536658 C13.8015757,20.5662208 13.8607013,20.5286514 13.8526947,20.4750688 C13.8157413,20.2342552 13.7449137,19.7390784 13.788642,19.7206017 C13.857006,19.6916548 13.936456,20.3728308 14.2727328,20.3518905 C14.6096255,20.3303343 14.6940026,19.8887401 14.3571099,19.5099667 C14.0202173,19.1311934 14.2727328,19.025876 14.2727328,19.025876 C14.2727328,19.025876 14.6305658,18.8996182 14.0627138,18.5417852 C13.4942459,18.1839522 13.3261075,18.0158138 13.3889284,18.0158138 C13.4523652,18.0158138 13.5151862,18.0158138 14.0627138,18.1001909 C14.6096255,18.1839522 14.8830813,17.9948735 14.1045944,17.679537 C13.3261075,17.3635846 12.8001361,17.3007637 13.1573532,17.1320094 C13.5151862,16.963871 14.4199309,16.7741764 14.2517925,16.7322958 C14.0836541,16.6904151 13.7467614,16.7322958 13.1573532,16.6269783 C12.5685608,16.5216609 11.7056967,16.0800666 11.3059831,15.9747491 C11.1680234,15.9384115 10.9783288,15.9150077 10.7886342,15.8996104 C10.6796214,15.890372 10.6463632,15.7474852 10.7405947,15.6920549 C11.1095137,15.4734134 11.4593401,15.2750963 11.6785975,15.1513021 C12.2686216,14.8174889 12.6276864,14.9203428 13.0643535,15.0995672 C13.5004048,15.2794076 14.2444018,16.049272 14.629334,16.3572178 C15.0142662,16.6651636 15.1941066,16.6904151 15.6042904,16.9983609 C16.01509,17.3063067 16.1943145,17.7171064 16.4511413,17.4091606 C16.4770087,16.844388 15.42445,16.5623097 15.322212,16.3313504 C15.2193581,16.100391 15.8863687,16.2284965 16.5281277,16.0234046 C17.1692708,15.8183127 15.42445,15.6902072 15.1171201,15.5362343 C14.8091744,15.3822615 15.8611171,15.1765537 16.117328,14.9455943 C16.3741548,14.714635 14.629334,14.6382644 14.4753611,14.4842915 C14.3213882,14.3303187 14.9114124,13.9453864 15.7323958,14.2785838 C16.5539952,14.612397 16.8871925,15.8183127 16.9383115,15.7154588 C16.9900464,15.6132208 16.6051142,14.4325567 16.8102061,14.5354105 C17.0152979,14.6382644 17.1951383,15.0225808 17.4260976,15.5614859 C17.657057,16.100391 18.0931082,16.8702555 18.0931082,16.8702555 C18.0931082,16.8702555 18.0678566,16.6392961 17.9908702,16.049272 C17.9138837,15.4592479 17.4260976,14.612397 17.5030841,14.612397 C17.5800705,14.612397 17.8368973,15.1765537 18.4269214,15.8694317 C19.0169455,16.5623097 18.8118537,16.2032449 19.3248913,16.3572178 C19.1826204,15.8497232 18.8321781,15.3748708 18.6917548,15.1981099 C18.6560331,15.1531498 18.6104571,15.1168122 18.5587222,15.0909447 C18.4078288,15.015806 18.0697043,14.8242637 17.9908702,14.5865295 C17.8880163,14.2785838 18.3240675,14.4325567 18.9140917,14.5865295 C19.5047317,14.7405024 19.6328371,14.5354105 19.4277452,14.3044512 C19.2220374,14.0734919 18.0161217,14.0734919 17.8110299,13.8425325 C17.605938,13.6115732 18.349935,13.7914135 18.6831323,13.2525084 C19.0169455,12.7136033 19.1197994,12.6366168 19.042813,12.6366168 C18.9658265,12.6366168 18.0161217,13.3806139 17.1951383,13.7144271 C16.3741548,14.0476244 16.4770087,13.3547464 16.4770087,13.2525084 C16.4770087,13.1496545 16.6051142,12.8934436 16.9130599,12.5854978 C17.0269999,12.4715579 17.1372445,12.4173594 17.2314759,12.3939556 C17.3096941,12.3748629 17.333098,12.2744726 17.2715088,12.2215059 C17.2056084,12.1648439 17.1390922,12.102023 17.0922844,12.0465927 C16.9641789,11.8926198 16.9900464,11.584674 17.8880163,11.8667524 C18.7859862,12.1488307 19.4529968,11.7897659 19.4529968,11.7897659 C19.4529968,11.7897659 18.4269214,11.5076876 18.3240675,11.1486228 C18.2218295,10.7889421 19.6587046,10.6097177 20.5049396,10.4557448 C19.6839561,9.78873423 18.6535695,10.6811611 18.452173,10.4557448 C18.2544718,10.2340238 19.145051,9.53190745 18.7348672,9.63476134 C18.4484776,9.70620476 17.8375132,10.2765204 17.4944616,10.6152607 C17.4150116,10.6940948 17.2838267,10.6121813 17.3195484,10.5062479 C17.3577337,10.3941556 17.4150116,10.2623548 17.5030841,10.1219316 C17.7599109,9.71174779 18.2218295,8.81316199 17.7340434,9.19809422 C17.2462573,9.58302645 16.4880948,11.5772833 16.2713009,11.4559527 C16.1370366,11.3814298 16.5620018,10.3812219 16.1943145,10.6349692 C16.0526594,10.732896 16.0440369,11.0919608 15.8925276,11.3752709 C15.7120714,11.7127795 15.2082721,11.6376407 15.1343651,11.2625628 C15.1282062,11.2336159 15.1226632,11.2040531 15.1171201,11.1738744 C14.9631472,10.3787584 16.4770087,9.94209123 17.0670328,9.60889389 C17.657057,9.27508066 17.0922844,9.22396166 16.8360735,9.22396166 C16.6654715,9.22396166 15.9947656,9.68957569 15.5654892,10.0012168 C15.4614035,10.0763556 15.3271392,9.96056798 15.3862648,9.84662804 C15.4423109,9.73823112 15.5137543,9.60766211 15.6042904,9.454921 C15.742866,9.22088221 15.9996928,9.00039302 16.2392746,8.83656587 C16.3119498,8.78729454 16.2953207,8.67458638 16.2115595,8.64871894 C16.0705203,8.60499064 15.9670505,8.53539489 15.9892226,8.47996465 C16.0403416,8.3518592 17.4002302,7.37628696 17.4002302,7.37628696 C17.4002302,7.37628696 16.8102061,7.17119507 16.1690629,7.47914085 C16.1216393,7.50192884 16.0760633,7.52779628 16.0317191,7.5561273 C15.7096078,7.76306686 15.3037353,7.46928658 15.4028938,7.09975164 C15.4262977,7.01291093 15.4509334,6.93284503 15.4761849,6.86324928 C15.4866551,6.83491827 15.4958934,6.80658726 15.5051318,6.77825625 C15.5334628,6.68710429 15.6276942,6.63413762 15.7194621,6.65815739 C16.0101629,6.73452794 16.2509765,6.78626284 16.356294,6.77948803 C16.6716305,6.75854771 17.0294635,6.7160512 17.1138406,6.65323026 C17.1976019,6.58979343 17.2696612,6.25844376 16.7978882,6.16913948 C16.3045591,6.07552397 16.1247187,5.97944488 16.3137975,5.85318711 C16.5034921,5.72692934 16.566313,5.62222777 16.7978882,5.47441379 C17.0294635,5.32721571 17.3663561,5.34815602 16.8188285,5.18001763 C16.2719168,5.01187923 16.3137975,4.96938271 15.9350241,4.99093891 C15.5562508,5.01187923 15.8512629,4.69592685 15.8087664,4.6121656 C15.7668857,4.52778845 15.7250051,4.54872877 15.1774775,4.86468114 C15.0179616,4.95644899 14.890472,5.03220365 14.7906976,5.09379281 C14.7038569,5.14675948 14.6003871,5.05868699 14.6385724,4.96445558 C14.6866119,4.84435672 14.7278767,4.70578112 14.7358833,4.56966908 C14.7568236,4.21183608 14.5677449,4.08557831 14.5677449,4.08557831 C14.5677449,4.08557831 14.3571099,4.50684814 14.1674153,4.59060939 C13.9783366,4.67498654 13.3470478,4.48590783 13.8939595,4.14901514 C14.4414871,3.81212245 15.3462318,4.04369768 15.577807,3.81212245 C15.8087664,3.58116311 15.998461,3.05457582 15.282795,3.15989328 C14.5677449,3.26521074 14.6096255,3.3705282 15.0093391,2.86549711 C15.4090527,2.36046602 16.2719168,1.89731557 15.3881124,2.04451365 C14.504308,2.19232763 14.1889715,2.38140634 14.6940026,1.72917717 C15.1990337,1.076948 15.4724896,0.824432453 14.7149429,1.03445148 C13.9573963,1.24508639 13.8520789,1.68729654 13.7677017,1.77105779 C13.6839405,1.85543494 13.4942459,1.70823685 13.6839405,1.09788831 C13.8730192,0.487539766 13.8939595,0.00344899278 13.4098687,0.971630538 C12.9263938,1.93981208 12.862957,2.61298157 12.8001361,2.63392188 C12.7366992,2.65486219 12.2107278,3.28615105 12.2526085,2.90737774 C12.295105,2.52860442 12.6523221,1.98169271 12.5476205,2.00263302 C12.4423031,2.02357334 12.0425894,2.59204125 11.8953913,3.07613203 C11.7475774,3.55960691 11.6003793,3.93838022 11.5375583,3.18083359 C11.4741215,2.42328696 11.5387901,2.04574543 11.4322409,2.02357334 C11.3669564,2.01002372 11.0953482,2.50766411 11.0744079,3.26521074 C11.0534676,4.02275737 10.9900307,4.73842337 11.4531812,5.26439477 C11.9163317,5.79036617 12.0216491,5.70598902 11.7691336,6.31633757 C11.6662797,6.56392598 11.5597304,6.86756052 11.4667308,7.14471173 C11.4433269,7.21430748 11.3509432,7.22785709 11.3096785,7.16811561 C11.3047513,7.16072491 11.2992083,7.15333421 11.2936653,7.14532762 C11.0115869,6.76101128 10.9130443,7.29006214 10.8760908,7.08743381 C10.8200447,6.78010392 11.2166788,6.78626284 11.0885734,6.5041845 C10.9992691,6.30771509 10.9968055,5.62530723 11.0035803,5.22990484 C11.0048121,5.17693817 10.9302893,5.16523623 10.914892,5.21573934 C10.8526869,5.42021534 10.7707733,5.73863128 10.7036412,6.17037127 C10.5755357,6.99135473 10.3445764,6.63228994 10.4215628,6.3502116 C10.454821,6.22764918 10.437576,6.07921931 10.3889206,5.90800146 C10.4696024,5.76880996 10.5274962,5.65610181 10.5274962,5.62222777 C10.5274962,5.51691031 10.5693768,5.09564048 10.6956346,4.63310591 C10.8218923,4.16995545 10.7165749,3.47584566 10.6746943,3.93838022 C10.6556016,4.15086281 10.5829264,4.27896826 10.5102512,4.35595471 C10.4455826,4.42370278 10.3304109,4.38490161 10.3199407,4.29128609 C10.2854508,3.99812171 10.2035372,3.40563402 10.0643457,3.09707234 C9.875267,2.67580251 9.64369177,2.54954474 9.70651271,3.2023898 C9.76994954,3.85461897 9.43305685,4.2543326 9.15960099,4.88562146 C8.88614514,5.51691031 8.71739085,5.45347348 8.40205437,5.11719669 C8.08671788,4.780304 8.42299468,4.44341131 8.75988737,3.95932054 C9.09616416,3.47584566 9.09616416,3.45428945 9.01240291,3.09707234 C8.96374748,2.89013277 8.78821838,2.93632464 8.64902688,3.0126952 C8.59975556,3.03917853 8.54494121,2.98805953 8.5677292,2.93632464 C8.62315944,2.81314633 8.68598038,2.64439204 8.71739085,2.46578348 C8.78082768,2.10795048 8.73894705,1.81355431 8.52831214,2.08701017 C8.31767722,2.36046602 8.1076582,2.54954474 7.70794457,2.00263302 C7.42401855,1.61400544 7.37351545,0.928518128 7.36797242,0.56391032 C7.36612475,0.450586271 7.22693325,0.39885138 7.15117859,0.482612633 C7.03539097,0.610102188 6.89065646,0.833670827 6.76070334,1.22414608 C6.48724748,2.04451365 6.99227857,2.88643742 6.88696111,3.15989328 C6.79457737,3.3994751 6.37946645,2.814994 5.96620321,2.48302845 C5.8645811,2.40111487 5.71430356,2.48302845 5.72662139,2.61359746 C5.75618419,2.93570875 6.1201761,3.33049525 6.38193002,3.55960691 C6.71882271,3.85461897 7.20291348,4.12807483 7.01321888,4.35965006 C6.97195414,4.41015316 6.90543785,4.44033185 6.82044482,4.45511325 C6.41641995,4.5240931 6.34928777,5.07162071 6.72559752,5.23360019 C6.77610062,5.25577229 6.82660373,5.27609671 6.87649095,5.29642113 C6.94115956,5.32228858 6.98119252,5.38695719 6.97441771,5.45655294 C6.95224561,5.68012158 6.87649095,5.90738557 6.65538588,5.87474331 C6.23473194,5.81130648 6.06659354,5.34815602 5.43530468,5.41159285 C4.80401582,5.47441379 4.34086536,5.68504871 4.34086536,5.68504871 C4.34086536,5.68504871 4.31992505,6.16913948 4.93027359,6.12725886 C5.54000625,6.08476234 7.18135728,5.70598902 7.43387282,6.25351663 C7.68638836,6.80042834 7.43387282,6.73699151 7.01321888,6.75854771 C6.83461032,6.7671702 6.56731338,6.85832215 6.3178773,6.96117604 C6.26922186,6.98150046 6.28646683,7.05355978 6.33881761,7.05048032 C6.48108856,7.04247373 6.64306805,7.05232799 6.82414017,7.09482451 C6.86786847,7.10529467 6.91036499,7.11576482 6.95039794,7.12561909 C7.21276775,7.1909036 7.34826389,7.48406798 7.22200612,7.72303391 C7.18813208,7.78770253 7.15918518,7.86530486 7.13947665,7.9576886 C7.10375494,8.12397932 7.08343052,8.26994562 7.07234447,8.39373983 C7.06064253,8.51938171 7.20784061,8.59452048 7.30453559,8.51322279 C7.3839856,8.44547472 7.48745539,8.3666406 7.62356742,8.27302508 C8.36017374,7.767994 8.59113308,7.6214118 8.75988737,7.64173622 C8.85042343,7.65282227 8.92125096,7.65159049 9.00254864,7.66390832 C9.06968083,7.67376259 9.12387928,7.72241802 9.14112425,7.78770253 C9.31480567,8.44793829 9.48479174,9.17222677 9.6048906,9.68280088 C9.60797006,9.69758228 9.60858595,9.71236368 9.60673827,9.72714507 C9.57163245,9.9956738 9.58826153,10.1601168 9.54884447,10.0960641 C9.45399716,9.94147534 9.18916379,9.05089613 9.03580679,8.58220265 C8.9255622,8.24654174 8.85596645,7.86407308 8.727861,8.58220265 C8.68105325,8.84395657 8.71615906,9.13280971 8.7795959,9.39456363 C8.85042343,9.68772801 8.58990129,9.95071371 8.29488923,9.88850867 C8.25177682,9.87988618 8.20804852,9.87187959 8.16308844,9.86572068 C7.5157864,9.78996601 7.15980107,9.57317218 6.97626538,9.40688146 C6.90051072,9.33851749 6.78164365,9.41735162 6.81736536,9.5134307 C6.8654049,9.6446156 6.98119252,9.78996601 7.23986698,9.89097223 C8.62500711,10.6269627 8.95142964,11.4362442 9.01917772,11.6708989 C9.03087966,11.7115477 9.03580679,11.7534283 9.03457501,11.795309 C9.02841609,11.9640633 8.99762151,12.5152862 8.8307149,13.5604542 C8.71985441,14.2527163 8.30967063,15.3262153 7.95614887,16.1681391 C7.90687754,16.2851585 7.73134845,16.2315759 7.75536822,16.1071658 C7.83481823,15.6957503 7.89763917,15.2172025 7.90687754,14.714635 C7.9321291,13.2525084 7.23986698,12.6624843 7.03415919,12.2775521 C6.8290673,11.8926198 6.93192119,11.6099256 7.00890764,11.1997418 C7.05633129,10.9472263 7.04524524,10.6651479 7.02984795,10.4859235 C7.02245725,10.403394 6.92514638,10.363977 6.86294134,10.4187913 C6.72498162,10.5401219 6.49217461,10.7673859 6.18730829,11.1486228 C5.67427061,11.7897659 5.93109739,10.4040099 6.08507028,9.50604 C6.13310983,9.22704112 6.13865285,9.02687636 6.12387145,8.88398952 C6.10539471,8.70846042 5.87628304,8.65364607 5.78020396,8.80207594 C5.59358881,9.09031319 5.31212637,9.52944388 5.21235193,9.71174779 C5.05837904,9.99382612 4.90440615,8.4029782 4.69931426,8.14615142 C4.5939968,8.01496651 4.49607004,8.07840335 4.42524251,8.17201886 C4.37843475,8.23299213 4.28235566,8.21389949 4.26387892,8.13937661 C4.18196534,7.80679516 3.98795949,7.1902877 3.59625246,6.70927639 C3.33942567,8.4029782 4.14131649,9.00100892 4.05817113,9.14697522 C4.01136337,9.21841864 3.63751719,8.65918909 3.09922796,8.25762779 C2.7457062,7.9940262 2.28132396,8.40605766 2.50058136,8.78852632 C2.61821665,8.99361822 2.75001744,9.15682948 2.87504343,9.28431904 C3.06843338,9.48263612 3.01300314,9.81213811 2.76603062,9.93777999 C2.59481277,10.0240048 2.45131003,10.1077661 2.44145577,10.147799 C2.41558832,10.250037 2.6724151,10.2759045 3.31355823,10.4557448 C3.68494084,10.5592146 3.90111878,10.8006441 3.86909242,11.0248286 C3.83829784,11.238543 3.97810523,11.4251581 4.19305139,11.4442508 C5.28687481,11.5415616 6.40594979,11.9480501 6.95717275,12.6624843 C7.65005076,13.5604542 7.57306431,15.4844995 7.57306431,15.9464181 C7.57306431,16.2278806 7.29714489,16.9281493 7.08096695,17.4325645 C7.02184136,17.571756 6.81490179,17.5360343 6.80566342,17.3845249 C6.79088202,17.1406319 6.76624636,16.8345338 6.72621341,16.4853233 C6.64245215,15.748101 7.02492082,15.1666994 7.1647282,14.9819319 C7.18813208,14.9511374 7.17458247,14.9061773 7.13762898,14.8932436 C6.9750336,14.8347339 6.87957041,14.6665955 6.91344444,14.4972253 L6.97626538,14.1849682 C6.97996073,14.1658756 6.9534774,14.1572531 6.94547081,14.175114 C6.84076924,14.4073051 6.62274362,14.8051711 6.41826762,14.6382644 C6.13618928,14.4073051 6.16205673,13.5604542 5.93109739,12.6366168 C5.48703957,13.4212627 5.58065509,14.1720345 5.74017101,14.6665955 C5.76419078,14.7411183 5.66195278,14.7891579 5.61884037,14.7232575 C5.57326439,14.6524299 5.52337717,14.5729799 5.46917872,14.4842915 C5.11011393,13.8936515 4.21522348,13.0677409 4.36611692,13.3806139 C4.62540727,13.9207508 4.64819526,13.970638 4.90440615,14.9714618 C5.16123293,15.9722856 5.59728416,15.9464181 5.95634895,16.2032449 C6.31602962,16.4594558 6.21317573,16.4342043 6.47000252,17.3063067 C6.72621341,18.1790251 6.38008235,19.230352 6.38008235,19.230352 C6.29632109,19.8992102 6.08753385,20.4430425 6.08753385,20.7362069 C6.08753385,20.928365 6.03826253,20.8415243 5.74694581,21.4019856 C5.66441634,21.5602698 5.48765546,21.6458787 5.31212637,21.6132365 C4.78985032,21.5159256 4.05509168,21.4420186 3.64921913,21.6735938 C2.9575729,22.0689962 2.56217051,22.1903269 2.16799991,23.1135483 C2.16799991,23.1135483 1.65865758,24.0718756 1.59645253,24.4549601 C1.53732694,24.8232633 1.24046721,25.1866393 1.167792,25.6387037 C0.835826447,26.4516806 0.540814386,27.1999889 0.488463603,27.5153254 C0.469370964,27.6298812 0.44411941,27.8109533 0.413940723,28.0376014 C0.411477157,28.0560781 0.410245374,28.0745549 0.410245374,28.0924158 L0.410245374,33.0645084 C0.410245374,33.2905406 0.59316517,33.4734604 0.819197375,33.4734604 L6.41765173,33.4734604 C6.56669749,33.4734604 6.70342542,33.3921627 6.77610062,33.2622096 C6.86232544,33.1082367 6.94547081,32.9444095 7.02307314,32.7676486 C7.04339757,32.7294634 7.06372199,32.691894 7.08343052,32.6543246 C7.10868207,32.6062851 7.18135728,32.6303048 7.17335069,32.6838874 C7.15610572,32.7935161 7.14009254,32.901913 7.12531114,33.0084623 C7.092053,33.254203 7.28359528,33.4734604 7.53179958,33.4734604 L25.0699279,33.4734604 C25.3470791,33.4734604 25.5447803,33.2043158 25.461019,32.9394824 C25.4252973,32.8267742 25.3846485,32.7152979 25.3372248,32.6062851 C24.6806844,31.1564763 24.2760436,30.2215529 22.9956051,29.3679272 C21.7188619,28.5161492 20.8104218,28.7317112 20.2518081,28.636248 C19.8126775,28.5611092 18.8217079,28.7255523 18.2784916,28.7865255 C17.9890225,28.8191678 17.7599109,28.5506391 17.8381291,28.2697925 C17.9249698,27.960615 18.0610818,27.5652126 18.2674055,27.1716579 C18.7071521,26.3340453 19.9641868,25.97806 20.0898287,25.9990003 C20.2154705,26.0199406 20.0898287,25.9990003 20.4039334,25.9152391 C20.7180381,25.8314778 20.5505156,25.8524181 20.6761574,25.8733584 C20.8017993,25.8942987 20.8436799,25.8733584 21.1368443,25.7895972 C21.4306246,25.7058359 21.2415459,25.8314778 21.3043668,25.9361794 C21.3678037,26.0408809 21.7028487,25.9361794 21.7028487,25.9361794 C21.7028487,25.9361794 21.8075502,25.9990003 21.9122518,26.0408809 C22.0169534,26.0827616 22.3310581,25.97806 22.3310581,25.97806 L22.5823418,26.0199406 C22.8336256,26.0618213 22.6870434,26.0199406 23.063969,25.9152391 C23.4408947,25.8105375 23.2105512,25.9152391 23.3571334,25.9990003 C23.5037156,26.0827616 23.6502978,25.9152391 23.7759397,25.97806 C23.9021975,26.0408809 23.8603168,25.97806 24.1116006,25.9990003 C24.3628844,26.0199406 24.3838247,25.8942987 24.6141681,25.9990003 C24.8445116,26.1037019 24.7607503,26.1037019 25.137676,26.0827616 C25.5146016,26.0618213 25.5564822,25.9990003 25.744945,26.1037019 C25.9334079,26.2084034 26.1846916,26.1455825 26.5203525,26.1246422 C26.8079739,26.1067813 27.0494034,26.0729073 27.1116084,26.0642848 C27.1214627,26.0624371 27.131317,26.0605895 27.1411712,26.0587418 C27.2280119,26.0390333 27.6997849,25.9318681 27.9652341,25.8942987 C28.2583985,25.8524181 28.1955776,25.8314778 28.3002792,25.7267762 C28.4049807,25.6220747 28.425921,25.6848956 28.8034626,25.6011344 C29.1803882,25.5173731 29.0128657,25.4336119 29.2222688,25.2870297 C29.431672,25.1398316 29.2641495,25.0979509 29.6410751,25.0770106 C30.0180007,25.0560703 29.9970604,24.8676075 30.1436426,24.7419656 C30.2902248,24.6163237 30.1855232,24.4906819 30.2064636,24.36504 C30.2274039,24.2393981 30.3321054,24.2812787 30.4158667,24.2184578 C30.4996279,24.1556368 30.5624489,24.0928159 30.7299714,24.1346965 C30.8974939,24.1765772 31.1487777,24.0928159 31.0650164,23.9462337" id="Fill-32" fill="#92BC5C" mask="url(#mask-4)"></path>
                </g>
                <g id="Group-37" transform="translate(0.000000, 13.127729)">
                    <mask id="mask-6" fill="white">
                        <use xlink:href="#path-5"></use>
                    </mask>
                    <g id="Clip-36"></g>
                    <path d="M29.0097862,9.54872129 C28.9469653,9.75812442 28.8847603,9.93303763 28.8219393,10.0266531 C28.7634296,10.1141097 28.6901385,10.24899 28.6168474,10.3906451 C28.613768,10.396804 28.6051455,10.3974199 28.6008342,10.3918768 C28.3310737,10.0488252 27.8358969,9.49760229 27.3992298,9.45448988 C26.7623979,9.39043715 24.5956914,8.88109483 23.0664326,9.70885309 C22.5478519,9.99031554 21.6689746,10.5212141 20.7968722,11.3064758 C20.485231,11.5873224 19.985743,11.3871576 19.957412,10.9683514 C19.8804255,9.83695854 19.9081406,8.55528819 20.1323252,7.16830038 C20.2093116,6.69283208 20.3072384,6.24939016 20.4205624,5.83243156 C20.4858469,5.59408153 20.712495,5.43394972 20.9576199,5.45920127 C20.985335,5.46166484 21.0038117,5.46104895 21.0124342,5.46043306 C21.0161296,5.46043306 21.0198249,5.46228073 21.0216726,5.46597608 L21.1097451,5.64150518 C21.2002812,5.82319319 21.2908172,5.79239861 21.8050867,5.88355056 C22.3193561,5.97408662 23.2567431,6.27648938 23.921906,6.33684676 C24.5876848,6.39782002 24.6178635,6.36702544 24.8900875,6.4581774 C25.1616957,6.54871346 26.3066381,6.91024181 26.3115653,6.91147359 C26.3115653,6.91147359 26.3115653,6.91147359 26.3115653,6.91147359 C26.3140288,6.91147359 26.6145839,6.91270537 26.7654774,7.0931616 C26.9163708,7.27484962 26.9767282,7.24467093 27.3093096,7.24467093 C27.642507,7.24467093 27.6123283,7.27484962 27.6123283,7.27484962 L28.3680272,7.9701912 C28.7585025,8.32987187 28.9395746,8.86631343 29.02272,9.30113288 C29.0387331,9.38366235 29.033806,9.46865538 29.0097862,9.54872129 M32.225972,9.9348853 C30.8531497,9.7525814 29.9453255,10.0796198 29.7833461,10.1442884 C29.7679488,10.1516791 29.7525515,10.1584539 29.7371542,10.1658446 L29.5154332,10.2840958 C29.5074266,10.2884071 29.4988041,10.2810164 29.5012677,10.2723939 C29.647234,9.83018373 29.8738821,9.21983519 30.1220864,8.84722079 C30.3099333,8.56637424 30.4558996,8.34465327 30.5599853,8.18452146 C30.6874749,7.98928384 30.6646869,7.7287617 30.4977803,7.56616633 C30.3444233,7.41650468 30.1559605,7.30071706 30.0315504,7.45592174 C29.789505,7.7583245 30.0013717,8.00036988 29.8196837,8.00036988 C29.6386115,8.00036988 29.5474596,7.72814581 29.3663875,8.27259396 C29.3115731,8.43703701 29.2567588,8.63720177 29.2019444,8.84352544 C29.1994808,8.85337971 29.1865471,8.85337971 29.1834677,8.84414133 C28.9635944,8.08228346 28.3988218,7.60804696 28.3982059,7.60743106 C28.3982059,7.60743106 28.3982059,7.60743106 28.3982059,7.60743106 C28.3982059,7.60681517 28.3378485,7.42574305 28.2774912,7.21387635 C28.2319152,7.05436044 28.2035842,6.79199063 28.1924981,6.67250766 C28.1881869,6.63062704 28.1894187,6.59059408 28.1961935,6.54932935 L28.2639416,6.11882114 C28.2731799,6.06154323 28.272564,6.0048812 28.261478,5.94821918 C28.2374582,5.82935211 28.1894187,5.61625362 28.1259818,5.48999585 C28.0354458,5.30892373 28.0052671,5.30892373 27.8839365,4.7342969 C27.7632217,4.15967006 27.7028643,4.40109956 27.2489522,3.97798205 C26.7956561,3.55424865 27.1701181,3.62877153 26.613968,3.40335522 C26.5369816,3.37194475 26.613968,3.40335522 26.43228,3.37317653 C26.2512079,3.34299784 25.8878319,3.04059508 25.1623116,2.67721906 C24.4361755,2.31445892 23.9527006,2.25410155 22.893983,2.10259223 C22.4991965,2.04654609 22.348303,2.03238059 22.2799391,2.0459302 C22.2713166,2.04716198 22.2651577,2.03730772 22.2707007,2.03053291 C22.6630236,1.52919718 23.0387175,1.15658278 23.3361931,0.896676534 C23.4316563,0.813531173 23.3318819,0.662637738 23.2179419,0.716836196 C22.6876593,0.969967631 21.9331921,1.40786654 21.1374602,2.11860541 C21.0376858,2.20729379 20.9052691,2.2504062 20.7722365,2.23808837 C20.6736939,2.22946589 20.5566745,2.22392286 20.4137876,2.22392286 C19.4764007,2.22392286 19.8995182,2.3748163 19.536758,2.49614694 C19.3402886,2.56143144 18.9670583,2.73326519 18.6652715,2.87676793 C18.5673447,2.92357569 18.6006028,3.07077377 18.7089998,3.07077377 C18.7126951,3.07077377 18.7163905,3.07077377 18.7200858,3.07077377 C19.0828459,3.07077377 18.8408006,3.22166721 19.2343553,3.58504323 C19.6272941,3.94780336 19.2343553,3.58504323 19.2041766,3.88744599 C19.1967859,3.95704174 19.1937064,3.99461112 19.1955541,4.01493555 C19.2183421,4.21263674 19.1709184,4.51257593 19.0717599,4.68564146 C18.6406358,5.43394972 18.2520082,6.30543629 17.9452942,7.32165738 C17.401462,8.88540607 17.1889794,9.3947484 17.1477146,9.49082748 C17.1446352,9.49760229 17.1347809,9.49760229 17.1317015,9.49082748 C17.0953639,9.41322514 16.9395433,9.10466347 16.7430739,9.10466347 C16.5195052,9.10466347 17.1224631,8.63535409 16.3877044,8.23194511 C16.3858568,8.23071333 16.384625,8.22886566 16.384625,8.22701798 C16.3840091,8.02438966 16.3372013,7.56247098 15.8549582,7.49164345 C15.8500311,7.49102756 15.8457199,7.48671632 15.845104,7.48178918 C15.7792036,7.0642147 15.7551838,6.86404994 15.5143702,6.77412977 C15.5119066,6.77351388 15.510059,6.77105031 15.510059,6.76858675 C15.487271,6.54501811 15.4410791,6.16994014 15.0887891,5.9907157 C15.0857097,5.98886802 15.083862,5.98640446 15.0826302,5.98270911 C14.9970213,5.65074355 15.1934907,5.4499629 14.862141,5.24979814 C14.8609092,5.24856636 14.8596775,5.24733457 14.8584457,5.24610279 C14.6139367,4.93384577 14.7919294,4.8217535 14.4340964,4.57539687 C14.0750316,4.32904025 14.0306874,3.88067118 13.5373583,3.72361883 L13.3427365,3.68050642 C13.3384253,3.67927464 13.3353458,3.67619518 13.3353458,3.67188394 C13.3334982,3.62507618 13.3156373,3.35100443 13.1111613,3.20811759 C12.9344004,3.08370749 12.8272353,3.07200555 12.7896659,3.07200555 C12.783507,3.07262145 12.7798116,3.06584664 12.7828911,3.06030361 C12.8204605,2.995635 12.9701221,2.70555007 12.7520965,2.46781593 C12.5685608,2.26765117 12.4225945,2.25410155 12.3597736,2.25964458 C12.3511511,2.26026047 12.3468399,2.2504062 12.3529988,2.24424729 C12.4071972,2.19312829 12.505124,2.05085733 12.2593833,1.84022242 L11.9458944,1.57169369 C11.9452786,1.57169369 11.9452786,1.5710778 11.9446627,1.57046191 C11.9292654,1.54828981 11.6262467,1.12147696 11.4297773,1.07774866 L11.2357715,1.03463625 C11.2314602,1.03402035 11.2283808,1.02970911 11.2283808,1.02478198 C11.2314602,0.974894764 11.2234536,0.70636604 10.7572237,0.584419509 C10.4868473,0.51420787 10.3088547,0.621988895 10.1942988,0.759948606 C10.0655775,0.915153281 9.85063133,0.960113366 9.66216851,0.887438161 C9.58826153,0.858491257 9.4878712,0.852948233 9.34436846,0.898524209 C8.85103932,1.05557656 8.5818947,1.32472117 8.5818947,1.50394562 C8.5818947,1.68317007 8.48581562,1.86054684 8.32445203,1.82482513 C8.11628068,1.77801737 7.79724884,2.13153913 7.77507675,2.35572366 C7.75228876,2.57990819 7.73011666,2.87184079 7.66298448,2.82688071 C7.59523641,2.78192063 7.37105188,2.82688071 7.34887978,3.02827725 C7.32670769,3.23028969 7.37043599,3.148992 7.43756817,3.3171304 C7.47452166,3.40889824 7.16965534,3.38734204 7.19182743,3.67865875 C7.21276775,3.95149871 7.31254218,4.16521309 7.32486001,4.19169643 C7.3260918,4.1935441 7.3260918,4.19539177 7.32486001,4.19723945 C7.3113104,4.22002744 7.2158472,4.38939762 7.23678752,4.59818486 C7.25895961,4.82236939 7.07973517,4.55322478 7.03477508,4.86732948 C6.99043089,5.18081828 7.01260299,5.4277908 7.10252316,5.4499629 C7.19182743,5.472135 7.01260299,5.65197533 7.12469525,5.92111995 C7.16965534,6.02828508 7.21399953,6.1071192 7.25156892,6.16316534 C7.26881388,6.18841689 7.24048287,6.21921147 7.21399953,6.20443007 C7.09328478,6.13729789 6.91898747,6.04245059 6.81059055,5.98825213 C6.63136611,5.89833196 6.27291721,5.56205516 5.19633875,5.80902768 C4.12037618,6.05538431 2.79744109,6.88499025 1.76582272,6.86281816 C1.2922021,6.852348 0.875243508,6.87513599 0.517410507,6.86343405 C0.0795116015,6.84988443 -0.163149676,7.36292211 0.125087578,7.69303999 C0.468139181,8.0872106 1.00211717,8.40624243 1.94566305,8.47706996 C3.7391393,8.61133432 4.14254828,7.87164855 6.87833862,9.37380808 C8.76727807,10.4109695 9.66216851,11.0422583 10.0347829,11.3335751 C10.0803589,11.3692968 10.0378624,11.4407402 9.9842798,11.4179522 C9.77426078,11.3268002 9.47370569,11.1771386 9.18731611,10.9658878 C8.73771527,10.6333063 8.37310746,10.5052009 8.28749853,10.4781017 C8.27949194,10.4756381 8.27210124,10.4830288 8.2751807,10.4910354 L10.6519063,16.6702755 C10.6802373,16.7435666 10.58539,16.8008445 10.5330392,16.7417189 C10.1598089,16.3192173 9.58579796,15.6269552 9.35114327,15.4058501 C8.97052228,15.0474012 4.81510187,13.566182 4.29960063,13.3869575 C3.78409939,13.2077331 1.27310946,13.2526932 0.936216773,13.3647854 C0.599939977,13.4768777 0.500781434,13.4559374 0.375755446,13.6782743 C0.37329188,13.6825855 0.556211675,13.7731216 0.657217893,13.8260882 C0.702177977,13.8494921 0.752065194,13.861194 0.802568303,13.8605782 C1.0439978,13.8568828 1.47081065,13.8538034 2.1470596,14.4857081 C3.17867797,15.4495784 5.3755632,18.4095533 8.31275009,20.2479896 C8.43100127,20.3218966 8.54432532,20.3927241 8.65580169,20.4629358 C8.7358676,20.512823 8.82886722,20.5399222 8.92371452,20.5399222 L10.4511256,20.5399222 C10.4609799,20.5399222 10.4640593,20.5263726 10.4554369,20.5214455 C10.2977686,20.4419955 10.1745903,20.370552 10.1068422,20.3151218 C9.72560535,20.0010171 8.55356369,19.422079 8.35771017,19.104279 C8.21051209,18.865313 8.76727807,19.0463852 9.31480567,19.4171519 C9.95040577,19.8476601 10.5989396,20.2362877 11.1513943,20.4943462 C11.2117517,20.5226773 11.2751885,20.5374587 11.3417048,20.5393063 C11.7167828,20.5516242 11.9631394,20.1488311 11.795001,19.8131702 L10.9179714,18.0584951 C10.914892,18.0529521 10.9130443,18.0480249 10.9111966,18.0424819 C10.8631571,17.9076017 10.2521926,16.1633967 11.6330215,18.6448239 C11.9748414,19.2582519 12.1078739,19.8642892 12.2926414,20.2510691 C12.3764027,20.4272141 12.5531635,20.5399222 12.7477853,20.5399222 L16.2891618,20.5399222 C16.6599285,20.5399222 16.9038216,20.1519105 16.7430739,19.8174814 C16.532439,19.3801984 16.3532145,19.0192859 16.3131816,18.9693987 C16.2054005,18.8339026 12.1195759,12.4212396 11.902782,12.2044457 C11.6866041,11.9882678 9.11587269,9.66142944 7.03231152,8.17281952 C5.76788613,7.26992248 4.6598972,7.07037362 4.6592813,7.07098951 C4.58537432,7.03403601 4.45665298,6.97860577 4.7325724,6.90531468 C6.53590291,6.6842096 9.89066429,9.85789885 11.6053064,11.3391181 C12.7533283,12.3300876 14.6083937,15.4255586 15.8586536,17.4678551 C16.5281277,18.5616785 16.8656363,18.4206393 16.793577,17.1820814 C16.7018091,15.5869222 16.6192797,13.486732 16.827451,12.015367 C17.0892049,10.1621493 17.9083407,8.37360017 18.3881203,7.44729926 C18.4263055,7.37400816 18.5377819,7.42143181 18.5112986,7.49965004 L17.5849976,10.2563807 C16.7319878,12.7963175 17.1156883,17.67849 17.3805216,20.1020233 C17.4082368,20.3526912 17.617024,20.5399222 17.8689237,20.5399222 C18.6455629,20.5399222 20.3700593,20.5399222 22.3772499,20.5399222 C22.382793,20.5399222 22.3871042,20.535611 22.3871042,20.530068 C22.4068127,20.0398183 22.5318387,19.1375371 22.6500899,18.3725998 C22.6771891,18.1995343 22.9241617,18.1970707 22.9555721,18.3689044 C23.1335648,19.3444767 23.5141858,20.1599171 23.7106552,20.5349951 C23.711887,20.5380745 23.7149664,20.5399222 23.7186618,20.5399222 C27.096827,20.5399222 30.834673,20.5399222 32.1625352,20.5399222 C32.4403023,20.5399222 32.6644868,20.3151218 32.6644868,20.0379706 C32.6644868,18.235256 32.6644868,12.1077508 32.6644868,10.4337575 C32.6644868,10.180626 32.4766399,9.96814345 32.225972,9.9348853" id="Fill-35" fill="#92BC5C" mask="url(#mask-6)"></path>
                </g>
                <path d="M97.6103759,27.8902801 L97.6103759,32.656665 L101.369162,32.656665 C102.785097,32.656665 103.846894,31.8393769 103.846894,30.5589383 C103.846894,29.2791156 103.329545,27.8902801 99.8164995,27.8902801 L97.6103759,27.8902801 Z M99.353349,24.9493979 C102.349046,24.9493979 102.975407,23.5870458 102.975407,22.3343223 C102.975407,20.972586 101.831697,20.2920259 100.551874,20.2920259 L97.6103759,20.2920259 L97.6103759,24.9493979 L99.353349,24.9493979 Z M104.146833,26.1202078 C106.434254,26.5285439 108.123029,28.680469 108.123029,30.6408519 C108.123029,33.8822892 105.426656,36.0064992 101.369162,36.0064992 L93.3890551,36.0064992 L93.3890551,16.9150924 L100.551874,16.9421916 C104.419057,16.9421916 107.251542,18.9031904 107.251542,22.1440118 C107.251542,23.7508729 106.18913,25.4119325 104.146833,26.1202078 L104.146833,26.1202078 Z" id="Fill-38" fill="#067D73"></path>
                <path d="M117.710798,32.8198147 C119.725995,32.8198147 121.441869,31.1858543 121.441869,29.00683 C121.441869,26.8555207 119.725995,25.2215604 117.710798,25.2215604 C115.7227,25.2215604 113.979727,26.8278056 113.979727,29.00683 C113.979727,31.2129536 115.7227,32.8198147 117.710798,32.8198147 M117.710798,21.7349982 C121.796007,21.7349982 125.390966,24.6764963 125.390966,29.00683 C125.390966,33.3642628 121.796007,36.3057609 117.710798,36.3057609 C113.652688,36.3057609 110.03063,33.3919779 110.03063,29.00683 C110.03063,24.6493971 113.652688,21.7349982 117.710798,21.7349982" id="Fill-40" fill="#067D73"></path>
                <path d="M141.215684,36.0063145 L137.157574,36.0063145 L137.157574,34.1001301 C135.986764,35.7340904 134.516015,36.3056378 132.827241,36.3056378 C128.905859,36.3056378 127.843446,33.1738291 127.843446,29.6330685 L127.843446,22.0348142 L131.90094,22.0348142 L131.90094,29.5517708 C131.90094,31.4856703 132.609215,32.9558035 134.488916,32.9558035 C136.368001,32.9558035 137.157574,31.4579552 137.157574,29.5246716 L137.157574,22.0348142 L141.215684,22.0348142 L141.215684,36.0063145 Z" id="Fill-42" fill="#067D73"></path>
                <path d="M144.730331,22.0348142 L148.78844,22.0348142 L148.78844,23.9416145 C149.95925,22.3070383 151.429999,21.7354909 153.118774,21.7354909 C157.040155,21.7354909 158.102568,24.8672996 158.102568,28.4080602 L158.102568,36.0063145 L154.044459,36.0063145 L154.044459,28.4893579 C154.044459,26.5560742 153.336799,25.0853252 151.457098,25.0853252 C149.578013,25.0853252 148.78844,26.5831735 148.78844,28.5164571 L148.78844,36.0063145 L144.730331,36.0063145 L144.730331,22.0348142 Z" id="Fill-44" fill="#067D73"></path>
                <path d="M166.27391,22.0348142 L170.141093,22.0348142 L170.141093,25.2214372 L166.27391,25.2214372 L166.27391,31.7578944 C166.27391,32.3571569 166.519034,32.9835186 167.309223,32.9835186 C168.098796,32.9835186 168.37102,32.3294418 168.37102,31.6759808 C168.37102,31.2676447 168.262623,30.6954815 168.18071,30.4774559 L171.393816,30.4774559 C171.638941,30.9954207 171.720855,31.6488816 171.720855,32.1391313 C171.720855,34.2091429 170.359118,36.3056378 167.064099,36.3056378 C164.61285,36.3056378 162.216416,35.4341512 162.216416,31.3760416 L162.216416,25.2214372 L160.118689,25.2214372 L160.118689,22.0348142 L162.515739,22.0348142 L163.142101,18.6036823 L166.27391,18.6036823 L166.27391,22.0348142 Z" id="Fill-46" fill="#067D73"></path>
                <mask id="mask-8" fill="white">
                    <use xlink:href="#path-7"></use>
                </mask>
                <g id="Clip-49"></g>
                <path d="M173.791667,36.0062529 L177.849776,36.0062529 L177.849776,22.0347526 L173.791667,22.0347526 L173.791667,36.0062529 Z M175.861678,16.0162602 C177.305328,16.0162602 178.449039,16.9690445 178.449039,18.3307807 C178.449039,19.6654178 177.305328,20.5917187 175.861678,20.5917187 C174.390929,20.5917187 173.301417,19.6654178 173.301417,18.3307807 C173.301417,16.9690445 174.390929,16.0162602 175.861678,16.0162602 L175.861678,16.0162602 Z" id="Fill-48" fill="#067D73" mask="url(#mask-8)"></path>
                <path d="M186.456368,22.1439502 L189.588177,22.1439502 L189.588177,25.2215604 L186.456368,25.2215604 L186.456368,36.0064376 L182.398259,36.0064376 L182.398259,25.2215604 L180.43726,25.2215604 L180.43726,22.1439502 L182.398259,22.1439502 L182.398259,21.2182652 C182.398259,17.1601556 184.794693,16.0158291 187.245941,16.0158291 C190.541577,16.0158291 191.712387,18.1129399 191.712387,20.1829515 C191.712387,20.3190635 191.658189,20.782214 191.576275,20.9454252 L188.444466,20.9454252 C188.525764,20.8635116 188.553479,20.5912876 188.553479,20.4822748 C188.553479,19.8288138 188.280639,19.2572664 187.491066,19.2572664 C186.701493,19.2572664 186.456368,19.9649258 186.456368,20.5641883 L186.456368,22.1439502 Z" id="Fill-50" fill="#067D73" mask="url(#mask-8)"></path>
                <path d="M205.521353,36.0063145 L201.463244,36.0063145 L201.463244,34.1001301 C200.292434,35.7340904 198.821685,36.3056378 197.13291,36.3056378 C193.211529,36.3056378 192.149116,33.1738291 192.149116,29.6330685 L192.149116,22.0348142 L196.206609,22.0348142 L196.206609,29.5517708 C196.206609,31.4856703 196.914885,32.9558035 198.794586,32.9558035 C200.673671,32.9558035 201.463244,31.4579552 201.463244,29.5246716 L201.463244,22.0348142 L205.521353,22.0348142 L205.521353,36.0063145 Z" id="Fill-51" fill="#067D73" mask="url(#mask-8)"></path>
                <polygon id="Fill-52" fill="#067D73" mask="url(#mask-8)" points="209.09026 36.0062529 213.14837 36.0062529 213.14837 16.3155835 209.09026 16.3155835"></polygon>
                <polygon id="Fill-53" fill="#067D73" mask="url(#mask-8)" points="93.3890551 62.77327 93.3890551 43.7089624 106.053017 43.7089624 106.053017 47.0587966 97.6103759 47.0587966 97.6103759 51.7432679 104.936406 51.7432679 104.936406 55.0931021 97.6103759 55.0931021 97.6103759 62.77327"></polygon>
                <path d="M115.014425,59.7773886 C117.002523,59.7773886 118.664198,58.4975659 118.664198,55.9644039 C118.664198,53.3770434 117.111535,51.7972816 114.905412,51.7972816 C112.672189,51.7972816 111.419465,53.595069 111.419465,55.7469942 C111.419465,57.980217 112.781202,59.7773886 115.014425,59.7773886 L115.014425,59.7773886 Z M122.612679,48.801585 L122.612679,62.7730852 L118.555185,62.7730852 L118.555185,60.7307888 C117.547587,62.1744386 116.21295,63.0730244 114.170037,63.0730244 C109.921617,63.0730244 107.361356,59.8044878 107.361356,55.7192791 C107.361356,51.7972816 109.730691,48.5022617 114.08874,48.5022617 C115.967825,48.5022617 117.601785,49.4279467 118.555185,50.7083853 L118.555185,48.801585 L122.612679,48.801585 Z" id="Fill-54" fill="#067D73" mask="url(#mask-8)"></path>
                <path d="M130.049323,51.8520343 C130.511858,49.3194882 132.663783,48.5022001 133.889407,48.5022001 C134.351942,48.5022001 134.48867,48.5292993 134.924105,48.6112129 L134.924105,52.6145081 C134.351942,52.478396 133.616567,52.4241976 133.208231,52.4241976 C131.683284,52.4241976 130.158336,53.3227834 130.158336,55.1747693 L130.158336,62.7730236 L126.100226,62.7730236 L126.100226,48.8015234 L130.049323,48.8015234 L130.049323,51.8520343 Z" id="Fill-55" fill="#067D73" mask="url(#mask-8)"></path>
                <path d="M149.767831,55.2835974 L149.767831,62.7734547 L145.737436,62.7734547 L145.737436,55.2564981 C145.737436,53.3496978 145.192372,51.8518496 143.395201,51.8518496 C141.624513,51.8518496 141.080064,53.4045122 141.080064,55.2835974 L141.080064,62.7734547 L137.021955,62.7734547 L137.021955,48.8019545 L141.080064,48.8019545 L141.080064,50.7081389 C141.97865,49.3193034 143.286188,48.5020153 144.811135,48.5020153 C146.935346,48.5020153 148.378995,49.4283162 149.087271,50.8442509 C150.149068,48.8019545 152.164881,48.5020153 153.498902,48.5020153 C157.420899,48.5020153 158.482697,51.6344398 158.482697,55.1745846 L158.482697,62.7734547 L154.425203,62.7734547 L154.425203,55.2564981 C154.425203,53.3496978 153.880139,51.8518496 152.082967,51.8518496 C150.312279,51.8518496 149.767831,53.4045122 149.767831,55.2835974" id="Fill-56" fill="#067D73" mask="url(#mask-8)"></path>
                <path d="M165.048409,54.2758756 L172.048016,54.2758756 C171.775176,52.478704 169.95029,51.7975279 168.589169,51.7975279 C167.281631,51.7975279 165.538658,52.3967904 165.048409,54.2758756 L165.048409,54.2758756 Z M175.452049,60.3220831 C173.463951,62.5004916 170.822392,63.0726549 168.942691,63.0726549 C163.76797,63.0726549 160.936101,59.8318334 160.936101,55.8556375 C160.936101,51.7433295 164.149823,48.5018921 168.643368,48.5018921 C172.510551,48.5018921 176.214523,51.1711662 176.214523,56.727124 L164.966495,56.727124 C165.048409,58.4700972 166.65527,59.7505357 169.24263,59.7505357 C170.685664,59.7505357 172.129314,59.0145453 173.109813,58.0888603 L175.452049,60.3220831 Z" id="Fill-57" fill="#067D73" mask="url(#mask-8)"></path>
                <path d="M182.534556,51.8520343 C182.99709,49.3194882 185.149015,48.5022001 186.37464,48.5022001 C186.837174,48.5022001 186.973902,48.5292993 187.409337,48.6112129 L187.409337,52.6145081 C186.837174,52.478396 186.1018,52.4241976 185.693463,52.4241976 C184.168516,52.4241976 182.643568,53.3227834 182.643568,55.1747693 L182.643568,62.7730236 L178.585459,62.7730236 L178.585459,48.8015234 L182.534556,48.8015234 L182.534556,51.8520343 Z" id="Fill-58" fill="#067D73" mask="url(#mask-8)"></path>
                <path d="M191.358804,57.8437354 C191.767756,59.4505965 193.18369,59.9408462 194.300302,59.9408462 C195.198888,59.9408462 196.125189,59.5867086 196.125189,58.8790492 C196.125189,58.4158987 195.852349,58.0888603 195.089875,57.8166362 L192.639242,56.7813225 C189.316507,55.6105126 189.15268,53.404389 189.15268,52.7780273 C189.15268,49.9732571 191.631028,48.502508 194.62734,48.502508 C196.234201,48.502508 198.358411,48.9379434 199.665333,51.4433903 L196.533525,52.8870401 C196.179387,51.7704287 195.171788,51.5524031 194.545427,51.5524031 C193.782953,51.5524031 192.992764,51.9884543 192.992764,52.6967296 C192.992764,53.2953762 193.592026,53.6224146 194.300302,53.8946387 L196.397413,54.7119268 C199.692432,55.6647111 199.992372,57.8166362 199.992372,58.7423212 C199.992372,61.6025217 197.350813,63.0726549 194.272587,63.0726549 C192.203191,63.0726549 189.370706,62.4191939 188.417921,59.504795 L191.358804,57.8437354 Z" id="Fill-59" fill="#067D73" mask="url(#mask-8)"></path>
                <polygon id="Fill-60" fill="#067D73" mask="url(#mask-8)" points="205.058819 51.225919 202.63467 51.225919 201.763183 43.4096391 205.930305 43.4096391"></polygon>
                <polygon id="Fill-61" fill="#067D73" mask="url(#mask-8)" points="225.268069 62.5555523 220.501684 51.1714125 219.494085 62.7735779 215.272765 62.7735779 217.043453 43.7086544 221.291873 43.7086544 226.629805 56.536444 231.967737 43.7086544 236.216157 43.7086544 237.98623 62.7735779 233.764909 62.7735779 232.75731 51.1714125 227.991541 62.5555523"></polygon>
                <path d="M247.819986,59.7773886 C249.808084,59.7773886 251.469759,58.4975659 251.469759,55.9644039 C251.469759,53.3770434 249.917097,51.7972816 247.710973,51.7972816 C245.47775,51.7972816 244.225027,53.595069 244.225027,55.7469942 C244.225027,57.980217 245.586763,59.7773886 247.819986,59.7773886 L247.819986,59.7773886 Z M255.41824,48.801585 L255.41824,62.7730852 L251.360746,62.7730852 L251.360746,60.7307888 C250.352532,62.1744386 249.018511,63.0730244 246.975598,63.0730244 C242.727178,63.0730244 240.166917,59.8044878 240.166917,55.7192791 C240.166917,51.7972816 242.536252,48.5022617 246.894301,48.5022617 C248.773386,48.5022617 250.407346,49.4279467 251.360746,50.7083853 L251.360746,48.801585 L255.41824,48.801585 Z" id="Fill-62" fill="#067D73" mask="url(#mask-8)"></path>
                <path d="M262.855192,51.8520343 C263.317727,49.3194882 265.469652,48.5022001 266.695276,48.5022001 C267.157811,48.5022001 267.294539,48.5292993 267.729974,48.6112129 L267.729974,52.6145081 C267.157811,52.478396 266.422436,52.4241976 266.0141,52.4241976 C264.489153,52.4241976 262.964205,53.3227834 262.964205,55.1747693 L262.964205,62.7730236 L258.906096,62.7730236 L258.906096,48.8015234 L262.855192,48.8015234 L262.855192,51.8520343 Z" id="Fill-63" fill="#067D73" mask="url(#mask-8)"></path>
                <path d="M277.834476,48.8017081 L282.328021,48.8017081 L282.328021,49.3467722 L277.698364,55.1749541 L279.523251,58.0887371 C280.149612,59.0421373 280.639862,59.3414606 281.429435,59.3414606 C281.729374,59.3414606 282.437034,59.2053485 282.927899,58.8512109 L284.452847,61.7107954 C283.199507,62.8274068 281.892585,63.0725317 280.803073,63.0725317 C279.223311,63.0725317 277.780277,62.5557987 276.663666,60.9483217 L273.85828,56.4276775 L273.85828,62.7732084 L269.80017,62.7732084 L269.80017,43.082539 L273.85828,43.082539 L273.85828,54.4666788 L277.834476,48.8017081 Z" id="Fill-64" fill="#067D73" mask="url(#mask-8)"></path>
                <path d="M288.620954,54.2758756 L295.619946,54.2758756 C295.347722,52.478704 293.522835,51.7975279 292.161715,51.7975279 C290.854177,51.7975279 289.111204,52.3967904 288.620954,54.2758756 L288.620954,54.2758756 Z M299.024595,60.3220831 C297.036497,62.5004916 294.394938,63.0726549 292.515237,63.0726549 C287.341132,63.0726549 284.508646,59.8318334 284.508646,55.8556375 C284.508646,51.7433295 287.722369,48.5018921 292.215914,48.5018921 C296.083097,48.5018921 299.787069,51.1711662 299.787069,56.727124 L288.539041,56.727124 C288.620954,58.4700972 290.227816,59.7505357 292.815176,59.7505357 C294.25821,59.7505357 295.70186,59.0145453 296.682359,58.0888603 L299.024595,60.3220831 Z" id="Fill-65" fill="#067D73" mask="url(#mask-8)"></path>
                <path d="M307.005687,48.8017081 L310.87287,48.8017081 L310.87287,51.9883311 L307.005687,51.9883311 L307.005687,58.5247883 C307.005687,59.1240508 307.250812,59.7504126 308.040385,59.7504126 C308.829958,59.7504126 309.102798,59.0963357 309.102798,58.4428748 C309.102798,58.0345387 308.993785,57.4623754 308.911872,57.2443498 L312.125594,57.2443498 C312.370719,57.7616987 312.452632,58.4157755 312.452632,58.9060252 C312.452632,60.9760368 311.090896,63.0725317 307.79526,63.0725317 C305.344012,63.0725317 302.947578,62.2010451 302.947578,58.1429356 L302.947578,51.9883311 L300.850467,51.9883311 L300.850467,48.8017081 L303.246901,48.8017081 L303.873879,45.3705762 L307.005687,45.3705762 L307.005687,48.8017081 Z" id="Fill-66" fill="#067D73" mask="url(#mask-8)"></path>
            </g>
        </g>
    </g>
</svg>