<?xml version="1.0" encoding="UTF-8"?>
<svg width="1350px" height="15px" viewBox="0 0 1350 15" version="1.1" xmlns="http://www.w3.org/2000/svg" xmlns:xlink="http://www.w3.org/1999/xlink">
    <title>Line 6 Copy 7</title>
    <g id="Home-Page" stroke="none" stroke-width="1" fill="none" fill-rule="evenodd" stroke-linecap="square">
        <g id="New-About-Page---2023" transform="translate(0.000000, -2340.000000)" stroke="#FFDED8" stroke-width="2">
            <path d="M0,2341.5 C48.2857143,2341.5 48.2857143,2353.5 96.5714286,2353.5 C144.857143,2353.5 144.857143,2341.5 193.142857,2341.5 C241.428571,2341.5 241.428571,2353.5 289.714286,2353.5 C338,2353.5 338,2341.5 386.285714,2341.5 C434.571429,2341.5 434.571429,2353.5 482.857143,2353.5 C531.142857,2353.5 531.142857,2341.5 579.428571,2341.5 C627.714286,2341.5 627.714286,2353.5 676,2353.5 C724.285714,2353.5 724.285714,2341.5 772.571429,2341.5 C820.857143,2341.5 820.857143,2353.5 869.142857,2353.5 C917.428571,2353.5 917.428571,2341.5 965.714286,2341.5 C1014,2341.5 1014,2353.5 1062.28571,2353.5 C1110.57143,2353.5 1110.57143,2341.5 1158.85714,2341.5 C1207.14286,2341.5 1207.14286,2353.5 1255.42857,2353.5 C1303.71429,2353.5 1303.71429,2341.5 1352,2341.5" id="Line-6-Copy-7"></path>
        </g>
    </g>
</svg>