<?xml version="1.0" encoding="UTF-8"?>
<svg width="1350px" height="15px" viewBox="0 0 1350 15" version="1.1" xmlns="http://www.w3.org/2000/svg" xmlns:xlink="http://www.w3.org/1999/xlink">
    <title>Line 6 Copy 22</title>
    <g id="Home-Page" stroke="none" stroke-width="1" fill="none" fill-rule="evenodd" stroke-linecap="square">
        <g id="New-Homepage-2023" transform="translate(0.000000, -2632.000000)" stroke="#E2F2CE" stroke-width="2">
            <g id="Group-13" transform="translate(-1.000000, 2137.100000)">
                <path d="M0,496.448837 C48.2857143,496.448837 48.2857143,508.448837 96.5714286,508.448837 C144.857143,508.448837 144.857143,496.448837 193.142857,496.448837 C241.428571,496.448837 241.428571,508.448837 289.714286,508.448837 C338,508.448837 338,496.448837 386.285714,496.448837 C434.571429,496.448837 434.571429,508.448837 482.857143,508.448837 C531.142857,508.448837 531.142857,496.448837 579.428571,496.448837 C627.714286,496.448837 627.714286,508.448837 676,508.448837 C724.285714,508.448837 724.285714,496.448837 772.571429,496.448837 C820.857143,496.448837 820.857143,508.448837 869.142857,508.448837 C917.428571,508.448837 917.428571,496.448837 965.714286,496.448837 C1014,496.448837 1014,508.448837 1062.28571,508.448837 C1110.57143,508.448837 1110.57143,496.448837 1158.85714,496.448837 C1207.14286,496.448837 1207.14286,508.448837 1255.42857,508.448837 C1303.71429,508.448837 1303.71429,496.448837 1352,496.448837" id="Line-6-Copy-22"></path>
            </g>
        </g>
    </g>
</svg>